G04 #@! TF.FileFunction,Drawing*
%FSLAX46Y46*%
G04 Gerber Fmt 4.6, Leading zero omitted, Abs format (unit mm)*
G04 Created by KiCad (PCBNEW 4.0.2+dfsg1-2~bpo8+1-stable) date lun 05 jun 2017 18:32:46 ART*
%MOMM*%
G01*
G04 APERTURE LIST*
%ADD10C,0.100000*%
%ADD11C,0.300000*%
%ADD12C,0.200000*%
G04 APERTURE END LIST*
D10*
D11*
X186471429Y-38678571D02*
X186471429Y-39035714D01*
X186114286Y-38892857D02*
X186471429Y-39035714D01*
X186828571Y-38892857D01*
X186257143Y-39321429D02*
X186471429Y-39035714D01*
X186685714Y-39321429D01*
X188471428Y-40107143D02*
X188685714Y-40178571D01*
X189042857Y-40178571D01*
X189185714Y-40107143D01*
X189257143Y-40035714D01*
X189328571Y-39892857D01*
X189328571Y-39750000D01*
X189257143Y-39607143D01*
X189185714Y-39535714D01*
X189042857Y-39464286D01*
X188757143Y-39392857D01*
X188614285Y-39321429D01*
X188542857Y-39250000D01*
X188471428Y-39107143D01*
X188471428Y-38964286D01*
X188542857Y-38821429D01*
X188614285Y-38750000D01*
X188757143Y-38678571D01*
X189114285Y-38678571D01*
X189328571Y-38750000D01*
X190542856Y-40107143D02*
X190399999Y-40178571D01*
X190114285Y-40178571D01*
X189971428Y-40107143D01*
X189899999Y-39964286D01*
X189899999Y-39392857D01*
X189971428Y-39250000D01*
X190114285Y-39178571D01*
X190399999Y-39178571D01*
X190542856Y-39250000D01*
X190614285Y-39392857D01*
X190614285Y-39535714D01*
X189899999Y-39678571D01*
X193042856Y-39178571D02*
X193042856Y-40178571D01*
X192399999Y-39178571D02*
X192399999Y-39964286D01*
X192471427Y-40107143D01*
X192614285Y-40178571D01*
X192828570Y-40178571D01*
X192971427Y-40107143D01*
X193042856Y-40035714D01*
X193542856Y-39178571D02*
X194114285Y-39178571D01*
X193757142Y-38678571D02*
X193757142Y-39964286D01*
X193828570Y-40107143D01*
X193971428Y-40178571D01*
X194114285Y-40178571D01*
X194614285Y-40178571D02*
X194614285Y-39178571D01*
X194614285Y-38678571D02*
X194542856Y-38750000D01*
X194614285Y-38821429D01*
X194685713Y-38750000D01*
X194614285Y-38678571D01*
X194614285Y-38821429D01*
X195542857Y-40178571D02*
X195399999Y-40107143D01*
X195328571Y-39964286D01*
X195328571Y-38678571D01*
X196114285Y-40178571D02*
X196114285Y-39178571D01*
X196114285Y-38678571D02*
X196042856Y-38750000D01*
X196114285Y-38821429D01*
X196185713Y-38750000D01*
X196114285Y-38678571D01*
X196114285Y-38821429D01*
X196685714Y-39178571D02*
X197471428Y-39178571D01*
X196685714Y-40178571D01*
X197471428Y-40178571D01*
X198257143Y-40178571D02*
X198114285Y-40107143D01*
X198042857Y-40035714D01*
X197971428Y-39892857D01*
X197971428Y-39464286D01*
X198042857Y-39321429D01*
X198114285Y-39250000D01*
X198257143Y-39178571D01*
X198471428Y-39178571D01*
X198614285Y-39250000D01*
X198685714Y-39321429D01*
X198757143Y-39464286D01*
X198757143Y-39892857D01*
X198685714Y-40035714D01*
X198614285Y-40107143D01*
X198471428Y-40178571D01*
X198257143Y-40178571D01*
X201185714Y-39178571D02*
X201185714Y-40178571D01*
X200542857Y-39178571D02*
X200542857Y-39964286D01*
X200614285Y-40107143D01*
X200757143Y-40178571D01*
X200971428Y-40178571D01*
X201114285Y-40107143D01*
X201185714Y-40035714D01*
X201900000Y-39178571D02*
X201900000Y-40178571D01*
X201900000Y-39321429D02*
X201971428Y-39250000D01*
X202114286Y-39178571D01*
X202328571Y-39178571D01*
X202471428Y-39250000D01*
X202542857Y-39392857D01*
X202542857Y-40178571D01*
X204400000Y-40178571D02*
X204400000Y-38678571D01*
X204757143Y-38678571D01*
X204971428Y-38750000D01*
X205114286Y-38892857D01*
X205185714Y-39035714D01*
X205257143Y-39321429D01*
X205257143Y-39535714D01*
X205185714Y-39821429D01*
X205114286Y-39964286D01*
X204971428Y-40107143D01*
X204757143Y-40178571D01*
X204400000Y-40178571D01*
X206471428Y-40107143D02*
X206328571Y-40178571D01*
X206042857Y-40178571D01*
X205900000Y-40107143D01*
X205828571Y-39964286D01*
X205828571Y-39392857D01*
X205900000Y-39250000D01*
X206042857Y-39178571D01*
X206328571Y-39178571D01*
X206471428Y-39250000D01*
X206542857Y-39392857D01*
X206542857Y-39535714D01*
X205828571Y-39678571D01*
X207114285Y-40107143D02*
X207257142Y-40178571D01*
X207542857Y-40178571D01*
X207685714Y-40107143D01*
X207757142Y-39964286D01*
X207757142Y-39892857D01*
X207685714Y-39750000D01*
X207542857Y-39678571D01*
X207328571Y-39678571D01*
X207185714Y-39607143D01*
X207114285Y-39464286D01*
X207114285Y-39392857D01*
X207185714Y-39250000D01*
X207328571Y-39178571D01*
X207542857Y-39178571D01*
X207685714Y-39250000D01*
X208400000Y-40178571D02*
X208400000Y-39178571D01*
X208400000Y-38678571D02*
X208328571Y-38750000D01*
X208400000Y-38821429D01*
X208471428Y-38750000D01*
X208400000Y-38678571D01*
X208400000Y-38821429D01*
X209757143Y-39178571D02*
X209757143Y-40392857D01*
X209685714Y-40535714D01*
X209614286Y-40607143D01*
X209471429Y-40678571D01*
X209257143Y-40678571D01*
X209114286Y-40607143D01*
X209757143Y-40107143D02*
X209614286Y-40178571D01*
X209328572Y-40178571D01*
X209185714Y-40107143D01*
X209114286Y-40035714D01*
X209042857Y-39892857D01*
X209042857Y-39464286D01*
X209114286Y-39321429D01*
X209185714Y-39250000D01*
X209328572Y-39178571D01*
X209614286Y-39178571D01*
X209757143Y-39250000D01*
X210471429Y-39178571D02*
X210471429Y-40178571D01*
X210471429Y-39321429D02*
X210542857Y-39250000D01*
X210685715Y-39178571D01*
X210900000Y-39178571D01*
X211042857Y-39250000D01*
X211114286Y-39392857D01*
X211114286Y-40178571D01*
X213828572Y-40178571D02*
X213328572Y-39464286D01*
X212971429Y-40178571D02*
X212971429Y-38678571D01*
X213542857Y-38678571D01*
X213685715Y-38750000D01*
X213757143Y-38821429D01*
X213828572Y-38964286D01*
X213828572Y-39178571D01*
X213757143Y-39321429D01*
X213685715Y-39392857D01*
X213542857Y-39464286D01*
X212971429Y-39464286D01*
X215114286Y-39178571D02*
X215114286Y-40178571D01*
X214471429Y-39178571D02*
X214471429Y-39964286D01*
X214542857Y-40107143D01*
X214685715Y-40178571D01*
X214900000Y-40178571D01*
X215042857Y-40107143D01*
X215114286Y-40035714D01*
X216042858Y-40178571D02*
X215900000Y-40107143D01*
X215828572Y-39964286D01*
X215828572Y-38678571D01*
X217185714Y-40107143D02*
X217042857Y-40178571D01*
X216757143Y-40178571D01*
X216614286Y-40107143D01*
X216542857Y-39964286D01*
X216542857Y-39392857D01*
X216614286Y-39250000D01*
X216757143Y-39178571D01*
X217042857Y-39178571D01*
X217185714Y-39250000D01*
X217257143Y-39392857D01*
X217257143Y-39535714D01*
X216542857Y-39678571D01*
X217828571Y-40107143D02*
X217971428Y-40178571D01*
X218257143Y-40178571D01*
X218400000Y-40107143D01*
X218471428Y-39964286D01*
X218471428Y-39892857D01*
X218400000Y-39750000D01*
X218257143Y-39678571D01*
X218042857Y-39678571D01*
X217900000Y-39607143D01*
X217828571Y-39464286D01*
X217828571Y-39392857D01*
X217900000Y-39250000D01*
X218042857Y-39178571D01*
X218257143Y-39178571D01*
X218400000Y-39250000D01*
X220828571Y-40107143D02*
X220685714Y-40178571D01*
X220400000Y-40178571D01*
X220257143Y-40107143D01*
X220185714Y-39964286D01*
X220185714Y-39392857D01*
X220257143Y-39250000D01*
X220400000Y-39178571D01*
X220685714Y-39178571D01*
X220828571Y-39250000D01*
X220900000Y-39392857D01*
X220900000Y-39535714D01*
X220185714Y-39678571D01*
X221471428Y-40107143D02*
X221614285Y-40178571D01*
X221900000Y-40178571D01*
X222042857Y-40107143D01*
X222114285Y-39964286D01*
X222114285Y-39892857D01*
X222042857Y-39750000D01*
X221900000Y-39678571D01*
X221685714Y-39678571D01*
X221542857Y-39607143D01*
X221471428Y-39464286D01*
X221471428Y-39392857D01*
X221542857Y-39250000D01*
X221685714Y-39178571D01*
X221900000Y-39178571D01*
X222042857Y-39250000D01*
X222542857Y-39178571D02*
X223114286Y-39178571D01*
X222757143Y-38678571D02*
X222757143Y-39964286D01*
X222828571Y-40107143D01*
X222971429Y-40178571D01*
X223114286Y-40178571D01*
X224257143Y-40178571D02*
X224257143Y-39392857D01*
X224185714Y-39250000D01*
X224042857Y-39178571D01*
X223757143Y-39178571D01*
X223614286Y-39250000D01*
X224257143Y-40107143D02*
X224114286Y-40178571D01*
X223757143Y-40178571D01*
X223614286Y-40107143D01*
X223542857Y-39964286D01*
X223542857Y-39821429D01*
X223614286Y-39678571D01*
X223757143Y-39607143D01*
X224114286Y-39607143D01*
X224257143Y-39535714D01*
X224042857Y-38607143D02*
X223828572Y-38821429D01*
X224971429Y-39178571D02*
X224971429Y-40178571D01*
X224971429Y-39321429D02*
X225042857Y-39250000D01*
X225185715Y-39178571D01*
X225400000Y-39178571D01*
X225542857Y-39250000D01*
X225614286Y-39392857D01*
X225614286Y-40178571D01*
X226971429Y-40178571D02*
X226971429Y-38678571D01*
X226971429Y-40107143D02*
X226828572Y-40178571D01*
X226542858Y-40178571D01*
X226400000Y-40107143D01*
X226328572Y-40035714D01*
X226257143Y-39892857D01*
X226257143Y-39464286D01*
X226328572Y-39321429D01*
X226400000Y-39250000D01*
X226542858Y-39178571D01*
X226828572Y-39178571D01*
X226971429Y-39250000D01*
X228328572Y-40178571D02*
X228328572Y-39392857D01*
X228257143Y-39250000D01*
X228114286Y-39178571D01*
X227828572Y-39178571D01*
X227685715Y-39250000D01*
X228328572Y-40107143D02*
X228185715Y-40178571D01*
X227828572Y-40178571D01*
X227685715Y-40107143D01*
X227614286Y-39964286D01*
X227614286Y-39821429D01*
X227685715Y-39678571D01*
X227828572Y-39607143D01*
X228185715Y-39607143D01*
X228328572Y-39535714D01*
X229042858Y-40178571D02*
X229042858Y-39178571D01*
X229042858Y-39464286D02*
X229114286Y-39321429D01*
X229185715Y-39250000D01*
X229328572Y-39178571D01*
X229471429Y-39178571D01*
X231757143Y-40178571D02*
X231757143Y-38678571D01*
X231757143Y-40107143D02*
X231614286Y-40178571D01*
X231328572Y-40178571D01*
X231185714Y-40107143D01*
X231114286Y-40035714D01*
X231042857Y-39892857D01*
X231042857Y-39464286D01*
X231114286Y-39321429D01*
X231185714Y-39250000D01*
X231328572Y-39178571D01*
X231614286Y-39178571D01*
X231757143Y-39250000D01*
X233042857Y-40107143D02*
X232900000Y-40178571D01*
X232614286Y-40178571D01*
X232471429Y-40107143D01*
X232400000Y-39964286D01*
X232400000Y-39392857D01*
X232471429Y-39250000D01*
X232614286Y-39178571D01*
X232900000Y-39178571D01*
X233042857Y-39250000D01*
X233114286Y-39392857D01*
X233114286Y-39535714D01*
X232400000Y-39678571D01*
X186257143Y-41578571D02*
X186257143Y-43078571D01*
X186257143Y-41650000D02*
X186400000Y-41578571D01*
X186685714Y-41578571D01*
X186828571Y-41650000D01*
X186900000Y-41721429D01*
X186971429Y-41864286D01*
X186971429Y-42292857D01*
X186900000Y-42435714D01*
X186828571Y-42507143D01*
X186685714Y-42578571D01*
X186400000Y-42578571D01*
X186257143Y-42507143D01*
X188257143Y-42578571D02*
X188257143Y-41792857D01*
X188185714Y-41650000D01*
X188042857Y-41578571D01*
X187757143Y-41578571D01*
X187614286Y-41650000D01*
X188257143Y-42507143D02*
X188114286Y-42578571D01*
X187757143Y-42578571D01*
X187614286Y-42507143D01*
X187542857Y-42364286D01*
X187542857Y-42221429D01*
X187614286Y-42078571D01*
X187757143Y-42007143D01*
X188114286Y-42007143D01*
X188257143Y-41935714D01*
X188971429Y-42578571D02*
X188971429Y-41578571D01*
X188971429Y-41864286D02*
X189042857Y-41721429D01*
X189114286Y-41650000D01*
X189257143Y-41578571D01*
X189400000Y-41578571D01*
X190542857Y-42578571D02*
X190542857Y-41792857D01*
X190471428Y-41650000D01*
X190328571Y-41578571D01*
X190042857Y-41578571D01*
X189900000Y-41650000D01*
X190542857Y-42507143D02*
X190400000Y-42578571D01*
X190042857Y-42578571D01*
X189900000Y-42507143D01*
X189828571Y-42364286D01*
X189828571Y-42221429D01*
X189900000Y-42078571D01*
X190042857Y-42007143D01*
X190400000Y-42007143D01*
X190542857Y-41935714D01*
X192185714Y-41578571D02*
X192757143Y-41578571D01*
X192400000Y-41078571D02*
X192400000Y-42364286D01*
X192471428Y-42507143D01*
X192614286Y-42578571D01*
X192757143Y-42578571D01*
X193257143Y-42578571D02*
X193257143Y-41578571D01*
X193257143Y-41864286D02*
X193328571Y-41721429D01*
X193400000Y-41650000D01*
X193542857Y-41578571D01*
X193685714Y-41578571D01*
X194828571Y-42578571D02*
X194828571Y-41792857D01*
X194757142Y-41650000D01*
X194614285Y-41578571D01*
X194328571Y-41578571D01*
X194185714Y-41650000D01*
X194828571Y-42507143D02*
X194685714Y-42578571D01*
X194328571Y-42578571D01*
X194185714Y-42507143D01*
X194114285Y-42364286D01*
X194114285Y-42221429D01*
X194185714Y-42078571D01*
X194328571Y-42007143D01*
X194685714Y-42007143D01*
X194828571Y-41935714D01*
X195542857Y-42578571D02*
X195542857Y-41078571D01*
X195542857Y-41650000D02*
X195685714Y-41578571D01*
X195971428Y-41578571D01*
X196114285Y-41650000D01*
X196185714Y-41721429D01*
X196257143Y-41864286D01*
X196257143Y-42292857D01*
X196185714Y-42435714D01*
X196114285Y-42507143D01*
X195971428Y-42578571D01*
X195685714Y-42578571D01*
X195542857Y-42507143D01*
X197542857Y-42578571D02*
X197542857Y-41792857D01*
X197471428Y-41650000D01*
X197328571Y-41578571D01*
X197042857Y-41578571D01*
X196900000Y-41650000D01*
X197542857Y-42507143D02*
X197400000Y-42578571D01*
X197042857Y-42578571D01*
X196900000Y-42507143D01*
X196828571Y-42364286D01*
X196828571Y-42221429D01*
X196900000Y-42078571D01*
X197042857Y-42007143D01*
X197400000Y-42007143D01*
X197542857Y-41935714D01*
X198257143Y-41578571D02*
X198257143Y-42864286D01*
X198185714Y-43007143D01*
X198042857Y-43078571D01*
X197971429Y-43078571D01*
X198257143Y-41078571D02*
X198185714Y-41150000D01*
X198257143Y-41221429D01*
X198328571Y-41150000D01*
X198257143Y-41078571D01*
X198257143Y-41221429D01*
X199614286Y-42578571D02*
X199614286Y-41792857D01*
X199542857Y-41650000D01*
X199400000Y-41578571D01*
X199114286Y-41578571D01*
X198971429Y-41650000D01*
X199614286Y-42507143D02*
X199471429Y-42578571D01*
X199114286Y-42578571D01*
X198971429Y-42507143D01*
X198900000Y-42364286D01*
X198900000Y-42221429D01*
X198971429Y-42078571D01*
X199114286Y-42007143D01*
X199471429Y-42007143D01*
X199614286Y-41935714D01*
X200328572Y-42578571D02*
X200328572Y-41578571D01*
X200328572Y-41864286D02*
X200400000Y-41721429D01*
X200471429Y-41650000D01*
X200614286Y-41578571D01*
X200757143Y-41578571D01*
X202971428Y-42507143D02*
X202828571Y-42578571D01*
X202542857Y-42578571D01*
X202400000Y-42507143D01*
X202328571Y-42364286D01*
X202328571Y-41792857D01*
X202400000Y-41650000D01*
X202542857Y-41578571D01*
X202828571Y-41578571D01*
X202971428Y-41650000D01*
X203042857Y-41792857D01*
X203042857Y-41935714D01*
X202328571Y-42078571D01*
X203685714Y-41578571D02*
X203685714Y-42578571D01*
X203685714Y-41721429D02*
X203757142Y-41650000D01*
X203900000Y-41578571D01*
X204114285Y-41578571D01*
X204257142Y-41650000D01*
X204328571Y-41792857D01*
X204328571Y-42578571D01*
X206828571Y-41578571D02*
X206828571Y-42578571D01*
X206185714Y-41578571D02*
X206185714Y-42364286D01*
X206257142Y-42507143D01*
X206400000Y-42578571D01*
X206614285Y-42578571D01*
X206757142Y-42507143D01*
X206828571Y-42435714D01*
X207542857Y-41578571D02*
X207542857Y-42578571D01*
X207542857Y-41721429D02*
X207614285Y-41650000D01*
X207757143Y-41578571D01*
X207971428Y-41578571D01*
X208114285Y-41650000D01*
X208185714Y-41792857D01*
X208185714Y-42578571D01*
X209542857Y-42578571D02*
X209542857Y-41792857D01*
X209471428Y-41650000D01*
X209328571Y-41578571D01*
X209042857Y-41578571D01*
X208900000Y-41650000D01*
X209542857Y-42507143D02*
X209400000Y-42578571D01*
X209042857Y-42578571D01*
X208900000Y-42507143D01*
X208828571Y-42364286D01*
X208828571Y-42221429D01*
X208900000Y-42078571D01*
X209042857Y-42007143D01*
X209400000Y-42007143D01*
X209542857Y-41935714D01*
X211185714Y-41578571D02*
X211757143Y-41578571D01*
X211400000Y-42578571D02*
X211400000Y-41292857D01*
X211471428Y-41150000D01*
X211614286Y-41078571D01*
X211757143Y-41078571D01*
X212900000Y-42578571D02*
X212900000Y-41792857D01*
X212828571Y-41650000D01*
X212685714Y-41578571D01*
X212400000Y-41578571D01*
X212257143Y-41650000D01*
X212900000Y-42507143D02*
X212757143Y-42578571D01*
X212400000Y-42578571D01*
X212257143Y-42507143D01*
X212185714Y-42364286D01*
X212185714Y-42221429D01*
X212257143Y-42078571D01*
X212400000Y-42007143D01*
X212757143Y-42007143D01*
X212900000Y-41935714D01*
X213614286Y-42578571D02*
X213614286Y-41078571D01*
X213614286Y-41650000D02*
X213757143Y-41578571D01*
X214042857Y-41578571D01*
X214185714Y-41650000D01*
X214257143Y-41721429D01*
X214328572Y-41864286D01*
X214328572Y-42292857D01*
X214257143Y-42435714D01*
X214185714Y-42507143D01*
X214042857Y-42578571D01*
X213757143Y-42578571D01*
X213614286Y-42507143D01*
X214971429Y-42578571D02*
X214971429Y-41578571D01*
X214971429Y-41864286D02*
X215042857Y-41721429D01*
X215114286Y-41650000D01*
X215257143Y-41578571D01*
X215400000Y-41578571D01*
X215900000Y-42578571D02*
X215900000Y-41578571D01*
X215900000Y-41078571D02*
X215828571Y-41150000D01*
X215900000Y-41221429D01*
X215971428Y-41150000D01*
X215900000Y-41078571D01*
X215900000Y-41221429D01*
X217257143Y-42507143D02*
X217114286Y-42578571D01*
X216828572Y-42578571D01*
X216685714Y-42507143D01*
X216614286Y-42435714D01*
X216542857Y-42292857D01*
X216542857Y-41864286D01*
X216614286Y-41721429D01*
X216685714Y-41650000D01*
X216828572Y-41578571D01*
X217114286Y-41578571D01*
X217257143Y-41650000D01*
X218542857Y-42578571D02*
X218542857Y-41792857D01*
X218471428Y-41650000D01*
X218328571Y-41578571D01*
X218042857Y-41578571D01*
X217900000Y-41650000D01*
X218542857Y-42507143D02*
X218400000Y-42578571D01*
X218042857Y-42578571D01*
X217900000Y-42507143D01*
X217828571Y-42364286D01*
X217828571Y-42221429D01*
X217900000Y-42078571D01*
X218042857Y-42007143D01*
X218400000Y-42007143D01*
X218542857Y-41935714D01*
X219900000Y-42507143D02*
X219757143Y-42578571D01*
X219471429Y-42578571D01*
X219328571Y-42507143D01*
X219257143Y-42435714D01*
X219185714Y-42292857D01*
X219185714Y-41864286D01*
X219257143Y-41721429D01*
X219328571Y-41650000D01*
X219471429Y-41578571D01*
X219757143Y-41578571D01*
X219900000Y-41650000D01*
X220542857Y-42578571D02*
X220542857Y-41578571D01*
X220542857Y-41078571D02*
X220471428Y-41150000D01*
X220542857Y-41221429D01*
X220614285Y-41150000D01*
X220542857Y-41078571D01*
X220542857Y-41221429D01*
X221471429Y-42578571D02*
X221328571Y-42507143D01*
X221257143Y-42435714D01*
X221185714Y-42292857D01*
X221185714Y-41864286D01*
X221257143Y-41721429D01*
X221328571Y-41650000D01*
X221471429Y-41578571D01*
X221685714Y-41578571D01*
X221828571Y-41650000D01*
X221900000Y-41721429D01*
X221971429Y-41864286D01*
X221971429Y-42292857D01*
X221900000Y-42435714D01*
X221828571Y-42507143D01*
X221685714Y-42578571D01*
X221471429Y-42578571D01*
X221757143Y-41007143D02*
X221542857Y-41221429D01*
X222614286Y-41578571D02*
X222614286Y-42578571D01*
X222614286Y-41721429D02*
X222685714Y-41650000D01*
X222828572Y-41578571D01*
X223042857Y-41578571D01*
X223185714Y-41650000D01*
X223257143Y-41792857D01*
X223257143Y-42578571D01*
X225757143Y-42578571D02*
X225757143Y-41078571D01*
X225757143Y-42507143D02*
X225614286Y-42578571D01*
X225328572Y-42578571D01*
X225185714Y-42507143D01*
X225114286Y-42435714D01*
X225042857Y-42292857D01*
X225042857Y-41864286D01*
X225114286Y-41721429D01*
X225185714Y-41650000D01*
X225328572Y-41578571D01*
X225614286Y-41578571D01*
X225757143Y-41650000D01*
X227042857Y-42507143D02*
X226900000Y-42578571D01*
X226614286Y-42578571D01*
X226471429Y-42507143D01*
X226400000Y-42364286D01*
X226400000Y-41792857D01*
X226471429Y-41650000D01*
X226614286Y-41578571D01*
X226900000Y-41578571D01*
X227042857Y-41650000D01*
X227114286Y-41792857D01*
X227114286Y-41935714D01*
X226400000Y-42078571D01*
X229542857Y-41078571D02*
X229257143Y-41078571D01*
X229114286Y-41150000D01*
X229042857Y-41221429D01*
X228900000Y-41435714D01*
X228828571Y-41721429D01*
X228828571Y-42292857D01*
X228900000Y-42435714D01*
X228971428Y-42507143D01*
X229114286Y-42578571D01*
X229400000Y-42578571D01*
X229542857Y-42507143D01*
X229614286Y-42435714D01*
X229685714Y-42292857D01*
X229685714Y-41935714D01*
X229614286Y-41792857D01*
X229542857Y-41721429D01*
X229400000Y-41650000D01*
X229114286Y-41650000D01*
X228971428Y-41721429D01*
X228900000Y-41792857D01*
X228828571Y-41935714D01*
X231471428Y-42578571D02*
X231471428Y-41578571D01*
X231471428Y-41721429D02*
X231542856Y-41650000D01*
X231685714Y-41578571D01*
X231899999Y-41578571D01*
X232042856Y-41650000D01*
X232114285Y-41792857D01*
X232114285Y-42578571D01*
X232114285Y-41792857D02*
X232185714Y-41650000D01*
X232328571Y-41578571D01*
X232542856Y-41578571D01*
X232685714Y-41650000D01*
X232757142Y-41792857D01*
X232757142Y-42578571D01*
X233471428Y-42578571D02*
X233471428Y-41578571D01*
X233471428Y-41078571D02*
X233399999Y-41150000D01*
X233471428Y-41221429D01*
X233542856Y-41150000D01*
X233471428Y-41078571D01*
X233471428Y-41221429D01*
X234400000Y-42578571D02*
X234257142Y-42507143D01*
X234185714Y-42364286D01*
X234185714Y-41078571D01*
X234899999Y-42507143D02*
X235042856Y-42578571D01*
X235328571Y-42578571D01*
X235471428Y-42507143D01*
X235542856Y-42364286D01*
X235542856Y-42292857D01*
X235471428Y-42150000D01*
X235328571Y-42078571D01*
X235114285Y-42078571D01*
X234971428Y-42007143D01*
X234899999Y-41864286D01*
X234899999Y-41792857D01*
X234971428Y-41650000D01*
X235114285Y-41578571D01*
X235328571Y-41578571D01*
X235471428Y-41650000D01*
X236185714Y-42435714D02*
X236257142Y-42507143D01*
X236185714Y-42578571D01*
X236114285Y-42507143D01*
X236185714Y-42435714D01*
X236185714Y-42578571D01*
X187185714Y-45878571D02*
X187685714Y-47378571D01*
X188185714Y-45878571D01*
X188685714Y-47378571D02*
X188685714Y-46378571D01*
X188685714Y-45878571D02*
X188614285Y-45950000D01*
X188685714Y-46021429D01*
X188757142Y-45950000D01*
X188685714Y-45878571D01*
X188685714Y-46021429D01*
X190042857Y-47378571D02*
X190042857Y-46592857D01*
X189971428Y-46450000D01*
X189828571Y-46378571D01*
X189542857Y-46378571D01*
X189400000Y-46450000D01*
X190042857Y-47307143D02*
X189900000Y-47378571D01*
X189542857Y-47378571D01*
X189400000Y-47307143D01*
X189328571Y-47164286D01*
X189328571Y-47021429D01*
X189400000Y-46878571D01*
X189542857Y-46807143D01*
X189900000Y-46807143D01*
X190042857Y-46735714D01*
X191900000Y-47378571D02*
X191900000Y-46378571D01*
X191900000Y-46521429D02*
X191971428Y-46450000D01*
X192114286Y-46378571D01*
X192328571Y-46378571D01*
X192471428Y-46450000D01*
X192542857Y-46592857D01*
X192542857Y-47378571D01*
X192542857Y-46592857D02*
X192614286Y-46450000D01*
X192757143Y-46378571D01*
X192971428Y-46378571D01*
X193114286Y-46450000D01*
X193185714Y-46592857D01*
X193185714Y-47378571D01*
X194542857Y-47378571D02*
X194542857Y-46592857D01*
X194471428Y-46450000D01*
X194328571Y-46378571D01*
X194042857Y-46378571D01*
X193900000Y-46450000D01*
X194542857Y-47307143D02*
X194400000Y-47378571D01*
X194042857Y-47378571D01*
X193900000Y-47307143D01*
X193828571Y-47164286D01*
X193828571Y-47021429D01*
X193900000Y-46878571D01*
X194042857Y-46807143D01*
X194400000Y-46807143D01*
X194542857Y-46735714D01*
X194328571Y-45807143D02*
X194114286Y-46021429D01*
X195185714Y-47307143D02*
X195328571Y-47378571D01*
X195614286Y-47378571D01*
X195757143Y-47307143D01*
X195828571Y-47164286D01*
X195828571Y-47092857D01*
X195757143Y-46950000D01*
X195614286Y-46878571D01*
X195400000Y-46878571D01*
X195257143Y-46807143D01*
X195185714Y-46664286D01*
X195185714Y-46592857D01*
X195257143Y-46450000D01*
X195400000Y-46378571D01*
X195614286Y-46378571D01*
X195757143Y-46450000D01*
X197614286Y-46378571D02*
X197614286Y-47878571D01*
X197614286Y-46450000D02*
X197757143Y-46378571D01*
X198042857Y-46378571D01*
X198185714Y-46450000D01*
X198257143Y-46521429D01*
X198328572Y-46664286D01*
X198328572Y-47092857D01*
X198257143Y-47235714D01*
X198185714Y-47307143D01*
X198042857Y-47378571D01*
X197757143Y-47378571D01*
X197614286Y-47307143D01*
X199542857Y-47307143D02*
X199400000Y-47378571D01*
X199114286Y-47378571D01*
X198971429Y-47307143D01*
X198900000Y-47164286D01*
X198900000Y-46592857D01*
X198971429Y-46450000D01*
X199114286Y-46378571D01*
X199400000Y-46378571D01*
X199542857Y-46450000D01*
X199614286Y-46592857D01*
X199614286Y-46735714D01*
X198900000Y-46878571D01*
X200900000Y-46378571D02*
X200900000Y-47878571D01*
X200900000Y-47307143D02*
X200757143Y-47378571D01*
X200471429Y-47378571D01*
X200328571Y-47307143D01*
X200257143Y-47235714D01*
X200185714Y-47092857D01*
X200185714Y-46664286D01*
X200257143Y-46521429D01*
X200328571Y-46450000D01*
X200471429Y-46378571D01*
X200757143Y-46378571D01*
X200900000Y-46450000D01*
X202257143Y-46378571D02*
X202257143Y-47378571D01*
X201614286Y-46378571D02*
X201614286Y-47164286D01*
X201685714Y-47307143D01*
X201828572Y-47378571D01*
X202042857Y-47378571D01*
X202185714Y-47307143D01*
X202257143Y-47235714D01*
X203542857Y-47307143D02*
X203400000Y-47378571D01*
X203114286Y-47378571D01*
X202971429Y-47307143D01*
X202900000Y-47164286D01*
X202900000Y-46592857D01*
X202971429Y-46450000D01*
X203114286Y-46378571D01*
X203400000Y-46378571D01*
X203542857Y-46450000D01*
X203614286Y-46592857D01*
X203614286Y-46735714D01*
X202900000Y-46878571D01*
X204257143Y-46378571D02*
X204257143Y-47378571D01*
X204257143Y-46521429D02*
X204328571Y-46450000D01*
X204471429Y-46378571D01*
X204685714Y-46378571D01*
X204828571Y-46450000D01*
X204900000Y-46592857D01*
X204900000Y-47378571D01*
X204185714Y-46021429D02*
X204257143Y-45950000D01*
X204400000Y-45878571D01*
X204685714Y-46021429D01*
X204828571Y-45950000D01*
X204900000Y-45878571D01*
X206257143Y-47378571D02*
X206257143Y-46592857D01*
X206185714Y-46450000D01*
X206042857Y-46378571D01*
X205757143Y-46378571D01*
X205614286Y-46450000D01*
X206257143Y-47307143D02*
X206114286Y-47378571D01*
X205757143Y-47378571D01*
X205614286Y-47307143D01*
X205542857Y-47164286D01*
X205542857Y-47021429D01*
X205614286Y-46878571D01*
X205757143Y-46807143D01*
X206114286Y-46807143D01*
X206257143Y-46735714D01*
X208042857Y-46021429D02*
X208114286Y-45950000D01*
X208257143Y-45878571D01*
X208614286Y-45878571D01*
X208757143Y-45950000D01*
X208828572Y-46021429D01*
X208900000Y-46164286D01*
X208900000Y-46307143D01*
X208828572Y-46521429D01*
X207971429Y-47378571D01*
X208900000Y-47378571D01*
X209757143Y-46521429D02*
X209614285Y-46450000D01*
X209542857Y-46378571D01*
X209471428Y-46235714D01*
X209471428Y-46164286D01*
X209542857Y-46021429D01*
X209614285Y-45950000D01*
X209757143Y-45878571D01*
X210042857Y-45878571D01*
X210185714Y-45950000D01*
X210257143Y-46021429D01*
X210328571Y-46164286D01*
X210328571Y-46235714D01*
X210257143Y-46378571D01*
X210185714Y-46450000D01*
X210042857Y-46521429D01*
X209757143Y-46521429D01*
X209614285Y-46592857D01*
X209542857Y-46664286D01*
X209471428Y-46807143D01*
X209471428Y-47092857D01*
X209542857Y-47235714D01*
X209614285Y-47307143D01*
X209757143Y-47378571D01*
X210042857Y-47378571D01*
X210185714Y-47307143D01*
X210257143Y-47235714D01*
X210328571Y-47092857D01*
X210328571Y-46807143D01*
X210257143Y-46664286D01*
X210185714Y-46592857D01*
X210042857Y-46521429D01*
X212042856Y-45807143D02*
X210757142Y-47735714D01*
X213328571Y-47378571D02*
X212471428Y-47378571D01*
X212900000Y-47378571D02*
X212900000Y-45878571D01*
X212757143Y-46092857D01*
X212614285Y-46235714D01*
X212471428Y-46307143D01*
X214614285Y-45878571D02*
X214328571Y-45878571D01*
X214185714Y-45950000D01*
X214114285Y-46021429D01*
X213971428Y-46235714D01*
X213899999Y-46521429D01*
X213899999Y-47092857D01*
X213971428Y-47235714D01*
X214042856Y-47307143D01*
X214185714Y-47378571D01*
X214471428Y-47378571D01*
X214614285Y-47307143D01*
X214685714Y-47235714D01*
X214757142Y-47092857D01*
X214757142Y-46735714D01*
X214685714Y-46592857D01*
X214614285Y-46521429D01*
X214471428Y-46450000D01*
X214185714Y-46450000D01*
X214042856Y-46521429D01*
X213971428Y-46592857D01*
X213899999Y-46735714D01*
X216542856Y-47378571D02*
X216542856Y-46378571D01*
X216542856Y-46521429D02*
X216614284Y-46450000D01*
X216757142Y-46378571D01*
X216971427Y-46378571D01*
X217114284Y-46450000D01*
X217185713Y-46592857D01*
X217185713Y-47378571D01*
X217185713Y-46592857D02*
X217257142Y-46450000D01*
X217399999Y-46378571D01*
X217614284Y-46378571D01*
X217757142Y-46450000D01*
X217828570Y-46592857D01*
X217828570Y-47378571D01*
X218542856Y-47378571D02*
X218542856Y-46378571D01*
X218542856Y-45878571D02*
X218471427Y-45950000D01*
X218542856Y-46021429D01*
X218614284Y-45950000D01*
X218542856Y-45878571D01*
X218542856Y-46021429D01*
X219471428Y-47378571D02*
X219328570Y-47307143D01*
X219257142Y-47164286D01*
X219257142Y-45878571D01*
X219971427Y-47307143D02*
X220114284Y-47378571D01*
X220399999Y-47378571D01*
X220542856Y-47307143D01*
X220614284Y-47164286D01*
X220614284Y-47092857D01*
X220542856Y-46950000D01*
X220399999Y-46878571D01*
X220185713Y-46878571D01*
X220042856Y-46807143D01*
X219971427Y-46664286D01*
X219971427Y-46592857D01*
X220042856Y-46450000D01*
X220185713Y-46378571D01*
X220399999Y-46378571D01*
X220542856Y-46450000D01*
X187328571Y-49350000D02*
X188042857Y-49350000D01*
X187185714Y-49778571D02*
X187685714Y-48278571D01*
X188185714Y-49778571D01*
X188685714Y-48778571D02*
X188685714Y-49778571D01*
X188685714Y-48921429D02*
X188757142Y-48850000D01*
X188900000Y-48778571D01*
X189114285Y-48778571D01*
X189257142Y-48850000D01*
X189328571Y-48992857D01*
X189328571Y-49778571D01*
X190685714Y-49707143D02*
X190542857Y-49778571D01*
X190257143Y-49778571D01*
X190114285Y-49707143D01*
X190042857Y-49635714D01*
X189971428Y-49492857D01*
X189971428Y-49064286D01*
X190042857Y-48921429D01*
X190114285Y-48850000D01*
X190257143Y-48778571D01*
X190542857Y-48778571D01*
X190685714Y-48850000D01*
X191328571Y-49778571D02*
X191328571Y-48278571D01*
X191971428Y-49778571D02*
X191971428Y-48992857D01*
X191899999Y-48850000D01*
X191757142Y-48778571D01*
X191542857Y-48778571D01*
X191399999Y-48850000D01*
X191328571Y-48921429D01*
X192900000Y-49778571D02*
X192757142Y-49707143D01*
X192685714Y-49635714D01*
X192614285Y-49492857D01*
X192614285Y-49064286D01*
X192685714Y-48921429D01*
X192757142Y-48850000D01*
X192900000Y-48778571D01*
X193114285Y-48778571D01*
X193257142Y-48850000D01*
X193328571Y-48921429D01*
X193400000Y-49064286D01*
X193400000Y-49492857D01*
X193328571Y-49635714D01*
X193257142Y-49707143D01*
X193114285Y-49778571D01*
X192900000Y-49778571D01*
X195828571Y-49778571D02*
X195828571Y-48278571D01*
X195828571Y-49707143D02*
X195685714Y-49778571D01*
X195400000Y-49778571D01*
X195257142Y-49707143D01*
X195185714Y-49635714D01*
X195114285Y-49492857D01*
X195114285Y-49064286D01*
X195185714Y-48921429D01*
X195257142Y-48850000D01*
X195400000Y-48778571D01*
X195685714Y-48778571D01*
X195828571Y-48850000D01*
X197114285Y-49707143D02*
X196971428Y-49778571D01*
X196685714Y-49778571D01*
X196542857Y-49707143D01*
X196471428Y-49564286D01*
X196471428Y-48992857D01*
X196542857Y-48850000D01*
X196685714Y-48778571D01*
X196971428Y-48778571D01*
X197114285Y-48850000D01*
X197185714Y-48992857D01*
X197185714Y-49135714D01*
X196471428Y-49278571D01*
X198971428Y-48778571D02*
X198971428Y-50278571D01*
X198971428Y-48850000D02*
X199114285Y-48778571D01*
X199399999Y-48778571D01*
X199542856Y-48850000D01*
X199614285Y-48921429D01*
X199685714Y-49064286D01*
X199685714Y-49492857D01*
X199614285Y-49635714D01*
X199542856Y-49707143D01*
X199399999Y-49778571D01*
X199114285Y-49778571D01*
X198971428Y-49707143D01*
X200328571Y-49778571D02*
X200328571Y-48778571D01*
X200328571Y-48278571D02*
X200257142Y-48350000D01*
X200328571Y-48421429D01*
X200399999Y-48350000D01*
X200328571Y-48278571D01*
X200328571Y-48421429D01*
X200971428Y-49707143D02*
X201114285Y-49778571D01*
X201400000Y-49778571D01*
X201542857Y-49707143D01*
X201614285Y-49564286D01*
X201614285Y-49492857D01*
X201542857Y-49350000D01*
X201400000Y-49278571D01*
X201185714Y-49278571D01*
X201042857Y-49207143D01*
X200971428Y-49064286D01*
X200971428Y-48992857D01*
X201042857Y-48850000D01*
X201185714Y-48778571D01*
X201400000Y-48778571D01*
X201542857Y-48850000D01*
X202042857Y-48778571D02*
X202614286Y-48778571D01*
X202257143Y-48278571D02*
X202257143Y-49564286D01*
X202328571Y-49707143D01*
X202471429Y-49778571D01*
X202614286Y-49778571D01*
X203757143Y-49778571D02*
X203757143Y-48992857D01*
X203685714Y-48850000D01*
X203542857Y-48778571D01*
X203257143Y-48778571D01*
X203114286Y-48850000D01*
X203757143Y-49707143D02*
X203614286Y-49778571D01*
X203257143Y-49778571D01*
X203114286Y-49707143D01*
X203042857Y-49564286D01*
X203042857Y-49421429D01*
X203114286Y-49278571D01*
X203257143Y-49207143D01*
X203614286Y-49207143D01*
X203757143Y-49135714D01*
X205614286Y-49778571D02*
X205614286Y-48778571D01*
X205614286Y-48921429D02*
X205685714Y-48850000D01*
X205828572Y-48778571D01*
X206042857Y-48778571D01*
X206185714Y-48850000D01*
X206257143Y-48992857D01*
X206257143Y-49778571D01*
X206257143Y-48992857D02*
X206328572Y-48850000D01*
X206471429Y-48778571D01*
X206685714Y-48778571D01*
X206828572Y-48850000D01*
X206900000Y-48992857D01*
X206900000Y-49778571D01*
X208257143Y-49778571D02*
X208257143Y-48992857D01*
X208185714Y-48850000D01*
X208042857Y-48778571D01*
X207757143Y-48778571D01*
X207614286Y-48850000D01*
X208257143Y-49707143D02*
X208114286Y-49778571D01*
X207757143Y-49778571D01*
X207614286Y-49707143D01*
X207542857Y-49564286D01*
X207542857Y-49421429D01*
X207614286Y-49278571D01*
X207757143Y-49207143D01*
X208114286Y-49207143D01*
X208257143Y-49135714D01*
X208042857Y-48207143D02*
X207828572Y-48421429D01*
X208900000Y-49707143D02*
X209042857Y-49778571D01*
X209328572Y-49778571D01*
X209471429Y-49707143D01*
X209542857Y-49564286D01*
X209542857Y-49492857D01*
X209471429Y-49350000D01*
X209328572Y-49278571D01*
X209114286Y-49278571D01*
X208971429Y-49207143D01*
X208900000Y-49064286D01*
X208900000Y-48992857D01*
X208971429Y-48850000D01*
X209114286Y-48778571D01*
X209328572Y-48778571D01*
X209471429Y-48850000D01*
X211328572Y-48778571D02*
X211328572Y-50278571D01*
X211328572Y-48850000D02*
X211471429Y-48778571D01*
X211757143Y-48778571D01*
X211900000Y-48850000D01*
X211971429Y-48921429D01*
X212042858Y-49064286D01*
X212042858Y-49492857D01*
X211971429Y-49635714D01*
X211900000Y-49707143D01*
X211757143Y-49778571D01*
X211471429Y-49778571D01*
X211328572Y-49707143D01*
X213257143Y-49707143D02*
X213114286Y-49778571D01*
X212828572Y-49778571D01*
X212685715Y-49707143D01*
X212614286Y-49564286D01*
X212614286Y-48992857D01*
X212685715Y-48850000D01*
X212828572Y-48778571D01*
X213114286Y-48778571D01*
X213257143Y-48850000D01*
X213328572Y-48992857D01*
X213328572Y-49135714D01*
X212614286Y-49278571D01*
X214614286Y-48778571D02*
X214614286Y-50278571D01*
X214614286Y-49707143D02*
X214471429Y-49778571D01*
X214185715Y-49778571D01*
X214042857Y-49707143D01*
X213971429Y-49635714D01*
X213900000Y-49492857D01*
X213900000Y-49064286D01*
X213971429Y-48921429D01*
X214042857Y-48850000D01*
X214185715Y-48778571D01*
X214471429Y-48778571D01*
X214614286Y-48850000D01*
X215971429Y-48778571D02*
X215971429Y-49778571D01*
X215328572Y-48778571D02*
X215328572Y-49564286D01*
X215400000Y-49707143D01*
X215542858Y-49778571D01*
X215757143Y-49778571D01*
X215900000Y-49707143D01*
X215971429Y-49635714D01*
X217257143Y-49707143D02*
X217114286Y-49778571D01*
X216828572Y-49778571D01*
X216685715Y-49707143D01*
X216614286Y-49564286D01*
X216614286Y-48992857D01*
X216685715Y-48850000D01*
X216828572Y-48778571D01*
X217114286Y-48778571D01*
X217257143Y-48850000D01*
X217328572Y-48992857D01*
X217328572Y-49135714D01*
X216614286Y-49278571D01*
X217971429Y-48778571D02*
X217971429Y-49778571D01*
X217971429Y-48921429D02*
X218042857Y-48850000D01*
X218185715Y-48778571D01*
X218400000Y-48778571D01*
X218542857Y-48850000D01*
X218614286Y-48992857D01*
X218614286Y-49778571D01*
X217900000Y-48421429D02*
X217971429Y-48350000D01*
X218114286Y-48278571D01*
X218400000Y-48421429D01*
X218542857Y-48350000D01*
X218614286Y-48278571D01*
X219542858Y-49778571D02*
X219400000Y-49707143D01*
X219328572Y-49635714D01*
X219257143Y-49492857D01*
X219257143Y-49064286D01*
X219328572Y-48921429D01*
X219400000Y-48850000D01*
X219542858Y-48778571D01*
X219757143Y-48778571D01*
X219900000Y-48850000D01*
X219971429Y-48921429D01*
X220042858Y-49064286D01*
X220042858Y-49492857D01*
X219971429Y-49635714D01*
X219900000Y-49707143D01*
X219757143Y-49778571D01*
X219542858Y-49778571D01*
X222471429Y-48278571D02*
X222185715Y-48278571D01*
X222042858Y-48350000D01*
X221971429Y-48421429D01*
X221828572Y-48635714D01*
X221757143Y-48921429D01*
X221757143Y-49492857D01*
X221828572Y-49635714D01*
X221900000Y-49707143D01*
X222042858Y-49778571D01*
X222328572Y-49778571D01*
X222471429Y-49707143D01*
X222542858Y-49635714D01*
X222614286Y-49492857D01*
X222614286Y-49135714D01*
X222542858Y-48992857D01*
X222471429Y-48921429D01*
X222328572Y-48850000D01*
X222042858Y-48850000D01*
X221900000Y-48921429D01*
X221828572Y-48992857D01*
X221757143Y-49135714D01*
X224400000Y-49778571D02*
X224400000Y-48778571D01*
X224400000Y-48921429D02*
X224471428Y-48850000D01*
X224614286Y-48778571D01*
X224828571Y-48778571D01*
X224971428Y-48850000D01*
X225042857Y-48992857D01*
X225042857Y-49778571D01*
X225042857Y-48992857D02*
X225114286Y-48850000D01*
X225257143Y-48778571D01*
X225471428Y-48778571D01*
X225614286Y-48850000D01*
X225685714Y-48992857D01*
X225685714Y-49778571D01*
X226400000Y-49778571D02*
X226400000Y-48778571D01*
X226400000Y-48278571D02*
X226328571Y-48350000D01*
X226400000Y-48421429D01*
X226471428Y-48350000D01*
X226400000Y-48278571D01*
X226400000Y-48421429D01*
X227328572Y-49778571D02*
X227185714Y-49707143D01*
X227114286Y-49564286D01*
X227114286Y-48278571D01*
X227828571Y-49707143D02*
X227971428Y-49778571D01*
X228257143Y-49778571D01*
X228400000Y-49707143D01*
X228471428Y-49564286D01*
X228471428Y-49492857D01*
X228400000Y-49350000D01*
X228257143Y-49278571D01*
X228042857Y-49278571D01*
X227900000Y-49207143D01*
X227828571Y-49064286D01*
X227828571Y-48992857D01*
X227900000Y-48850000D01*
X228042857Y-48778571D01*
X228257143Y-48778571D01*
X228400000Y-48850000D01*
X187328571Y-52107143D02*
X187542857Y-52178571D01*
X187900000Y-52178571D01*
X188042857Y-52107143D01*
X188114286Y-52035714D01*
X188185714Y-51892857D01*
X188185714Y-51750000D01*
X188114286Y-51607143D01*
X188042857Y-51535714D01*
X187900000Y-51464286D01*
X187614286Y-51392857D01*
X187471428Y-51321429D01*
X187400000Y-51250000D01*
X187328571Y-51107143D01*
X187328571Y-50964286D01*
X187400000Y-50821429D01*
X187471428Y-50750000D01*
X187614286Y-50678571D01*
X187971428Y-50678571D01*
X188185714Y-50750000D01*
X189399999Y-52107143D02*
X189257142Y-52178571D01*
X188971428Y-52178571D01*
X188828571Y-52107143D01*
X188757142Y-51964286D01*
X188757142Y-51392857D01*
X188828571Y-51250000D01*
X188971428Y-51178571D01*
X189257142Y-51178571D01*
X189399999Y-51250000D01*
X189471428Y-51392857D01*
X189471428Y-51535714D01*
X188757142Y-51678571D01*
X190114285Y-51178571D02*
X190114285Y-52678571D01*
X190114285Y-51250000D02*
X190257142Y-51178571D01*
X190542856Y-51178571D01*
X190685713Y-51250000D01*
X190757142Y-51321429D01*
X190828571Y-51464286D01*
X190828571Y-51892857D01*
X190757142Y-52035714D01*
X190685713Y-52107143D01*
X190542856Y-52178571D01*
X190257142Y-52178571D01*
X190114285Y-52107143D01*
X192114285Y-52178571D02*
X192114285Y-51392857D01*
X192042856Y-51250000D01*
X191899999Y-51178571D01*
X191614285Y-51178571D01*
X191471428Y-51250000D01*
X192114285Y-52107143D02*
X191971428Y-52178571D01*
X191614285Y-52178571D01*
X191471428Y-52107143D01*
X191399999Y-51964286D01*
X191399999Y-51821429D01*
X191471428Y-51678571D01*
X191614285Y-51607143D01*
X191971428Y-51607143D01*
X192114285Y-51535714D01*
X192828571Y-52178571D02*
X192828571Y-51178571D01*
X192828571Y-51464286D02*
X192899999Y-51321429D01*
X192971428Y-51250000D01*
X193114285Y-51178571D01*
X193257142Y-51178571D01*
X194399999Y-52178571D02*
X194399999Y-51392857D01*
X194328570Y-51250000D01*
X194185713Y-51178571D01*
X193899999Y-51178571D01*
X193757142Y-51250000D01*
X194399999Y-52107143D02*
X194257142Y-52178571D01*
X193899999Y-52178571D01*
X193757142Y-52107143D01*
X193685713Y-51964286D01*
X193685713Y-51821429D01*
X193757142Y-51678571D01*
X193899999Y-51607143D01*
X194257142Y-51607143D01*
X194399999Y-51535714D01*
X195757142Y-52107143D02*
X195614285Y-52178571D01*
X195328571Y-52178571D01*
X195185713Y-52107143D01*
X195114285Y-52035714D01*
X195042856Y-51892857D01*
X195042856Y-51464286D01*
X195114285Y-51321429D01*
X195185713Y-51250000D01*
X195328571Y-51178571D01*
X195614285Y-51178571D01*
X195757142Y-51250000D01*
X196399999Y-52178571D02*
X196399999Y-51178571D01*
X196399999Y-50678571D02*
X196328570Y-50750000D01*
X196399999Y-50821429D01*
X196471427Y-50750000D01*
X196399999Y-50678571D01*
X196399999Y-50821429D01*
X197328571Y-52178571D02*
X197185713Y-52107143D01*
X197114285Y-52035714D01*
X197042856Y-51892857D01*
X197042856Y-51464286D01*
X197114285Y-51321429D01*
X197185713Y-51250000D01*
X197328571Y-51178571D01*
X197542856Y-51178571D01*
X197685713Y-51250000D01*
X197757142Y-51321429D01*
X197828571Y-51464286D01*
X197828571Y-51892857D01*
X197757142Y-52035714D01*
X197685713Y-52107143D01*
X197542856Y-52178571D01*
X197328571Y-52178571D01*
X197614285Y-50607143D02*
X197399999Y-50821429D01*
X198471428Y-51178571D02*
X198471428Y-52178571D01*
X198471428Y-51321429D02*
X198542856Y-51250000D01*
X198685714Y-51178571D01*
X198899999Y-51178571D01*
X199042856Y-51250000D01*
X199114285Y-51392857D01*
X199114285Y-52178571D01*
X201542856Y-52107143D02*
X201399999Y-52178571D01*
X201114285Y-52178571D01*
X200971428Y-52107143D01*
X200899999Y-51964286D01*
X200899999Y-51392857D01*
X200971428Y-51250000D01*
X201114285Y-51178571D01*
X201399999Y-51178571D01*
X201542856Y-51250000D01*
X201614285Y-51392857D01*
X201614285Y-51535714D01*
X200899999Y-51678571D01*
X202257142Y-51178571D02*
X202257142Y-52178571D01*
X202257142Y-51321429D02*
X202328570Y-51250000D01*
X202471428Y-51178571D01*
X202685713Y-51178571D01*
X202828570Y-51250000D01*
X202899999Y-51392857D01*
X202899999Y-52178571D01*
X203399999Y-51178571D02*
X203971428Y-51178571D01*
X203614285Y-50678571D02*
X203614285Y-51964286D01*
X203685713Y-52107143D01*
X203828571Y-52178571D01*
X203971428Y-52178571D01*
X204471428Y-52178571D02*
X204471428Y-51178571D01*
X204471428Y-51464286D02*
X204542856Y-51321429D01*
X204614285Y-51250000D01*
X204757142Y-51178571D01*
X204899999Y-51178571D01*
X205971427Y-52107143D02*
X205828570Y-52178571D01*
X205542856Y-52178571D01*
X205399999Y-52107143D01*
X205328570Y-51964286D01*
X205328570Y-51392857D01*
X205399999Y-51250000D01*
X205542856Y-51178571D01*
X205828570Y-51178571D01*
X205971427Y-51250000D01*
X206042856Y-51392857D01*
X206042856Y-51535714D01*
X205328570Y-51678571D01*
X207828570Y-51178571D02*
X207828570Y-52678571D01*
X207828570Y-51250000D02*
X207971427Y-51178571D01*
X208257141Y-51178571D01*
X208399998Y-51250000D01*
X208471427Y-51321429D01*
X208542856Y-51464286D01*
X208542856Y-51892857D01*
X208471427Y-52035714D01*
X208399998Y-52107143D01*
X208257141Y-52178571D01*
X207971427Y-52178571D01*
X207828570Y-52107143D01*
X209185713Y-52178571D02*
X209185713Y-51178571D01*
X209185713Y-50678571D02*
X209114284Y-50750000D01*
X209185713Y-50821429D01*
X209257141Y-50750000D01*
X209185713Y-50678571D01*
X209185713Y-50821429D01*
X209828570Y-52107143D02*
X209971427Y-52178571D01*
X210257142Y-52178571D01*
X210399999Y-52107143D01*
X210471427Y-51964286D01*
X210471427Y-51892857D01*
X210399999Y-51750000D01*
X210257142Y-51678571D01*
X210042856Y-51678571D01*
X209899999Y-51607143D01*
X209828570Y-51464286D01*
X209828570Y-51392857D01*
X209899999Y-51250000D01*
X210042856Y-51178571D01*
X210257142Y-51178571D01*
X210399999Y-51250000D01*
X210899999Y-51178571D02*
X211471428Y-51178571D01*
X211114285Y-50678571D02*
X211114285Y-51964286D01*
X211185713Y-52107143D01*
X211328571Y-52178571D01*
X211471428Y-52178571D01*
X212614285Y-52178571D02*
X212614285Y-51392857D01*
X212542856Y-51250000D01*
X212399999Y-51178571D01*
X212114285Y-51178571D01*
X211971428Y-51250000D01*
X212614285Y-52107143D02*
X212471428Y-52178571D01*
X212114285Y-52178571D01*
X211971428Y-52107143D01*
X211899999Y-51964286D01*
X211899999Y-51821429D01*
X211971428Y-51678571D01*
X212114285Y-51607143D01*
X212471428Y-51607143D01*
X212614285Y-51535714D01*
X213257142Y-52107143D02*
X213399999Y-52178571D01*
X213685714Y-52178571D01*
X213828571Y-52107143D01*
X213899999Y-51964286D01*
X213899999Y-51892857D01*
X213828571Y-51750000D01*
X213685714Y-51678571D01*
X213471428Y-51678571D01*
X213328571Y-51607143D01*
X213257142Y-51464286D01*
X213257142Y-51392857D01*
X213328571Y-51250000D01*
X213471428Y-51178571D01*
X213685714Y-51178571D01*
X213828571Y-51250000D01*
X216328571Y-50678571D02*
X216042857Y-50678571D01*
X215900000Y-50750000D01*
X215828571Y-50821429D01*
X215685714Y-51035714D01*
X215614285Y-51321429D01*
X215614285Y-51892857D01*
X215685714Y-52035714D01*
X215757142Y-52107143D01*
X215900000Y-52178571D01*
X216185714Y-52178571D01*
X216328571Y-52107143D01*
X216400000Y-52035714D01*
X216471428Y-51892857D01*
X216471428Y-51535714D01*
X216400000Y-51392857D01*
X216328571Y-51321429D01*
X216185714Y-51250000D01*
X215900000Y-51250000D01*
X215757142Y-51321429D01*
X215685714Y-51392857D01*
X215614285Y-51535714D01*
X218257142Y-52178571D02*
X218257142Y-51178571D01*
X218257142Y-51321429D02*
X218328570Y-51250000D01*
X218471428Y-51178571D01*
X218685713Y-51178571D01*
X218828570Y-51250000D01*
X218899999Y-51392857D01*
X218899999Y-52178571D01*
X218899999Y-51392857D02*
X218971428Y-51250000D01*
X219114285Y-51178571D01*
X219328570Y-51178571D01*
X219471428Y-51250000D01*
X219542856Y-51392857D01*
X219542856Y-52178571D01*
X220257142Y-52178571D02*
X220257142Y-51178571D01*
X220257142Y-50678571D02*
X220185713Y-50750000D01*
X220257142Y-50821429D01*
X220328570Y-50750000D01*
X220257142Y-50678571D01*
X220257142Y-50821429D01*
X221185714Y-52178571D02*
X221042856Y-52107143D01*
X220971428Y-51964286D01*
X220971428Y-50678571D01*
X221685713Y-52107143D02*
X221828570Y-52178571D01*
X222114285Y-52178571D01*
X222257142Y-52107143D01*
X222328570Y-51964286D01*
X222328570Y-51892857D01*
X222257142Y-51750000D01*
X222114285Y-51678571D01*
X221899999Y-51678571D01*
X221757142Y-51607143D01*
X221685713Y-51464286D01*
X221685713Y-51392857D01*
X221757142Y-51250000D01*
X221899999Y-51178571D01*
X222114285Y-51178571D01*
X222257142Y-51250000D01*
X187328571Y-54507143D02*
X187542857Y-54578571D01*
X187900000Y-54578571D01*
X188042857Y-54507143D01*
X188114286Y-54435714D01*
X188185714Y-54292857D01*
X188185714Y-54150000D01*
X188114286Y-54007143D01*
X188042857Y-53935714D01*
X187900000Y-53864286D01*
X187614286Y-53792857D01*
X187471428Y-53721429D01*
X187400000Y-53650000D01*
X187328571Y-53507143D01*
X187328571Y-53364286D01*
X187400000Y-53221429D01*
X187471428Y-53150000D01*
X187614286Y-53078571D01*
X187971428Y-53078571D01*
X188185714Y-53150000D01*
X189399999Y-54507143D02*
X189257142Y-54578571D01*
X188971428Y-54578571D01*
X188828571Y-54507143D01*
X188757142Y-54364286D01*
X188757142Y-53792857D01*
X188828571Y-53650000D01*
X188971428Y-53578571D01*
X189257142Y-53578571D01*
X189399999Y-53650000D01*
X189471428Y-53792857D01*
X189471428Y-53935714D01*
X188757142Y-54078571D01*
X190114285Y-53578571D02*
X190114285Y-55078571D01*
X190114285Y-53650000D02*
X190257142Y-53578571D01*
X190542856Y-53578571D01*
X190685713Y-53650000D01*
X190757142Y-53721429D01*
X190828571Y-53864286D01*
X190828571Y-54292857D01*
X190757142Y-54435714D01*
X190685713Y-54507143D01*
X190542856Y-54578571D01*
X190257142Y-54578571D01*
X190114285Y-54507143D01*
X192114285Y-54578571D02*
X192114285Y-53792857D01*
X192042856Y-53650000D01*
X191899999Y-53578571D01*
X191614285Y-53578571D01*
X191471428Y-53650000D01*
X192114285Y-54507143D02*
X191971428Y-54578571D01*
X191614285Y-54578571D01*
X191471428Y-54507143D01*
X191399999Y-54364286D01*
X191399999Y-54221429D01*
X191471428Y-54078571D01*
X191614285Y-54007143D01*
X191971428Y-54007143D01*
X192114285Y-53935714D01*
X192828571Y-54578571D02*
X192828571Y-53578571D01*
X192828571Y-53864286D02*
X192899999Y-53721429D01*
X192971428Y-53650000D01*
X193114285Y-53578571D01*
X193257142Y-53578571D01*
X194399999Y-54578571D02*
X194399999Y-53792857D01*
X194328570Y-53650000D01*
X194185713Y-53578571D01*
X193899999Y-53578571D01*
X193757142Y-53650000D01*
X194399999Y-54507143D02*
X194257142Y-54578571D01*
X193899999Y-54578571D01*
X193757142Y-54507143D01*
X193685713Y-54364286D01*
X193685713Y-54221429D01*
X193757142Y-54078571D01*
X193899999Y-54007143D01*
X194257142Y-54007143D01*
X194399999Y-53935714D01*
X195757142Y-54507143D02*
X195614285Y-54578571D01*
X195328571Y-54578571D01*
X195185713Y-54507143D01*
X195114285Y-54435714D01*
X195042856Y-54292857D01*
X195042856Y-53864286D01*
X195114285Y-53721429D01*
X195185713Y-53650000D01*
X195328571Y-53578571D01*
X195614285Y-53578571D01*
X195757142Y-53650000D01*
X196399999Y-54578571D02*
X196399999Y-53578571D01*
X196399999Y-53078571D02*
X196328570Y-53150000D01*
X196399999Y-53221429D01*
X196471427Y-53150000D01*
X196399999Y-53078571D01*
X196399999Y-53221429D01*
X197328571Y-54578571D02*
X197185713Y-54507143D01*
X197114285Y-54435714D01*
X197042856Y-54292857D01*
X197042856Y-53864286D01*
X197114285Y-53721429D01*
X197185713Y-53650000D01*
X197328571Y-53578571D01*
X197542856Y-53578571D01*
X197685713Y-53650000D01*
X197757142Y-53721429D01*
X197828571Y-53864286D01*
X197828571Y-54292857D01*
X197757142Y-54435714D01*
X197685713Y-54507143D01*
X197542856Y-54578571D01*
X197328571Y-54578571D01*
X197614285Y-53007143D02*
X197399999Y-53221429D01*
X198471428Y-53578571D02*
X198471428Y-54578571D01*
X198471428Y-53721429D02*
X198542856Y-53650000D01*
X198685714Y-53578571D01*
X198899999Y-53578571D01*
X199042856Y-53650000D01*
X199114285Y-53792857D01*
X199114285Y-54578571D01*
X201542856Y-54507143D02*
X201399999Y-54578571D01*
X201114285Y-54578571D01*
X200971428Y-54507143D01*
X200899999Y-54364286D01*
X200899999Y-53792857D01*
X200971428Y-53650000D01*
X201114285Y-53578571D01*
X201399999Y-53578571D01*
X201542856Y-53650000D01*
X201614285Y-53792857D01*
X201614285Y-53935714D01*
X200899999Y-54078571D01*
X202257142Y-53578571D02*
X202257142Y-54578571D01*
X202257142Y-53721429D02*
X202328570Y-53650000D01*
X202471428Y-53578571D01*
X202685713Y-53578571D01*
X202828570Y-53650000D01*
X202899999Y-53792857D01*
X202899999Y-54578571D01*
X203399999Y-53578571D02*
X203971428Y-53578571D01*
X203614285Y-53078571D02*
X203614285Y-54364286D01*
X203685713Y-54507143D01*
X203828571Y-54578571D01*
X203971428Y-54578571D01*
X204471428Y-54578571D02*
X204471428Y-53578571D01*
X204471428Y-53864286D02*
X204542856Y-53721429D01*
X204614285Y-53650000D01*
X204757142Y-53578571D01*
X204899999Y-53578571D01*
X205971427Y-54507143D02*
X205828570Y-54578571D01*
X205542856Y-54578571D01*
X205399999Y-54507143D01*
X205328570Y-54364286D01*
X205328570Y-53792857D01*
X205399999Y-53650000D01*
X205542856Y-53578571D01*
X205828570Y-53578571D01*
X205971427Y-53650000D01*
X206042856Y-53792857D01*
X206042856Y-53935714D01*
X205328570Y-54078571D01*
X207828570Y-53578571D02*
X207828570Y-55078571D01*
X207828570Y-53650000D02*
X207971427Y-53578571D01*
X208257141Y-53578571D01*
X208399998Y-53650000D01*
X208471427Y-53721429D01*
X208542856Y-53864286D01*
X208542856Y-54292857D01*
X208471427Y-54435714D01*
X208399998Y-54507143D01*
X208257141Y-54578571D01*
X207971427Y-54578571D01*
X207828570Y-54507143D01*
X209185713Y-54578571D02*
X209185713Y-53578571D01*
X209185713Y-53078571D02*
X209114284Y-53150000D01*
X209185713Y-53221429D01*
X209257141Y-53150000D01*
X209185713Y-53078571D01*
X209185713Y-53221429D01*
X209828570Y-54507143D02*
X209971427Y-54578571D01*
X210257142Y-54578571D01*
X210399999Y-54507143D01*
X210471427Y-54364286D01*
X210471427Y-54292857D01*
X210399999Y-54150000D01*
X210257142Y-54078571D01*
X210042856Y-54078571D01*
X209899999Y-54007143D01*
X209828570Y-53864286D01*
X209828570Y-53792857D01*
X209899999Y-53650000D01*
X210042856Y-53578571D01*
X210257142Y-53578571D01*
X210399999Y-53650000D01*
X210899999Y-53578571D02*
X211471428Y-53578571D01*
X211114285Y-53078571D02*
X211114285Y-54364286D01*
X211185713Y-54507143D01*
X211328571Y-54578571D01*
X211471428Y-54578571D01*
X212614285Y-54578571D02*
X212614285Y-53792857D01*
X212542856Y-53650000D01*
X212399999Y-53578571D01*
X212114285Y-53578571D01*
X211971428Y-53650000D01*
X212614285Y-54507143D02*
X212471428Y-54578571D01*
X212114285Y-54578571D01*
X211971428Y-54507143D01*
X211899999Y-54364286D01*
X211899999Y-54221429D01*
X211971428Y-54078571D01*
X212114285Y-54007143D01*
X212471428Y-54007143D01*
X212614285Y-53935714D01*
X214328571Y-53578571D02*
X214685714Y-54578571D01*
X215042856Y-53578571D02*
X214685714Y-54578571D01*
X214542856Y-54935714D01*
X214471428Y-55007143D01*
X214328571Y-55078571D01*
X216757142Y-53578571D02*
X216757142Y-55078571D01*
X216757142Y-53650000D02*
X216899999Y-53578571D01*
X217185713Y-53578571D01*
X217328570Y-53650000D01*
X217399999Y-53721429D01*
X217471428Y-53864286D01*
X217471428Y-54292857D01*
X217399999Y-54435714D01*
X217328570Y-54507143D01*
X217185713Y-54578571D01*
X216899999Y-54578571D01*
X216757142Y-54507143D01*
X218757142Y-54578571D02*
X218757142Y-53792857D01*
X218685713Y-53650000D01*
X218542856Y-53578571D01*
X218257142Y-53578571D01*
X218114285Y-53650000D01*
X218757142Y-54507143D02*
X218614285Y-54578571D01*
X218257142Y-54578571D01*
X218114285Y-54507143D01*
X218042856Y-54364286D01*
X218042856Y-54221429D01*
X218114285Y-54078571D01*
X218257142Y-54007143D01*
X218614285Y-54007143D01*
X218757142Y-53935714D01*
X220114285Y-54578571D02*
X220114285Y-53078571D01*
X220114285Y-54507143D02*
X219971428Y-54578571D01*
X219685714Y-54578571D01*
X219542856Y-54507143D01*
X219471428Y-54435714D01*
X219399999Y-54292857D01*
X219399999Y-53864286D01*
X219471428Y-53721429D01*
X219542856Y-53650000D01*
X219685714Y-53578571D01*
X219971428Y-53578571D01*
X220114285Y-53650000D01*
X222614285Y-53078571D02*
X222328571Y-53078571D01*
X222185714Y-53150000D01*
X222114285Y-53221429D01*
X221971428Y-53435714D01*
X221899999Y-53721429D01*
X221899999Y-54292857D01*
X221971428Y-54435714D01*
X222042856Y-54507143D01*
X222185714Y-54578571D01*
X222471428Y-54578571D01*
X222614285Y-54507143D01*
X222685714Y-54435714D01*
X222757142Y-54292857D01*
X222757142Y-53935714D01*
X222685714Y-53792857D01*
X222614285Y-53721429D01*
X222471428Y-53650000D01*
X222185714Y-53650000D01*
X222042856Y-53721429D01*
X221971428Y-53792857D01*
X221899999Y-53935714D01*
X224542856Y-54578571D02*
X224542856Y-53578571D01*
X224542856Y-53721429D02*
X224614284Y-53650000D01*
X224757142Y-53578571D01*
X224971427Y-53578571D01*
X225114284Y-53650000D01*
X225185713Y-53792857D01*
X225185713Y-54578571D01*
X225185713Y-53792857D02*
X225257142Y-53650000D01*
X225399999Y-53578571D01*
X225614284Y-53578571D01*
X225757142Y-53650000D01*
X225828570Y-53792857D01*
X225828570Y-54578571D01*
X226542856Y-54578571D02*
X226542856Y-53578571D01*
X226542856Y-53078571D02*
X226471427Y-53150000D01*
X226542856Y-53221429D01*
X226614284Y-53150000D01*
X226542856Y-53078571D01*
X226542856Y-53221429D01*
X227471428Y-54578571D02*
X227328570Y-54507143D01*
X227257142Y-54364286D01*
X227257142Y-53078571D01*
X227971427Y-54507143D02*
X228114284Y-54578571D01*
X228399999Y-54578571D01*
X228542856Y-54507143D01*
X228614284Y-54364286D01*
X228614284Y-54292857D01*
X228542856Y-54150000D01*
X228399999Y-54078571D01*
X228185713Y-54078571D01*
X228042856Y-54007143D01*
X227971427Y-53864286D01*
X227971427Y-53792857D01*
X228042856Y-53650000D01*
X228185713Y-53578571D01*
X228399999Y-53578571D01*
X228542856Y-53650000D01*
X187400000Y-56978571D02*
X187400000Y-55478571D01*
X187757143Y-55478571D01*
X187971428Y-55550000D01*
X188114286Y-55692857D01*
X188185714Y-55835714D01*
X188257143Y-56121429D01*
X188257143Y-56335714D01*
X188185714Y-56621429D01*
X188114286Y-56764286D01*
X187971428Y-56907143D01*
X187757143Y-56978571D01*
X187400000Y-56978571D01*
X188900000Y-56978571D02*
X188900000Y-55978571D01*
X188900000Y-55478571D02*
X188828571Y-55550000D01*
X188900000Y-55621429D01*
X188971428Y-55550000D01*
X188900000Y-55478571D01*
X188900000Y-55621429D01*
X189542857Y-56907143D02*
X189685714Y-56978571D01*
X189971429Y-56978571D01*
X190114286Y-56907143D01*
X190185714Y-56764286D01*
X190185714Y-56692857D01*
X190114286Y-56550000D01*
X189971429Y-56478571D01*
X189757143Y-56478571D01*
X189614286Y-56407143D01*
X189542857Y-56264286D01*
X189542857Y-56192857D01*
X189614286Y-56050000D01*
X189757143Y-55978571D01*
X189971429Y-55978571D01*
X190114286Y-56050000D01*
X190614286Y-55978571D02*
X191185715Y-55978571D01*
X190828572Y-55478571D02*
X190828572Y-56764286D01*
X190900000Y-56907143D01*
X191042858Y-56978571D01*
X191185715Y-56978571D01*
X192328572Y-56978571D02*
X192328572Y-56192857D01*
X192257143Y-56050000D01*
X192114286Y-55978571D01*
X191828572Y-55978571D01*
X191685715Y-56050000D01*
X192328572Y-56907143D02*
X192185715Y-56978571D01*
X191828572Y-56978571D01*
X191685715Y-56907143D01*
X191614286Y-56764286D01*
X191614286Y-56621429D01*
X191685715Y-56478571D01*
X191828572Y-56407143D01*
X192185715Y-56407143D01*
X192328572Y-56335714D01*
X193042858Y-55978571D02*
X193042858Y-56978571D01*
X193042858Y-56121429D02*
X193114286Y-56050000D01*
X193257144Y-55978571D01*
X193471429Y-55978571D01*
X193614286Y-56050000D01*
X193685715Y-56192857D01*
X193685715Y-56978571D01*
X195042858Y-56907143D02*
X194900001Y-56978571D01*
X194614287Y-56978571D01*
X194471429Y-56907143D01*
X194400001Y-56835714D01*
X194328572Y-56692857D01*
X194328572Y-56264286D01*
X194400001Y-56121429D01*
X194471429Y-56050000D01*
X194614287Y-55978571D01*
X194900001Y-55978571D01*
X195042858Y-56050000D01*
X195685715Y-56978571D02*
X195685715Y-55978571D01*
X195685715Y-55478571D02*
X195614286Y-55550000D01*
X195685715Y-55621429D01*
X195757143Y-55550000D01*
X195685715Y-55478571D01*
X195685715Y-55621429D01*
X197042858Y-56978571D02*
X197042858Y-56192857D01*
X196971429Y-56050000D01*
X196828572Y-55978571D01*
X196542858Y-55978571D01*
X196400001Y-56050000D01*
X197042858Y-56907143D02*
X196900001Y-56978571D01*
X196542858Y-56978571D01*
X196400001Y-56907143D01*
X196328572Y-56764286D01*
X196328572Y-56621429D01*
X196400001Y-56478571D01*
X196542858Y-56407143D01*
X196900001Y-56407143D01*
X197042858Y-56335714D01*
X199542858Y-56978571D02*
X199542858Y-55478571D01*
X199542858Y-56907143D02*
X199400001Y-56978571D01*
X199114287Y-56978571D01*
X198971429Y-56907143D01*
X198900001Y-56835714D01*
X198828572Y-56692857D01*
X198828572Y-56264286D01*
X198900001Y-56121429D01*
X198971429Y-56050000D01*
X199114287Y-55978571D01*
X199400001Y-55978571D01*
X199542858Y-56050000D01*
X200828572Y-56907143D02*
X200685715Y-56978571D01*
X200400001Y-56978571D01*
X200257144Y-56907143D01*
X200185715Y-56764286D01*
X200185715Y-56192857D01*
X200257144Y-56050000D01*
X200400001Y-55978571D01*
X200685715Y-55978571D01*
X200828572Y-56050000D01*
X200900001Y-56192857D01*
X200900001Y-56335714D01*
X200185715Y-56478571D01*
X201757144Y-56978571D02*
X201614286Y-56907143D01*
X201542858Y-56764286D01*
X201542858Y-55478571D01*
X204114286Y-56907143D02*
X203971429Y-56978571D01*
X203685715Y-56978571D01*
X203542857Y-56907143D01*
X203471429Y-56835714D01*
X203400000Y-56692857D01*
X203400000Y-56264286D01*
X203471429Y-56121429D01*
X203542857Y-56050000D01*
X203685715Y-55978571D01*
X203971429Y-55978571D01*
X204114286Y-56050000D01*
X204971429Y-56978571D02*
X204828571Y-56907143D01*
X204757143Y-56835714D01*
X204685714Y-56692857D01*
X204685714Y-56264286D01*
X204757143Y-56121429D01*
X204828571Y-56050000D01*
X204971429Y-55978571D01*
X205185714Y-55978571D01*
X205328571Y-56050000D01*
X205400000Y-56121429D01*
X205471429Y-56264286D01*
X205471429Y-56692857D01*
X205400000Y-56835714D01*
X205328571Y-56907143D01*
X205185714Y-56978571D01*
X204971429Y-56978571D01*
X206114286Y-56978571D02*
X206114286Y-55478571D01*
X206114286Y-56050000D02*
X206257143Y-55978571D01*
X206542857Y-55978571D01*
X206685714Y-56050000D01*
X206757143Y-56121429D01*
X206828572Y-56264286D01*
X206828572Y-56692857D01*
X206757143Y-56835714D01*
X206685714Y-56907143D01*
X206542857Y-56978571D01*
X206257143Y-56978571D01*
X206114286Y-56907143D01*
X207471429Y-56978571D02*
X207471429Y-55978571D01*
X207471429Y-56264286D02*
X207542857Y-56121429D01*
X207614286Y-56050000D01*
X207757143Y-55978571D01*
X207900000Y-55978571D01*
X208971428Y-56907143D02*
X208828571Y-56978571D01*
X208542857Y-56978571D01*
X208400000Y-56907143D01*
X208328571Y-56764286D01*
X208328571Y-56192857D01*
X208400000Y-56050000D01*
X208542857Y-55978571D01*
X208828571Y-55978571D01*
X208971428Y-56050000D01*
X209042857Y-56192857D01*
X209042857Y-56335714D01*
X208328571Y-56478571D01*
X211471428Y-56978571D02*
X211471428Y-56192857D01*
X211399999Y-56050000D01*
X211257142Y-55978571D01*
X210971428Y-55978571D01*
X210828571Y-56050000D01*
X211471428Y-56907143D02*
X211328571Y-56978571D01*
X210971428Y-56978571D01*
X210828571Y-56907143D01*
X210757142Y-56764286D01*
X210757142Y-56621429D01*
X210828571Y-56478571D01*
X210971428Y-56407143D01*
X211328571Y-56407143D01*
X211471428Y-56335714D01*
X212400000Y-56978571D02*
X212257142Y-56907143D01*
X212185714Y-56764286D01*
X212185714Y-55478571D01*
X214114285Y-56978571D02*
X214114285Y-55478571D01*
X214114285Y-56050000D02*
X214257142Y-55978571D01*
X214542856Y-55978571D01*
X214685713Y-56050000D01*
X214757142Y-56121429D01*
X214828571Y-56264286D01*
X214828571Y-56692857D01*
X214757142Y-56835714D01*
X214685713Y-56907143D01*
X214542856Y-56978571D01*
X214257142Y-56978571D01*
X214114285Y-56907143D01*
X215685714Y-56978571D02*
X215542856Y-56907143D01*
X215471428Y-56835714D01*
X215399999Y-56692857D01*
X215399999Y-56264286D01*
X215471428Y-56121429D01*
X215542856Y-56050000D01*
X215685714Y-55978571D01*
X215899999Y-55978571D01*
X216042856Y-56050000D01*
X216114285Y-56121429D01*
X216185714Y-56264286D01*
X216185714Y-56692857D01*
X216114285Y-56835714D01*
X216042856Y-56907143D01*
X215899999Y-56978571D01*
X215685714Y-56978571D01*
X216828571Y-56978571D02*
X216828571Y-55978571D01*
X216828571Y-56264286D02*
X216899999Y-56121429D01*
X216971428Y-56050000D01*
X217114285Y-55978571D01*
X217257142Y-55978571D01*
X218399999Y-56978571D02*
X218399999Y-55478571D01*
X218399999Y-56907143D02*
X218257142Y-56978571D01*
X217971428Y-56978571D01*
X217828570Y-56907143D01*
X217757142Y-56835714D01*
X217685713Y-56692857D01*
X217685713Y-56264286D01*
X217757142Y-56121429D01*
X217828570Y-56050000D01*
X217971428Y-55978571D01*
X218257142Y-55978571D01*
X218399999Y-56050000D01*
X219685713Y-56907143D02*
X219542856Y-56978571D01*
X219257142Y-56978571D01*
X219114285Y-56907143D01*
X219042856Y-56764286D01*
X219042856Y-56192857D01*
X219114285Y-56050000D01*
X219257142Y-55978571D01*
X219542856Y-55978571D01*
X219685713Y-56050000D01*
X219757142Y-56192857D01*
X219757142Y-56335714D01*
X219042856Y-56478571D01*
X222328570Y-56978571D02*
X221471427Y-56978571D01*
X221899999Y-56978571D02*
X221899999Y-55478571D01*
X221757142Y-55692857D01*
X221614284Y-55835714D01*
X221471427Y-55907143D01*
X222899998Y-55621429D02*
X222971427Y-55550000D01*
X223114284Y-55478571D01*
X223471427Y-55478571D01*
X223614284Y-55550000D01*
X223685713Y-55621429D01*
X223757141Y-55764286D01*
X223757141Y-55907143D01*
X223685713Y-56121429D01*
X222828570Y-56978571D01*
X223757141Y-56978571D01*
X225542855Y-56978571D02*
X225542855Y-55978571D01*
X225542855Y-56121429D02*
X225614283Y-56050000D01*
X225757141Y-55978571D01*
X225971426Y-55978571D01*
X226114283Y-56050000D01*
X226185712Y-56192857D01*
X226185712Y-56978571D01*
X226185712Y-56192857D02*
X226257141Y-56050000D01*
X226399998Y-55978571D01*
X226614283Y-55978571D01*
X226757141Y-56050000D01*
X226828569Y-56192857D01*
X226828569Y-56978571D01*
X227542855Y-56978571D02*
X227542855Y-55978571D01*
X227542855Y-55478571D02*
X227471426Y-55550000D01*
X227542855Y-55621429D01*
X227614283Y-55550000D01*
X227542855Y-55478571D01*
X227542855Y-55621429D01*
X228471427Y-56978571D02*
X228328569Y-56907143D01*
X228257141Y-56764286D01*
X228257141Y-55478571D01*
X228971426Y-56907143D02*
X229114283Y-56978571D01*
X229399998Y-56978571D01*
X229542855Y-56907143D01*
X229614283Y-56764286D01*
X229614283Y-56692857D01*
X229542855Y-56550000D01*
X229399998Y-56478571D01*
X229185712Y-56478571D01*
X229042855Y-56407143D01*
X228971426Y-56264286D01*
X228971426Y-56192857D01*
X229042855Y-56050000D01*
X229185712Y-55978571D01*
X229399998Y-55978571D01*
X229542855Y-56050000D01*
X185667858Y-32678571D02*
X185623215Y-33035714D01*
X185283929Y-32892857D02*
X185623215Y-33035714D01*
X185998214Y-32892857D01*
X185373214Y-33321429D02*
X185623215Y-33035714D01*
X185801785Y-33321429D01*
X187489285Y-34107143D02*
X187694643Y-34178571D01*
X188051786Y-34178571D01*
X188203571Y-34107143D01*
X188283929Y-34035714D01*
X188373214Y-33892857D01*
X188391071Y-33750000D01*
X188337500Y-33607143D01*
X188275000Y-33535714D01*
X188141071Y-33464286D01*
X187864286Y-33392857D01*
X187730356Y-33321429D01*
X187667857Y-33250000D01*
X187614285Y-33107143D01*
X187632142Y-32964286D01*
X187721428Y-32821429D01*
X187801785Y-32750000D01*
X187953572Y-32678571D01*
X188310714Y-32678571D01*
X188516071Y-32750000D01*
X189560713Y-34107143D02*
X189408928Y-34178571D01*
X189123214Y-34178571D01*
X188989285Y-34107143D01*
X188935713Y-33964286D01*
X189007142Y-33392857D01*
X189096428Y-33250000D01*
X189248214Y-33178571D01*
X189533928Y-33178571D01*
X189667856Y-33250000D01*
X189721428Y-33392857D01*
X189703571Y-33535714D01*
X188971428Y-33678571D01*
X192176785Y-33178571D02*
X192051785Y-34178571D01*
X191533928Y-33178571D02*
X191435713Y-33964286D01*
X191489284Y-34107143D01*
X191623214Y-34178571D01*
X191837499Y-34178571D01*
X191989284Y-34107143D01*
X192069642Y-34035714D01*
X192676785Y-33178571D02*
X193248214Y-33178571D01*
X192953571Y-32678571D02*
X192792856Y-33964286D01*
X192846427Y-34107143D01*
X192980357Y-34178571D01*
X193123214Y-34178571D01*
X193623214Y-34178571D02*
X193748214Y-33178571D01*
X193810714Y-32678571D02*
X193730356Y-32750000D01*
X193792856Y-32821429D01*
X193873213Y-32750000D01*
X193810714Y-32678571D01*
X193792856Y-32821429D01*
X194551786Y-34178571D02*
X194417856Y-34107143D01*
X194364285Y-33964286D01*
X194525000Y-32678571D01*
X195123214Y-34178571D02*
X195248214Y-33178571D01*
X195310714Y-32678571D02*
X195230356Y-32750000D01*
X195292856Y-32821429D01*
X195373213Y-32750000D01*
X195310714Y-32678571D01*
X195292856Y-32821429D01*
X195819643Y-33178571D02*
X196605357Y-33178571D01*
X195694643Y-34178571D01*
X196480357Y-34178571D01*
X197266072Y-34178571D02*
X197132142Y-34107143D01*
X197069643Y-34035714D01*
X197016071Y-33892857D01*
X197069642Y-33464286D01*
X197158928Y-33321429D01*
X197239285Y-33250000D01*
X197391072Y-33178571D01*
X197605357Y-33178571D01*
X197739285Y-33250000D01*
X197801785Y-33321429D01*
X197855357Y-33464286D01*
X197801786Y-33892857D01*
X197712500Y-34035714D01*
X197632142Y-34107143D01*
X197480357Y-34178571D01*
X197266072Y-34178571D01*
X200319643Y-33178571D02*
X200194643Y-34178571D01*
X199676786Y-33178571D02*
X199578571Y-33964286D01*
X199632142Y-34107143D01*
X199766072Y-34178571D01*
X199980357Y-34178571D01*
X200132142Y-34107143D01*
X200212500Y-34035714D01*
X201033929Y-33178571D02*
X200908929Y-34178571D01*
X201016071Y-33321429D02*
X201096428Y-33250000D01*
X201248215Y-33178571D01*
X201462500Y-33178571D01*
X201596428Y-33250000D01*
X201650000Y-33392857D01*
X201551786Y-34178571D01*
X202908929Y-34178571D02*
X203007143Y-33392857D01*
X202953571Y-33250000D01*
X202819643Y-33178571D01*
X202533929Y-33178571D01*
X202382143Y-33250000D01*
X202917857Y-34107143D02*
X202766072Y-34178571D01*
X202408929Y-34178571D01*
X202275000Y-34107143D01*
X202221428Y-33964286D01*
X202239285Y-33821429D01*
X202328572Y-33678571D01*
X202480357Y-33607143D01*
X202837500Y-33607143D01*
X202989286Y-33535714D01*
X205533929Y-33178571D02*
X205382143Y-34392857D01*
X205292857Y-34535714D01*
X205212500Y-34607143D01*
X205060715Y-34678571D01*
X204846429Y-34678571D01*
X204712500Y-34607143D01*
X205417857Y-34107143D02*
X205266072Y-34178571D01*
X204980358Y-34178571D01*
X204846428Y-34107143D01*
X204783929Y-34035714D01*
X204730357Y-33892857D01*
X204783928Y-33464286D01*
X204873214Y-33321429D01*
X204953571Y-33250000D01*
X205105358Y-33178571D01*
X205391072Y-33178571D01*
X205525000Y-33250000D01*
X206123215Y-34178571D02*
X206248215Y-33178571D01*
X206212500Y-33464286D02*
X206301785Y-33321429D01*
X206382143Y-33250000D01*
X206533929Y-33178571D01*
X206676786Y-33178571D01*
X207051786Y-34178571D02*
X207176786Y-33178571D01*
X207239286Y-32678571D02*
X207158928Y-32750000D01*
X207221428Y-32821429D01*
X207301785Y-32750000D01*
X207239286Y-32678571D01*
X207221428Y-32821429D01*
X207980358Y-34178571D02*
X207846428Y-34107143D01*
X207792857Y-33964286D01*
X207953572Y-32678571D01*
X208766072Y-34178571D02*
X208632142Y-34107143D01*
X208578571Y-33964286D01*
X208739286Y-32678571D01*
X209980357Y-34178571D02*
X210078571Y-33392857D01*
X210024999Y-33250000D01*
X209891071Y-33178571D01*
X209605357Y-33178571D01*
X209453571Y-33250000D01*
X209989285Y-34107143D02*
X209837500Y-34178571D01*
X209480357Y-34178571D01*
X209346428Y-34107143D01*
X209292856Y-33964286D01*
X209310713Y-33821429D01*
X209400000Y-33678571D01*
X209551785Y-33607143D01*
X209908928Y-33607143D01*
X210060714Y-33535714D01*
X212480357Y-34178571D02*
X212667857Y-32678571D01*
X212489285Y-34107143D02*
X212337500Y-34178571D01*
X212051786Y-34178571D01*
X211917856Y-34107143D01*
X211855357Y-34035714D01*
X211801785Y-33892857D01*
X211855356Y-33464286D01*
X211944642Y-33321429D01*
X212024999Y-33250000D01*
X212176786Y-33178571D01*
X212462500Y-33178571D01*
X212596428Y-33250000D01*
X213774999Y-34107143D02*
X213623214Y-34178571D01*
X213337500Y-34178571D01*
X213203571Y-34107143D01*
X213149999Y-33964286D01*
X213221428Y-33392857D01*
X213310714Y-33250000D01*
X213462500Y-33178571D01*
X213748214Y-33178571D01*
X213882142Y-33250000D01*
X213935714Y-33392857D01*
X213917857Y-33535714D01*
X213185714Y-33678571D01*
X216096428Y-32678571D02*
X216239285Y-32678571D01*
X216373213Y-32750000D01*
X216435713Y-32821429D01*
X216489285Y-32964286D01*
X216524999Y-33250000D01*
X216480356Y-33607143D01*
X216373214Y-33892857D01*
X216283928Y-34035714D01*
X216203570Y-34107143D01*
X216051785Y-34178571D01*
X215908928Y-34178571D01*
X215774999Y-34107143D01*
X215712499Y-34035714D01*
X215658928Y-33892857D01*
X215623213Y-33607143D01*
X215667856Y-33250000D01*
X215774999Y-32964286D01*
X215864284Y-32821429D01*
X215944642Y-32750000D01*
X216096428Y-32678571D01*
X217132141Y-34107143D02*
X217123213Y-34178571D01*
X217033927Y-34321429D01*
X216953570Y-34392857D01*
X218551785Y-34178571D02*
X217694642Y-34178571D01*
X218123214Y-34178571D02*
X218310714Y-32678571D01*
X218141071Y-32892857D01*
X217980356Y-33035714D01*
X217828570Y-33107143D01*
X220337499Y-34178571D02*
X220462499Y-33178571D01*
X220444641Y-33321429D02*
X220524998Y-33250000D01*
X220676785Y-33178571D01*
X220891070Y-33178571D01*
X221024998Y-33250000D01*
X221078570Y-33392857D01*
X220980356Y-34178571D01*
X221078570Y-33392857D02*
X221167856Y-33250000D01*
X221319642Y-33178571D01*
X221533927Y-33178571D01*
X221667856Y-33250000D01*
X221721427Y-33392857D01*
X221623213Y-34178571D01*
X222337499Y-34178571D02*
X222462499Y-33178571D01*
X222444641Y-33321429D02*
X222524998Y-33250000D01*
X222676785Y-33178571D01*
X222891070Y-33178571D01*
X223024998Y-33250000D01*
X223078570Y-33392857D01*
X222980356Y-34178571D01*
X223078570Y-33392857D02*
X223167856Y-33250000D01*
X223319642Y-33178571D01*
X223533927Y-33178571D01*
X223667856Y-33250000D01*
X223721427Y-33392857D01*
X223623213Y-34178571D01*
X225694642Y-34178571D02*
X225560712Y-34107143D01*
X225498213Y-34035714D01*
X225444641Y-33892857D01*
X225498212Y-33464286D01*
X225587498Y-33321429D01*
X225667855Y-33250000D01*
X225819642Y-33178571D01*
X226033927Y-33178571D01*
X226167855Y-33250000D01*
X226230355Y-33321429D01*
X226283927Y-33464286D01*
X226230356Y-33892857D01*
X226141070Y-34035714D01*
X226060712Y-34107143D01*
X225908927Y-34178571D01*
X225694642Y-34178571D01*
X228024999Y-32678571D02*
X228953570Y-32678571D01*
X228382141Y-33250000D01*
X228596427Y-33250000D01*
X228730355Y-33321429D01*
X228792856Y-33392857D01*
X228846427Y-33535714D01*
X228801784Y-33892857D01*
X228712499Y-34035714D01*
X228632141Y-34107143D01*
X228480356Y-34178571D01*
X228051784Y-34178571D01*
X227917855Y-34107143D01*
X227855356Y-34035714D01*
X229489283Y-34107143D02*
X229480355Y-34178571D01*
X229391069Y-34321429D01*
X229310712Y-34392857D01*
X230194641Y-34178571D02*
X230480356Y-34178571D01*
X230632141Y-34107143D01*
X230712498Y-34035714D01*
X230882141Y-33821429D01*
X230989284Y-33535714D01*
X231060712Y-32964286D01*
X231007141Y-32821429D01*
X230944641Y-32750000D01*
X230810713Y-32678571D01*
X230524999Y-32678571D01*
X230373212Y-32750000D01*
X230292855Y-32821429D01*
X230203569Y-32964286D01*
X230158926Y-33321429D01*
X230212498Y-33464286D01*
X230274998Y-33535714D01*
X230408927Y-33607143D01*
X230694641Y-33607143D01*
X230846427Y-33535714D01*
X230926784Y-33464286D01*
X231016069Y-33321429D01*
X232319641Y-33178571D02*
X232194641Y-34178571D01*
X232033926Y-32607143D02*
X231542855Y-33678571D01*
X232471427Y-33678571D01*
X234123212Y-34178571D02*
X234248212Y-33178571D01*
X234230354Y-33321429D02*
X234310711Y-33250000D01*
X234462498Y-33178571D01*
X234676783Y-33178571D01*
X234810711Y-33250000D01*
X234864283Y-33392857D01*
X234766069Y-34178571D01*
X234864283Y-33392857D02*
X234953569Y-33250000D01*
X235105355Y-33178571D01*
X235319640Y-33178571D01*
X235453569Y-33250000D01*
X235507140Y-33392857D01*
X235408926Y-34178571D01*
X236123212Y-34178571D02*
X236248212Y-33178571D01*
X236310712Y-32678571D02*
X236230354Y-32750000D01*
X236292854Y-32821429D01*
X236373211Y-32750000D01*
X236310712Y-32678571D01*
X236292854Y-32821429D01*
X237051784Y-34178571D02*
X236917854Y-34107143D01*
X236864283Y-33964286D01*
X237024998Y-32678571D01*
X237560711Y-34107143D02*
X237694640Y-34178571D01*
X237980355Y-34178571D01*
X238132140Y-34107143D01*
X238221425Y-33964286D01*
X238230354Y-33892857D01*
X238176783Y-33750000D01*
X238042855Y-33678571D01*
X237828569Y-33678571D01*
X237694640Y-33607143D01*
X237641068Y-33464286D01*
X237649997Y-33392857D01*
X237739283Y-33250000D01*
X237891069Y-33178571D01*
X238105355Y-33178571D01*
X238239283Y-33250000D01*
X188819643Y-35578571D02*
X188632143Y-37078571D01*
X188810714Y-35650000D02*
X188962500Y-35578571D01*
X189248214Y-35578571D01*
X189382142Y-35650000D01*
X189444642Y-35721429D01*
X189498214Y-35864286D01*
X189444643Y-36292857D01*
X189355357Y-36435714D01*
X189274999Y-36507143D01*
X189123214Y-36578571D01*
X188837500Y-36578571D01*
X188703571Y-36507143D01*
X190694643Y-36578571D02*
X190792857Y-35792857D01*
X190739285Y-35650000D01*
X190605357Y-35578571D01*
X190319643Y-35578571D01*
X190167857Y-35650000D01*
X190703571Y-36507143D02*
X190551786Y-36578571D01*
X190194643Y-36578571D01*
X190060714Y-36507143D01*
X190007142Y-36364286D01*
X190024999Y-36221429D01*
X190114286Y-36078571D01*
X190266071Y-36007143D01*
X190623214Y-36007143D01*
X190775000Y-35935714D01*
X191408929Y-36578571D02*
X191533929Y-35578571D01*
X191498214Y-35864286D02*
X191587499Y-35721429D01*
X191667857Y-35650000D01*
X191819643Y-35578571D01*
X191962500Y-35578571D01*
X192980357Y-36578571D02*
X193078571Y-35792857D01*
X193024999Y-35650000D01*
X192891071Y-35578571D01*
X192605357Y-35578571D01*
X192453571Y-35650000D01*
X192989285Y-36507143D02*
X192837500Y-36578571D01*
X192480357Y-36578571D01*
X192346428Y-36507143D01*
X192292856Y-36364286D01*
X192310713Y-36221429D01*
X192400000Y-36078571D01*
X192551785Y-36007143D01*
X192908928Y-36007143D01*
X193060714Y-35935714D01*
X194837500Y-36578571D02*
X194962500Y-35578571D01*
X194926785Y-35864286D02*
X195016070Y-35721429D01*
X195096428Y-35650000D01*
X195248214Y-35578571D01*
X195391071Y-35578571D01*
X196346427Y-36507143D02*
X196194642Y-36578571D01*
X195908928Y-36578571D01*
X195774999Y-36507143D01*
X195721427Y-36364286D01*
X195792856Y-35792857D01*
X195882142Y-35650000D01*
X196033928Y-35578571D01*
X196319642Y-35578571D01*
X196453570Y-35650000D01*
X196507142Y-35792857D01*
X196489285Y-35935714D01*
X195757142Y-36078571D01*
X197694642Y-36578571D02*
X197792856Y-35792857D01*
X197739284Y-35650000D01*
X197605356Y-35578571D01*
X197319642Y-35578571D01*
X197167856Y-35650000D01*
X197703570Y-36507143D02*
X197551785Y-36578571D01*
X197194642Y-36578571D01*
X197060713Y-36507143D01*
X197007141Y-36364286D01*
X197024998Y-36221429D01*
X197114285Y-36078571D01*
X197266070Y-36007143D01*
X197623213Y-36007143D01*
X197774999Y-35935714D01*
X198623214Y-36578571D02*
X198489284Y-36507143D01*
X198435713Y-36364286D01*
X198596428Y-35078571D01*
X199194642Y-36578571D02*
X199319642Y-35578571D01*
X199382142Y-35078571D02*
X199301784Y-35150000D01*
X199364284Y-35221429D01*
X199444641Y-35150000D01*
X199382142Y-35078571D01*
X199364284Y-35221429D01*
X199891071Y-35578571D02*
X200676785Y-35578571D01*
X199766071Y-36578571D01*
X200551785Y-36578571D01*
X201766071Y-36578571D02*
X201864285Y-35792857D01*
X201810713Y-35650000D01*
X201676785Y-35578571D01*
X201391071Y-35578571D01*
X201239285Y-35650000D01*
X201774999Y-36507143D02*
X201623214Y-36578571D01*
X201266071Y-36578571D01*
X201132142Y-36507143D01*
X201078570Y-36364286D01*
X201096427Y-36221429D01*
X201185714Y-36078571D01*
X201337499Y-36007143D01*
X201694642Y-36007143D01*
X201846428Y-35935714D01*
X202480357Y-36578571D02*
X202605357Y-35578571D01*
X202569642Y-35864286D02*
X202658927Y-35721429D01*
X202739285Y-35650000D01*
X202891071Y-35578571D01*
X203033928Y-35578571D01*
X205132141Y-36507143D02*
X204980356Y-36578571D01*
X204694642Y-36578571D01*
X204560713Y-36507143D01*
X204507141Y-36364286D01*
X204578570Y-35792857D01*
X204667856Y-35650000D01*
X204819642Y-35578571D01*
X205105356Y-35578571D01*
X205239284Y-35650000D01*
X205292856Y-35792857D01*
X205274999Y-35935714D01*
X204542856Y-36078571D01*
X206051785Y-36578571D02*
X205917855Y-36507143D01*
X205864284Y-36364286D01*
X206024999Y-35078571D01*
X207891070Y-35578571D02*
X207703570Y-37078571D01*
X207882141Y-35650000D02*
X208033927Y-35578571D01*
X208319641Y-35578571D01*
X208453569Y-35650000D01*
X208516069Y-35721429D01*
X208569641Y-35864286D01*
X208516070Y-36292857D01*
X208426784Y-36435714D01*
X208346426Y-36507143D01*
X208194641Y-36578571D01*
X207908927Y-36578571D01*
X207774998Y-36507143D01*
X209337499Y-36578571D02*
X209203569Y-36507143D01*
X209141070Y-36435714D01*
X209087498Y-36292857D01*
X209141069Y-35864286D01*
X209230355Y-35721429D01*
X209310712Y-35650000D01*
X209462499Y-35578571D01*
X209676784Y-35578571D01*
X209810712Y-35650000D01*
X209873212Y-35721429D01*
X209926784Y-35864286D01*
X209873213Y-36292857D01*
X209783927Y-36435714D01*
X209703569Y-36507143D01*
X209551784Y-36578571D01*
X209337499Y-36578571D01*
X210417855Y-36507143D02*
X210551784Y-36578571D01*
X210837499Y-36578571D01*
X210989284Y-36507143D01*
X211078569Y-36364286D01*
X211087498Y-36292857D01*
X211033927Y-36150000D01*
X210899999Y-36078571D01*
X210685713Y-36078571D01*
X210551784Y-36007143D01*
X210498212Y-35864286D01*
X210507141Y-35792857D01*
X210596427Y-35650000D01*
X210748213Y-35578571D01*
X210962499Y-35578571D01*
X211096427Y-35650000D01*
X211694642Y-36578571D02*
X211819642Y-35578571D01*
X211882142Y-35078571D02*
X211801784Y-35150000D01*
X211864284Y-35221429D01*
X211944641Y-35150000D01*
X211882142Y-35078571D01*
X211864284Y-35221429D01*
X213060713Y-36507143D02*
X212908928Y-36578571D01*
X212623214Y-36578571D01*
X212489284Y-36507143D01*
X212426785Y-36435714D01*
X212373213Y-36292857D01*
X212426784Y-35864286D01*
X212516070Y-35721429D01*
X212596427Y-35650000D01*
X212748214Y-35578571D01*
X213033928Y-35578571D01*
X213167856Y-35650000D01*
X213694642Y-36578571D02*
X213819642Y-35578571D01*
X213882142Y-35078571D02*
X213801784Y-35150000D01*
X213864284Y-35221429D01*
X213944641Y-35150000D01*
X213882142Y-35078571D01*
X213864284Y-35221429D01*
X214623214Y-36578571D02*
X214489284Y-36507143D01*
X214426785Y-36435714D01*
X214373213Y-36292857D01*
X214426784Y-35864286D01*
X214516070Y-35721429D01*
X214596427Y-35650000D01*
X214748214Y-35578571D01*
X214962499Y-35578571D01*
X215096427Y-35650000D01*
X215158927Y-35721429D01*
X215212499Y-35864286D01*
X215158928Y-36292857D01*
X215069642Y-36435714D01*
X214989284Y-36507143D01*
X214837499Y-36578571D01*
X214623214Y-36578571D01*
X215891071Y-35578571D02*
X215766071Y-36578571D01*
X215873213Y-35721429D02*
X215953570Y-35650000D01*
X216105357Y-35578571D01*
X216319642Y-35578571D01*
X216453570Y-35650000D01*
X216507142Y-35792857D01*
X216408928Y-36578571D01*
X217766071Y-36578571D02*
X217864285Y-35792857D01*
X217810713Y-35650000D01*
X217676785Y-35578571D01*
X217391071Y-35578571D01*
X217239285Y-35650000D01*
X217774999Y-36507143D02*
X217623214Y-36578571D01*
X217266071Y-36578571D01*
X217132142Y-36507143D01*
X217078570Y-36364286D01*
X217096427Y-36221429D01*
X217185714Y-36078571D01*
X217337499Y-36007143D01*
X217694642Y-36007143D01*
X217846428Y-35935714D01*
X218480357Y-36578571D02*
X218605357Y-35578571D01*
X218587499Y-35721429D02*
X218667856Y-35650000D01*
X218819643Y-35578571D01*
X219033928Y-35578571D01*
X219167856Y-35650000D01*
X219221428Y-35792857D01*
X219123214Y-36578571D01*
X219221428Y-35792857D02*
X219310714Y-35650000D01*
X219462500Y-35578571D01*
X219676785Y-35578571D01*
X219810714Y-35650000D01*
X219864285Y-35792857D01*
X219766071Y-36578571D01*
X220480357Y-36578571D02*
X220605357Y-35578571D01*
X220667857Y-35078571D02*
X220587499Y-35150000D01*
X220649999Y-35221429D01*
X220730356Y-35150000D01*
X220667857Y-35078571D01*
X220649999Y-35221429D01*
X221774999Y-36507143D02*
X221623214Y-36578571D01*
X221337500Y-36578571D01*
X221203571Y-36507143D01*
X221149999Y-36364286D01*
X221221428Y-35792857D01*
X221310714Y-35650000D01*
X221462500Y-35578571D01*
X221748214Y-35578571D01*
X221882142Y-35650000D01*
X221935714Y-35792857D01*
X221917857Y-35935714D01*
X221185714Y-36078571D01*
X222605357Y-35578571D02*
X222480357Y-36578571D01*
X222587499Y-35721429D02*
X222667856Y-35650000D01*
X222819643Y-35578571D01*
X223033928Y-35578571D01*
X223167856Y-35650000D01*
X223221428Y-35792857D01*
X223123214Y-36578571D01*
X223748214Y-35578571D02*
X224319643Y-35578571D01*
X224025000Y-35078571D02*
X223864285Y-36364286D01*
X223917856Y-36507143D01*
X224051786Y-36578571D01*
X224194643Y-36578571D01*
X224908929Y-36578571D02*
X224774999Y-36507143D01*
X224712500Y-36435714D01*
X224658928Y-36292857D01*
X224712499Y-35864286D01*
X224801785Y-35721429D01*
X224882142Y-35650000D01*
X225033929Y-35578571D01*
X225248214Y-35578571D01*
X225382142Y-35650000D01*
X225444642Y-35721429D01*
X225498214Y-35864286D01*
X225444643Y-36292857D01*
X225355357Y-36435714D01*
X225274999Y-36507143D01*
X225123214Y-36578571D01*
X224908929Y-36578571D01*
X227837500Y-36578571D02*
X228025000Y-35078571D01*
X227846428Y-36507143D02*
X227694643Y-36578571D01*
X227408929Y-36578571D01*
X227274999Y-36507143D01*
X227212500Y-36435714D01*
X227158928Y-36292857D01*
X227212499Y-35864286D01*
X227301785Y-35721429D01*
X227382142Y-35650000D01*
X227533929Y-35578571D01*
X227819643Y-35578571D01*
X227953571Y-35650000D01*
X229132142Y-36507143D02*
X228980357Y-36578571D01*
X228694643Y-36578571D01*
X228560714Y-36507143D01*
X228507142Y-36364286D01*
X228578571Y-35792857D01*
X228667857Y-35650000D01*
X228819643Y-35578571D01*
X229105357Y-35578571D01*
X229239285Y-35650000D01*
X229292857Y-35792857D01*
X229275000Y-35935714D01*
X228542857Y-36078571D01*
X231194643Y-36578571D02*
X231060713Y-36507143D01*
X231007142Y-36364286D01*
X231167857Y-35078571D01*
X231980357Y-36578571D02*
X231846427Y-36507143D01*
X231783928Y-36435714D01*
X231730356Y-36292857D01*
X231783927Y-35864286D01*
X231873213Y-35721429D01*
X231953570Y-35650000D01*
X232105357Y-35578571D01*
X232319642Y-35578571D01*
X232453570Y-35650000D01*
X232516070Y-35721429D01*
X232569642Y-35864286D01*
X232516071Y-36292857D01*
X232426785Y-36435714D01*
X232346427Y-36507143D01*
X232194642Y-36578571D01*
X231980357Y-36578571D01*
X233060713Y-36507143D02*
X233194642Y-36578571D01*
X233480357Y-36578571D01*
X233632142Y-36507143D01*
X233721427Y-36364286D01*
X233730356Y-36292857D01*
X233676785Y-36150000D01*
X233542857Y-36078571D01*
X233328571Y-36078571D01*
X233194642Y-36007143D01*
X233141070Y-35864286D01*
X233149999Y-35792857D01*
X233239285Y-35650000D01*
X233391071Y-35578571D01*
X233605357Y-35578571D01*
X233739285Y-35650000D01*
X236132142Y-36507143D02*
X235980357Y-36578571D01*
X235694643Y-36578571D01*
X235560713Y-36507143D01*
X235498214Y-36435714D01*
X235444642Y-36292857D01*
X235498213Y-35864286D01*
X235587499Y-35721429D01*
X235667856Y-35650000D01*
X235819643Y-35578571D01*
X236105357Y-35578571D01*
X236239285Y-35650000D01*
X236980357Y-36578571D02*
X236846427Y-36507143D01*
X236783928Y-36435714D01*
X236730356Y-36292857D01*
X236783927Y-35864286D01*
X236873213Y-35721429D01*
X236953570Y-35650000D01*
X237105357Y-35578571D01*
X237319642Y-35578571D01*
X237453570Y-35650000D01*
X237516070Y-35721429D01*
X237569642Y-35864286D01*
X237516071Y-36292857D01*
X237426785Y-36435714D01*
X237346427Y-36507143D01*
X237194642Y-36578571D01*
X236980357Y-36578571D01*
X238123214Y-36578571D02*
X238248214Y-35578571D01*
X238230356Y-35721429D02*
X238310713Y-35650000D01*
X238462500Y-35578571D01*
X238676785Y-35578571D01*
X238810713Y-35650000D01*
X238864285Y-35792857D01*
X238766071Y-36578571D01*
X238864285Y-35792857D02*
X238953571Y-35650000D01*
X239105357Y-35578571D01*
X239319642Y-35578571D01*
X239453571Y-35650000D01*
X239507142Y-35792857D01*
X239408928Y-36578571D01*
X240248214Y-35578571D02*
X240060714Y-37078571D01*
X240239285Y-35650000D02*
X240391071Y-35578571D01*
X240676785Y-35578571D01*
X240810713Y-35650000D01*
X240873213Y-35721429D01*
X240926785Y-35864286D01*
X240873214Y-36292857D01*
X240783928Y-36435714D01*
X240703570Y-36507143D01*
X240551785Y-36578571D01*
X240266071Y-36578571D01*
X240132142Y-36507143D01*
X241694643Y-36578571D02*
X241560713Y-36507143D01*
X241498214Y-36435714D01*
X241444642Y-36292857D01*
X241498213Y-35864286D01*
X241587499Y-35721429D01*
X241667856Y-35650000D01*
X241819643Y-35578571D01*
X242033928Y-35578571D01*
X242167856Y-35650000D01*
X242230356Y-35721429D01*
X242283928Y-35864286D01*
X242230357Y-36292857D01*
X242141071Y-36435714D01*
X242060713Y-36507143D01*
X241908928Y-36578571D01*
X241694643Y-36578571D01*
X242962500Y-35578571D02*
X242837500Y-36578571D01*
X242944642Y-35721429D02*
X243024999Y-35650000D01*
X243176786Y-35578571D01*
X243391071Y-35578571D01*
X243524999Y-35650000D01*
X243578571Y-35792857D01*
X243480357Y-36578571D01*
X244774999Y-36507143D02*
X244623214Y-36578571D01*
X244337500Y-36578571D01*
X244203571Y-36507143D01*
X244149999Y-36364286D01*
X244221428Y-35792857D01*
X244310714Y-35650000D01*
X244462500Y-35578571D01*
X244748214Y-35578571D01*
X244882142Y-35650000D01*
X244935714Y-35792857D01*
X244917857Y-35935714D01*
X244185714Y-36078571D01*
X245605357Y-35578571D02*
X245480357Y-36578571D01*
X245587499Y-35721429D02*
X245667856Y-35650000D01*
X245819643Y-35578571D01*
X246033928Y-35578571D01*
X246167856Y-35650000D01*
X246221428Y-35792857D01*
X246123214Y-36578571D01*
X246748214Y-35578571D02*
X247319643Y-35578571D01*
X247025000Y-35078571D02*
X246864285Y-36364286D01*
X246917856Y-36507143D01*
X247051786Y-36578571D01*
X247194643Y-36578571D01*
X248274999Y-36507143D02*
X248123214Y-36578571D01*
X247837500Y-36578571D01*
X247703571Y-36507143D01*
X247649999Y-36364286D01*
X247721428Y-35792857D01*
X247810714Y-35650000D01*
X247962500Y-35578571D01*
X248248214Y-35578571D01*
X248382142Y-35650000D01*
X248435714Y-35792857D01*
X248417857Y-35935714D01*
X247685714Y-36078571D01*
X248917856Y-36507143D02*
X249051785Y-36578571D01*
X249337500Y-36578571D01*
X249489285Y-36507143D01*
X249578570Y-36364286D01*
X249587499Y-36292857D01*
X249533928Y-36150000D01*
X249400000Y-36078571D01*
X249185714Y-36078571D01*
X249051785Y-36007143D01*
X248998213Y-35864286D01*
X249007142Y-35792857D01*
X249096428Y-35650000D01*
X249248214Y-35578571D01*
X249462500Y-35578571D01*
X249596428Y-35650000D01*
X250212500Y-36435714D02*
X250274999Y-36507143D01*
X250194643Y-36578571D01*
X250132142Y-36507143D01*
X250212500Y-36435714D01*
X250194643Y-36578571D01*
X201714286Y-28978571D02*
X201214286Y-28264286D01*
X200857143Y-28978571D02*
X200857143Y-27478571D01*
X201428571Y-27478571D01*
X201571429Y-27550000D01*
X201642857Y-27621429D01*
X201714286Y-27764286D01*
X201714286Y-27978571D01*
X201642857Y-28121429D01*
X201571429Y-28192857D01*
X201428571Y-28264286D01*
X200857143Y-28264286D01*
X202928571Y-28907143D02*
X202785714Y-28978571D01*
X202500000Y-28978571D01*
X202357143Y-28907143D01*
X202285714Y-28764286D01*
X202285714Y-28192857D01*
X202357143Y-28050000D01*
X202500000Y-27978571D01*
X202785714Y-27978571D01*
X202928571Y-28050000D01*
X203000000Y-28192857D01*
X203000000Y-28335714D01*
X202285714Y-28478571D01*
X204285714Y-27978571D02*
X204285714Y-29192857D01*
X204214285Y-29335714D01*
X204142857Y-29407143D01*
X204000000Y-29478571D01*
X203785714Y-29478571D01*
X203642857Y-29407143D01*
X204285714Y-28907143D02*
X204142857Y-28978571D01*
X203857143Y-28978571D01*
X203714285Y-28907143D01*
X203642857Y-28835714D01*
X203571428Y-28692857D01*
X203571428Y-28264286D01*
X203642857Y-28121429D01*
X203714285Y-28050000D01*
X203857143Y-27978571D01*
X204142857Y-27978571D01*
X204285714Y-28050000D01*
X205214286Y-28978571D02*
X205071428Y-28907143D01*
X205000000Y-28764286D01*
X205000000Y-27478571D01*
X206428571Y-28978571D02*
X206428571Y-28192857D01*
X206357142Y-28050000D01*
X206214285Y-27978571D01*
X205928571Y-27978571D01*
X205785714Y-28050000D01*
X206428571Y-28907143D02*
X206285714Y-28978571D01*
X205928571Y-28978571D01*
X205785714Y-28907143D01*
X205714285Y-28764286D01*
X205714285Y-28621429D01*
X205785714Y-28478571D01*
X205928571Y-28407143D01*
X206285714Y-28407143D01*
X206428571Y-28335714D01*
X207071428Y-28907143D02*
X207214285Y-28978571D01*
X207500000Y-28978571D01*
X207642857Y-28907143D01*
X207714285Y-28764286D01*
X207714285Y-28692857D01*
X207642857Y-28550000D01*
X207500000Y-28478571D01*
X207285714Y-28478571D01*
X207142857Y-28407143D01*
X207071428Y-28264286D01*
X207071428Y-28192857D01*
X207142857Y-28050000D01*
X207285714Y-27978571D01*
X207500000Y-27978571D01*
X207642857Y-28050000D01*
X210142857Y-28978571D02*
X210142857Y-27478571D01*
X210142857Y-28907143D02*
X210000000Y-28978571D01*
X209714286Y-28978571D01*
X209571428Y-28907143D01*
X209500000Y-28835714D01*
X209428571Y-28692857D01*
X209428571Y-28264286D01*
X209500000Y-28121429D01*
X209571428Y-28050000D01*
X209714286Y-27978571D01*
X210000000Y-27978571D01*
X210142857Y-28050000D01*
X211428571Y-28907143D02*
X211285714Y-28978571D01*
X211000000Y-28978571D01*
X210857143Y-28907143D01*
X210785714Y-28764286D01*
X210785714Y-28192857D01*
X210857143Y-28050000D01*
X211000000Y-27978571D01*
X211285714Y-27978571D01*
X211428571Y-28050000D01*
X211500000Y-28192857D01*
X211500000Y-28335714D01*
X210785714Y-28478571D01*
X213285714Y-28978571D02*
X213285714Y-27478571D01*
X213642857Y-27478571D01*
X213857142Y-27550000D01*
X214000000Y-27692857D01*
X214071428Y-27835714D01*
X214142857Y-28121429D01*
X214142857Y-28335714D01*
X214071428Y-28621429D01*
X214000000Y-28764286D01*
X213857142Y-28907143D01*
X213642857Y-28978571D01*
X213285714Y-28978571D01*
X214785714Y-28978571D02*
X214785714Y-27978571D01*
X214785714Y-27478571D02*
X214714285Y-27550000D01*
X214785714Y-27621429D01*
X214857142Y-27550000D01*
X214785714Y-27478571D01*
X214785714Y-27621429D01*
X215428571Y-28907143D02*
X215571428Y-28978571D01*
X215857143Y-28978571D01*
X216000000Y-28907143D01*
X216071428Y-28764286D01*
X216071428Y-28692857D01*
X216000000Y-28550000D01*
X215857143Y-28478571D01*
X215642857Y-28478571D01*
X215500000Y-28407143D01*
X215428571Y-28264286D01*
X215428571Y-28192857D01*
X215500000Y-28050000D01*
X215642857Y-27978571D01*
X215857143Y-27978571D01*
X216000000Y-28050000D01*
X217285714Y-28907143D02*
X217142857Y-28978571D01*
X216857143Y-28978571D01*
X216714286Y-28907143D01*
X216642857Y-28764286D01*
X216642857Y-28192857D01*
X216714286Y-28050000D01*
X216857143Y-27978571D01*
X217142857Y-27978571D01*
X217285714Y-28050000D01*
X217357143Y-28192857D01*
X217357143Y-28335714D01*
X216642857Y-28478571D01*
X218000000Y-27978571D02*
X218000000Y-28978571D01*
X218000000Y-28121429D02*
X218071428Y-28050000D01*
X218214286Y-27978571D01*
X218428571Y-27978571D01*
X218571428Y-28050000D01*
X218642857Y-28192857D01*
X218642857Y-28978571D01*
X217928571Y-27621429D02*
X218000000Y-27550000D01*
X218142857Y-27478571D01*
X218428571Y-27621429D01*
X218571428Y-27550000D01*
X218642857Y-27478571D01*
X219571429Y-28978571D02*
X219428571Y-28907143D01*
X219357143Y-28835714D01*
X219285714Y-28692857D01*
X219285714Y-28264286D01*
X219357143Y-28121429D01*
X219428571Y-28050000D01*
X219571429Y-27978571D01*
X219785714Y-27978571D01*
X219928571Y-28050000D01*
X220000000Y-28121429D01*
X220071429Y-28264286D01*
X220071429Y-28692857D01*
X220000000Y-28835714D01*
X219928571Y-28907143D01*
X219785714Y-28978571D01*
X219571429Y-28978571D01*
D12*
X253000000Y-25200000D02*
X253000000Y-76100000D01*
X183800000Y-25200000D02*
X253000000Y-25200000D01*
X183900000Y-76300000D02*
X253000000Y-76300000D01*
X183900000Y-25200000D02*
X183900000Y-76100000D01*
D11*
X143228571Y-42885716D02*
X143300000Y-42742858D01*
X143371429Y-42671430D01*
X143514286Y-42600001D01*
X143585714Y-42600001D01*
X143728571Y-42671430D01*
X143800000Y-42742858D01*
X143871429Y-42885716D01*
X143871429Y-43171430D01*
X143800000Y-43314287D01*
X143728571Y-43385716D01*
X143585714Y-43457144D01*
X143514286Y-43457144D01*
X143371429Y-43385716D01*
X143300000Y-43314287D01*
X143228571Y-43171430D01*
X143228571Y-42885716D01*
X143157143Y-42742858D01*
X143085714Y-42671430D01*
X142942857Y-42600001D01*
X142657143Y-42600001D01*
X142514286Y-42671430D01*
X142442857Y-42742858D01*
X142371429Y-42885716D01*
X142371429Y-43171430D01*
X142442857Y-43314287D01*
X142514286Y-43385716D01*
X142657143Y-43457144D01*
X142942857Y-43457144D01*
X143085714Y-43385716D01*
X143157143Y-43314287D01*
X143228571Y-43171430D01*
X142442857Y-44171429D02*
X142371429Y-44171429D01*
X142228571Y-44100001D01*
X142157143Y-44028572D01*
X143871429Y-45100001D02*
X143871429Y-45242858D01*
X143800000Y-45385715D01*
X143728571Y-45457144D01*
X143585714Y-45528573D01*
X143300000Y-45600001D01*
X142942857Y-45600001D01*
X142657143Y-45528573D01*
X142514286Y-45457144D01*
X142442857Y-45385715D01*
X142371429Y-45242858D01*
X142371429Y-45100001D01*
X142442857Y-44957144D01*
X142514286Y-44885715D01*
X142657143Y-44814287D01*
X142942857Y-44742858D01*
X143300000Y-44742858D01*
X143585714Y-44814287D01*
X143728571Y-44885715D01*
X143800000Y-44957144D01*
X143871429Y-45100001D01*
X143871429Y-46528572D02*
X143871429Y-46671429D01*
X143800000Y-46814286D01*
X143728571Y-46885715D01*
X143585714Y-46957144D01*
X143300000Y-47028572D01*
X142942857Y-47028572D01*
X142657143Y-46957144D01*
X142514286Y-46885715D01*
X142442857Y-46814286D01*
X142371429Y-46671429D01*
X142371429Y-46528572D01*
X142442857Y-46385715D01*
X142514286Y-46314286D01*
X142657143Y-46242858D01*
X142942857Y-46171429D01*
X143300000Y-46171429D01*
X143585714Y-46242858D01*
X143728571Y-46314286D01*
X143800000Y-46385715D01*
X143871429Y-46528572D01*
X143871429Y-47957143D02*
X143871429Y-48100000D01*
X143800000Y-48242857D01*
X143728571Y-48314286D01*
X143585714Y-48385715D01*
X143300000Y-48457143D01*
X142942857Y-48457143D01*
X142657143Y-48385715D01*
X142514286Y-48314286D01*
X142442857Y-48242857D01*
X142371429Y-48100000D01*
X142371429Y-47957143D01*
X142442857Y-47814286D01*
X142514286Y-47742857D01*
X142657143Y-47671429D01*
X142942857Y-47600000D01*
X143300000Y-47600000D01*
X143585714Y-47671429D01*
X143728571Y-47742857D01*
X143800000Y-47814286D01*
X143871429Y-47957143D01*
X142371429Y-50242857D02*
X143371429Y-50242857D01*
X143228571Y-50242857D02*
X143300000Y-50314285D01*
X143371429Y-50457143D01*
X143371429Y-50671428D01*
X143300000Y-50814285D01*
X143157143Y-50885714D01*
X142371429Y-50885714D01*
X143157143Y-50885714D02*
X143300000Y-50957143D01*
X143371429Y-51100000D01*
X143371429Y-51314285D01*
X143300000Y-51457143D01*
X143157143Y-51528571D01*
X142371429Y-51528571D01*
X142371429Y-52242857D02*
X143371429Y-52242857D01*
X143228571Y-52242857D02*
X143300000Y-52314285D01*
X143371429Y-52457143D01*
X143371429Y-52671428D01*
X143300000Y-52814285D01*
X143157143Y-52885714D01*
X142371429Y-52885714D01*
X143157143Y-52885714D02*
X143300000Y-52957143D01*
X143371429Y-53100000D01*
X143371429Y-53314285D01*
X143300000Y-53457143D01*
X143157143Y-53528571D01*
X142371429Y-53528571D01*
X141700000Y-44100000D02*
X141700000Y-52100000D01*
X136900000Y-44100000D02*
X144400000Y-44100000D01*
X136900000Y-52100000D02*
X144400000Y-52100000D01*
X141700000Y-52100000D02*
X141113579Y-50973496D01*
X141700000Y-52100000D02*
X142286421Y-50973496D01*
X141700000Y-44100000D02*
X141113579Y-45226504D01*
X141700000Y-44100000D02*
X142286421Y-45226504D01*
X132567866Y-54792850D02*
X132567866Y-53935707D01*
X132567866Y-54364279D02*
X134067866Y-54364279D01*
X133853580Y-54221422D01*
X133710723Y-54078564D01*
X133639294Y-53935707D01*
X134067866Y-56078564D02*
X134067866Y-55792850D01*
X133996437Y-55649993D01*
X133925008Y-55578564D01*
X133710723Y-55435707D01*
X133425008Y-55364278D01*
X132853580Y-55364278D01*
X132710723Y-55435707D01*
X132639294Y-55507135D01*
X132567866Y-55649993D01*
X132567866Y-55935707D01*
X132639294Y-56078564D01*
X132710723Y-56149993D01*
X132853580Y-56221421D01*
X133210723Y-56221421D01*
X133353580Y-56149993D01*
X133425008Y-56078564D01*
X133496437Y-55935707D01*
X133496437Y-55649993D01*
X133425008Y-55507135D01*
X133353580Y-55435707D01*
X133210723Y-55364278D01*
X132639294Y-56935706D02*
X132567866Y-56935706D01*
X132425008Y-56864278D01*
X132353580Y-56792849D01*
X134067866Y-57864278D02*
X134067866Y-58007135D01*
X133996437Y-58149992D01*
X133925008Y-58221421D01*
X133782151Y-58292850D01*
X133496437Y-58364278D01*
X133139294Y-58364278D01*
X132853580Y-58292850D01*
X132710723Y-58221421D01*
X132639294Y-58149992D01*
X132567866Y-58007135D01*
X132567866Y-57864278D01*
X132639294Y-57721421D01*
X132710723Y-57649992D01*
X132853580Y-57578564D01*
X133139294Y-57507135D01*
X133496437Y-57507135D01*
X133782151Y-57578564D01*
X133925008Y-57649992D01*
X133996437Y-57721421D01*
X134067866Y-57864278D01*
X134067866Y-59292849D02*
X134067866Y-59435706D01*
X133996437Y-59578563D01*
X133925008Y-59649992D01*
X133782151Y-59721421D01*
X133496437Y-59792849D01*
X133139294Y-59792849D01*
X132853580Y-59721421D01*
X132710723Y-59649992D01*
X132639294Y-59578563D01*
X132567866Y-59435706D01*
X132567866Y-59292849D01*
X132639294Y-59149992D01*
X132710723Y-59078563D01*
X132853580Y-59007135D01*
X133139294Y-58935706D01*
X133496437Y-58935706D01*
X133782151Y-59007135D01*
X133925008Y-59078563D01*
X133996437Y-59149992D01*
X134067866Y-59292849D01*
X134067866Y-60721420D02*
X134067866Y-60864277D01*
X133996437Y-61007134D01*
X133925008Y-61078563D01*
X133782151Y-61149992D01*
X133496437Y-61221420D01*
X133139294Y-61221420D01*
X132853580Y-61149992D01*
X132710723Y-61078563D01*
X132639294Y-61007134D01*
X132567866Y-60864277D01*
X132567866Y-60721420D01*
X132639294Y-60578563D01*
X132710723Y-60507134D01*
X132853580Y-60435706D01*
X133139294Y-60364277D01*
X133496437Y-60364277D01*
X133782151Y-60435706D01*
X133925008Y-60507134D01*
X133996437Y-60578563D01*
X134067866Y-60721420D01*
X132567866Y-63007134D02*
X133567866Y-63007134D01*
X133425008Y-63007134D02*
X133496437Y-63078562D01*
X133567866Y-63221420D01*
X133567866Y-63435705D01*
X133496437Y-63578562D01*
X133353580Y-63649991D01*
X132567866Y-63649991D01*
X133353580Y-63649991D02*
X133496437Y-63721420D01*
X133567866Y-63864277D01*
X133567866Y-64078562D01*
X133496437Y-64221420D01*
X133353580Y-64292848D01*
X132567866Y-64292848D01*
X132567866Y-65007134D02*
X133567866Y-65007134D01*
X133425008Y-65007134D02*
X133496437Y-65078562D01*
X133567866Y-65221420D01*
X133567866Y-65435705D01*
X133496437Y-65578562D01*
X133353580Y-65649991D01*
X132567866Y-65649991D01*
X133353580Y-65649991D02*
X133496437Y-65721420D01*
X133567866Y-65864277D01*
X133567866Y-66078562D01*
X133496437Y-66221420D01*
X133353580Y-66292848D01*
X132567866Y-66292848D01*
X131896437Y-52149992D02*
X131896437Y-68149992D01*
X129396437Y-52149992D02*
X134596437Y-52149992D01*
X129396437Y-68149992D02*
X134596437Y-68149992D01*
X131896437Y-68149992D02*
X131310016Y-67023488D01*
X131896437Y-68149992D02*
X132482858Y-67023488D01*
X131896437Y-52149992D02*
X131310016Y-53276496D01*
X131896437Y-52149992D02*
X132482858Y-53276496D01*
X132518575Y-30940482D02*
X132518575Y-30083339D01*
X132518575Y-30511911D02*
X134018575Y-30511911D01*
X133804289Y-30369054D01*
X133661432Y-30226196D01*
X133590003Y-30083339D01*
X134018575Y-32226196D02*
X134018575Y-31940482D01*
X133947146Y-31797625D01*
X133875717Y-31726196D01*
X133661432Y-31583339D01*
X133375717Y-31511910D01*
X132804289Y-31511910D01*
X132661432Y-31583339D01*
X132590003Y-31654767D01*
X132518575Y-31797625D01*
X132518575Y-32083339D01*
X132590003Y-32226196D01*
X132661432Y-32297625D01*
X132804289Y-32369053D01*
X133161432Y-32369053D01*
X133304289Y-32297625D01*
X133375717Y-32226196D01*
X133447146Y-32083339D01*
X133447146Y-31797625D01*
X133375717Y-31654767D01*
X133304289Y-31583339D01*
X133161432Y-31511910D01*
X132590003Y-33083338D02*
X132518575Y-33083338D01*
X132375717Y-33011910D01*
X132304289Y-32940481D01*
X134018575Y-34011910D02*
X134018575Y-34154767D01*
X133947146Y-34297624D01*
X133875717Y-34369053D01*
X133732860Y-34440482D01*
X133447146Y-34511910D01*
X133090003Y-34511910D01*
X132804289Y-34440482D01*
X132661432Y-34369053D01*
X132590003Y-34297624D01*
X132518575Y-34154767D01*
X132518575Y-34011910D01*
X132590003Y-33869053D01*
X132661432Y-33797624D01*
X132804289Y-33726196D01*
X133090003Y-33654767D01*
X133447146Y-33654767D01*
X133732860Y-33726196D01*
X133875717Y-33797624D01*
X133947146Y-33869053D01*
X134018575Y-34011910D01*
X134018575Y-35440481D02*
X134018575Y-35583338D01*
X133947146Y-35726195D01*
X133875717Y-35797624D01*
X133732860Y-35869053D01*
X133447146Y-35940481D01*
X133090003Y-35940481D01*
X132804289Y-35869053D01*
X132661432Y-35797624D01*
X132590003Y-35726195D01*
X132518575Y-35583338D01*
X132518575Y-35440481D01*
X132590003Y-35297624D01*
X132661432Y-35226195D01*
X132804289Y-35154767D01*
X133090003Y-35083338D01*
X133447146Y-35083338D01*
X133732860Y-35154767D01*
X133875717Y-35226195D01*
X133947146Y-35297624D01*
X134018575Y-35440481D01*
X134018575Y-36869052D02*
X134018575Y-37011909D01*
X133947146Y-37154766D01*
X133875717Y-37226195D01*
X133732860Y-37297624D01*
X133447146Y-37369052D01*
X133090003Y-37369052D01*
X132804289Y-37297624D01*
X132661432Y-37226195D01*
X132590003Y-37154766D01*
X132518575Y-37011909D01*
X132518575Y-36869052D01*
X132590003Y-36726195D01*
X132661432Y-36654766D01*
X132804289Y-36583338D01*
X133090003Y-36511909D01*
X133447146Y-36511909D01*
X133732860Y-36583338D01*
X133875717Y-36654766D01*
X133947146Y-36726195D01*
X134018575Y-36869052D01*
X132518575Y-39154766D02*
X133518575Y-39154766D01*
X133375717Y-39154766D02*
X133447146Y-39226194D01*
X133518575Y-39369052D01*
X133518575Y-39583337D01*
X133447146Y-39726194D01*
X133304289Y-39797623D01*
X132518575Y-39797623D01*
X133304289Y-39797623D02*
X133447146Y-39869052D01*
X133518575Y-40011909D01*
X133518575Y-40226194D01*
X133447146Y-40369052D01*
X133304289Y-40440480D01*
X132518575Y-40440480D01*
X132518575Y-41154766D02*
X133518575Y-41154766D01*
X133375717Y-41154766D02*
X133447146Y-41226194D01*
X133518575Y-41369052D01*
X133518575Y-41583337D01*
X133447146Y-41726194D01*
X133304289Y-41797623D01*
X132518575Y-41797623D01*
X133304289Y-41797623D02*
X133447146Y-41869052D01*
X133518575Y-42011909D01*
X133518575Y-42226194D01*
X133447146Y-42369052D01*
X133304289Y-42440480D01*
X132518575Y-42440480D01*
X131847146Y-28297624D02*
X131847146Y-44297624D01*
X127347146Y-28297624D02*
X134547146Y-28297624D01*
X127347146Y-44297624D02*
X134547146Y-44297624D01*
X131847146Y-44297624D02*
X131260725Y-43171120D01*
X131847146Y-44297624D02*
X132433567Y-43171120D01*
X131847146Y-28297624D02*
X131260725Y-29424128D01*
X131847146Y-28297624D02*
X132433567Y-29424128D01*
X112578573Y-35128572D02*
X113507144Y-35128572D01*
X113007144Y-35700001D01*
X113221430Y-35700001D01*
X113364287Y-35771430D01*
X113435716Y-35842858D01*
X113507144Y-35985715D01*
X113507144Y-36342858D01*
X113435716Y-36485715D01*
X113364287Y-36557144D01*
X113221430Y-36628572D01*
X112792858Y-36628572D01*
X112650001Y-36557144D01*
X112578573Y-36485715D01*
X114221429Y-36557144D02*
X114221429Y-36628572D01*
X114150001Y-36771430D01*
X114078572Y-36842858D01*
X115578573Y-35128572D02*
X114864287Y-35128572D01*
X114792858Y-35842858D01*
X114864287Y-35771430D01*
X115007144Y-35700001D01*
X115364287Y-35700001D01*
X115507144Y-35771430D01*
X115578573Y-35842858D01*
X115650001Y-35985715D01*
X115650001Y-36342858D01*
X115578573Y-36485715D01*
X115507144Y-36557144D01*
X115364287Y-36628572D01*
X115007144Y-36628572D01*
X114864287Y-36557144D01*
X114792858Y-36485715D01*
X116578572Y-35128572D02*
X116721429Y-35128572D01*
X116864286Y-35200001D01*
X116935715Y-35271430D01*
X117007144Y-35414287D01*
X117078572Y-35700001D01*
X117078572Y-36057144D01*
X117007144Y-36342858D01*
X116935715Y-36485715D01*
X116864286Y-36557144D01*
X116721429Y-36628572D01*
X116578572Y-36628572D01*
X116435715Y-36557144D01*
X116364286Y-36485715D01*
X116292858Y-36342858D01*
X116221429Y-36057144D01*
X116221429Y-35700001D01*
X116292858Y-35414287D01*
X116364286Y-35271430D01*
X116435715Y-35200001D01*
X116578572Y-35128572D01*
X118007143Y-35128572D02*
X118150000Y-35128572D01*
X118292857Y-35200001D01*
X118364286Y-35271430D01*
X118435715Y-35414287D01*
X118507143Y-35700001D01*
X118507143Y-36057144D01*
X118435715Y-36342858D01*
X118364286Y-36485715D01*
X118292857Y-36557144D01*
X118150000Y-36628572D01*
X118007143Y-36628572D01*
X117864286Y-36557144D01*
X117792857Y-36485715D01*
X117721429Y-36342858D01*
X117650000Y-36057144D01*
X117650000Y-35700001D01*
X117721429Y-35414287D01*
X117792857Y-35271430D01*
X117864286Y-35200001D01*
X118007143Y-35128572D01*
X120292857Y-36628572D02*
X120292857Y-35628572D01*
X120292857Y-35771430D02*
X120364285Y-35700001D01*
X120507143Y-35628572D01*
X120721428Y-35628572D01*
X120864285Y-35700001D01*
X120935714Y-35842858D01*
X120935714Y-36628572D01*
X120935714Y-35842858D02*
X121007143Y-35700001D01*
X121150000Y-35628572D01*
X121364285Y-35628572D01*
X121507143Y-35700001D01*
X121578571Y-35842858D01*
X121578571Y-36628572D01*
X122292857Y-36628572D02*
X122292857Y-35628572D01*
X122292857Y-35771430D02*
X122364285Y-35700001D01*
X122507143Y-35628572D01*
X122721428Y-35628572D01*
X122864285Y-35700001D01*
X122935714Y-35842858D01*
X122935714Y-36628572D01*
X122935714Y-35842858D02*
X123007143Y-35700001D01*
X123150000Y-35628572D01*
X123364285Y-35628572D01*
X123507143Y-35700001D01*
X123578571Y-35842858D01*
X123578571Y-36628572D01*
X119900000Y-37300001D02*
X116400000Y-37300001D01*
X119900000Y-41200000D02*
X119900000Y-34600001D01*
X116400000Y-41200000D02*
X116400000Y-34600001D01*
X116400000Y-37300001D02*
X117526504Y-36713580D01*
X116400000Y-37300001D02*
X117526504Y-37886422D01*
X119900000Y-37300001D02*
X118773496Y-36713580D01*
X119900000Y-37300001D02*
X118773496Y-37886422D01*
X109642858Y-19928571D02*
X108785715Y-19928571D01*
X109214287Y-19928571D02*
X109214287Y-18428571D01*
X109071430Y-18642857D01*
X108928572Y-18785714D01*
X108785715Y-18857143D01*
X110571429Y-18428571D02*
X110714286Y-18428571D01*
X110857143Y-18500000D01*
X110928572Y-18571429D01*
X111000001Y-18714286D01*
X111071429Y-19000000D01*
X111071429Y-19357143D01*
X111000001Y-19642857D01*
X110928572Y-19785714D01*
X110857143Y-19857143D01*
X110714286Y-19928571D01*
X110571429Y-19928571D01*
X110428572Y-19857143D01*
X110357143Y-19785714D01*
X110285715Y-19642857D01*
X110214286Y-19357143D01*
X110214286Y-19000000D01*
X110285715Y-18714286D01*
X110357143Y-18571429D01*
X110428572Y-18500000D01*
X110571429Y-18428571D01*
X111785714Y-19857143D02*
X111785714Y-19928571D01*
X111714286Y-20071429D01*
X111642857Y-20142857D01*
X112714286Y-18428571D02*
X112857143Y-18428571D01*
X113000000Y-18500000D01*
X113071429Y-18571429D01*
X113142858Y-18714286D01*
X113214286Y-19000000D01*
X113214286Y-19357143D01*
X113142858Y-19642857D01*
X113071429Y-19785714D01*
X113000000Y-19857143D01*
X112857143Y-19928571D01*
X112714286Y-19928571D01*
X112571429Y-19857143D01*
X112500000Y-19785714D01*
X112428572Y-19642857D01*
X112357143Y-19357143D01*
X112357143Y-19000000D01*
X112428572Y-18714286D01*
X112500000Y-18571429D01*
X112571429Y-18500000D01*
X112714286Y-18428571D01*
X114142857Y-18428571D02*
X114285714Y-18428571D01*
X114428571Y-18500000D01*
X114500000Y-18571429D01*
X114571429Y-18714286D01*
X114642857Y-19000000D01*
X114642857Y-19357143D01*
X114571429Y-19642857D01*
X114500000Y-19785714D01*
X114428571Y-19857143D01*
X114285714Y-19928571D01*
X114142857Y-19928571D01*
X114000000Y-19857143D01*
X113928571Y-19785714D01*
X113857143Y-19642857D01*
X113785714Y-19357143D01*
X113785714Y-19000000D01*
X113857143Y-18714286D01*
X113928571Y-18571429D01*
X114000000Y-18500000D01*
X114142857Y-18428571D01*
X115571428Y-18428571D02*
X115714285Y-18428571D01*
X115857142Y-18500000D01*
X115928571Y-18571429D01*
X116000000Y-18714286D01*
X116071428Y-19000000D01*
X116071428Y-19357143D01*
X116000000Y-19642857D01*
X115928571Y-19785714D01*
X115857142Y-19857143D01*
X115714285Y-19928571D01*
X115571428Y-19928571D01*
X115428571Y-19857143D01*
X115357142Y-19785714D01*
X115285714Y-19642857D01*
X115214285Y-19357143D01*
X115214285Y-19000000D01*
X115285714Y-18714286D01*
X115357142Y-18571429D01*
X115428571Y-18500000D01*
X115571428Y-18428571D01*
X117857142Y-19928571D02*
X117857142Y-18928571D01*
X117857142Y-19071429D02*
X117928570Y-19000000D01*
X118071428Y-18928571D01*
X118285713Y-18928571D01*
X118428570Y-19000000D01*
X118499999Y-19142857D01*
X118499999Y-19928571D01*
X118499999Y-19142857D02*
X118571428Y-19000000D01*
X118714285Y-18928571D01*
X118928570Y-18928571D01*
X119071428Y-19000000D01*
X119142856Y-19142857D01*
X119142856Y-19928571D01*
X119857142Y-19928571D02*
X119857142Y-18928571D01*
X119857142Y-19071429D02*
X119928570Y-19000000D01*
X120071428Y-18928571D01*
X120285713Y-18928571D01*
X120428570Y-19000000D01*
X120499999Y-19142857D01*
X120499999Y-19928571D01*
X120499999Y-19142857D02*
X120571428Y-19000000D01*
X120714285Y-18928571D01*
X120928570Y-18928571D01*
X121071428Y-19000000D01*
X121142856Y-19142857D01*
X121142856Y-19928571D01*
X120000000Y-20600000D02*
X110000000Y-20600000D01*
X120000000Y-23000000D02*
X120000000Y-17900000D01*
X110000000Y-23000000D02*
X110000000Y-17900000D01*
X110000000Y-20600000D02*
X111126504Y-20013579D01*
X110000000Y-20600000D02*
X111126504Y-21186421D01*
X120000000Y-20600000D02*
X118873496Y-20013579D01*
X120000000Y-20600000D02*
X118873496Y-21186421D01*
X71371429Y-42500001D02*
X70371429Y-42500001D01*
X71942857Y-42142858D02*
X70871429Y-41785715D01*
X70871429Y-42714287D01*
X71871429Y-43571429D02*
X71871429Y-43714286D01*
X71800000Y-43857143D01*
X71728571Y-43928572D01*
X71585714Y-44000001D01*
X71300000Y-44071429D01*
X70942857Y-44071429D01*
X70657143Y-44000001D01*
X70514286Y-43928572D01*
X70442857Y-43857143D01*
X70371429Y-43714286D01*
X70371429Y-43571429D01*
X70442857Y-43428572D01*
X70514286Y-43357143D01*
X70657143Y-43285715D01*
X70942857Y-43214286D01*
X71300000Y-43214286D01*
X71585714Y-43285715D01*
X71728571Y-43357143D01*
X71800000Y-43428572D01*
X71871429Y-43571429D01*
X70442857Y-44785714D02*
X70371429Y-44785714D01*
X70228571Y-44714286D01*
X70157143Y-44642857D01*
X71871429Y-45714286D02*
X71871429Y-45857143D01*
X71800000Y-46000000D01*
X71728571Y-46071429D01*
X71585714Y-46142858D01*
X71300000Y-46214286D01*
X70942857Y-46214286D01*
X70657143Y-46142858D01*
X70514286Y-46071429D01*
X70442857Y-46000000D01*
X70371429Y-45857143D01*
X70371429Y-45714286D01*
X70442857Y-45571429D01*
X70514286Y-45500000D01*
X70657143Y-45428572D01*
X70942857Y-45357143D01*
X71300000Y-45357143D01*
X71585714Y-45428572D01*
X71728571Y-45500000D01*
X71800000Y-45571429D01*
X71871429Y-45714286D01*
X71871429Y-47142857D02*
X71871429Y-47285714D01*
X71800000Y-47428571D01*
X71728571Y-47500000D01*
X71585714Y-47571429D01*
X71300000Y-47642857D01*
X70942857Y-47642857D01*
X70657143Y-47571429D01*
X70514286Y-47500000D01*
X70442857Y-47428571D01*
X70371429Y-47285714D01*
X70371429Y-47142857D01*
X70442857Y-47000000D01*
X70514286Y-46928571D01*
X70657143Y-46857143D01*
X70942857Y-46785714D01*
X71300000Y-46785714D01*
X71585714Y-46857143D01*
X71728571Y-46928571D01*
X71800000Y-47000000D01*
X71871429Y-47142857D01*
X71871429Y-48571428D02*
X71871429Y-48714285D01*
X71800000Y-48857142D01*
X71728571Y-48928571D01*
X71585714Y-49000000D01*
X71300000Y-49071428D01*
X70942857Y-49071428D01*
X70657143Y-49000000D01*
X70514286Y-48928571D01*
X70442857Y-48857142D01*
X70371429Y-48714285D01*
X70371429Y-48571428D01*
X70442857Y-48428571D01*
X70514286Y-48357142D01*
X70657143Y-48285714D01*
X70942857Y-48214285D01*
X71300000Y-48214285D01*
X71585714Y-48285714D01*
X71728571Y-48357142D01*
X71800000Y-48428571D01*
X71871429Y-48571428D01*
X70371429Y-50857142D02*
X71371429Y-50857142D01*
X71228571Y-50857142D02*
X71300000Y-50928570D01*
X71371429Y-51071428D01*
X71371429Y-51285713D01*
X71300000Y-51428570D01*
X71157143Y-51499999D01*
X70371429Y-51499999D01*
X71157143Y-51499999D02*
X71300000Y-51571428D01*
X71371429Y-51714285D01*
X71371429Y-51928570D01*
X71300000Y-52071428D01*
X71157143Y-52142856D01*
X70371429Y-52142856D01*
X70371429Y-52857142D02*
X71371429Y-52857142D01*
X71228571Y-52857142D02*
X71300000Y-52928570D01*
X71371429Y-53071428D01*
X71371429Y-53285713D01*
X71300000Y-53428570D01*
X71157143Y-53499999D01*
X70371429Y-53499999D01*
X71157143Y-53499999D02*
X71300000Y-53571428D01*
X71371429Y-53714285D01*
X71371429Y-53928570D01*
X71300000Y-54071428D01*
X71157143Y-54142856D01*
X70371429Y-54142856D01*
X72400000Y-28000000D02*
X72400000Y-68000000D01*
X80000000Y-28000000D02*
X69700000Y-28000000D01*
X80000000Y-68000000D02*
X69700000Y-68000000D01*
X72400000Y-68000000D02*
X71813579Y-66873496D01*
X72400000Y-68000000D02*
X72986421Y-66873496D01*
X72400000Y-28000000D02*
X71813579Y-29126504D01*
X72400000Y-28000000D02*
X72986421Y-29126504D01*
X94509450Y-24364841D02*
X94506950Y-25364838D01*
X94153736Y-23792522D02*
X93793916Y-24863054D01*
X94722485Y-24865375D01*
X95582124Y-23867521D02*
X95724981Y-23867878D01*
X95867659Y-23939664D01*
X95938909Y-24011272D01*
X96009981Y-24154307D01*
X96080694Y-24440198D01*
X96079801Y-24797340D01*
X96007659Y-25082875D01*
X95935873Y-25225553D01*
X95864266Y-25296803D01*
X95721231Y-25367874D01*
X95578374Y-25367516D01*
X95435696Y-25295732D01*
X95364446Y-25224124D01*
X95293376Y-25081089D01*
X95222661Y-24795197D01*
X95223554Y-24438056D01*
X95295697Y-24152521D01*
X95367482Y-24009843D01*
X95439089Y-23938593D01*
X95582124Y-23867521D01*
X96792834Y-25299124D02*
X96792656Y-25370552D01*
X96720871Y-25513231D01*
X96649263Y-25584480D01*
X97724975Y-23872878D02*
X97867831Y-23873235D01*
X98010509Y-23945021D01*
X98081759Y-24016629D01*
X98152831Y-24159664D01*
X98223545Y-24445556D01*
X98222652Y-24802697D01*
X98150510Y-25088232D01*
X98078724Y-25230910D01*
X98007116Y-25302160D01*
X97864081Y-25373231D01*
X97721225Y-25372874D01*
X97578547Y-25301089D01*
X97507297Y-25229481D01*
X97436226Y-25086446D01*
X97365511Y-24800555D01*
X97366404Y-24443413D01*
X97438547Y-24157878D01*
X97510332Y-24015200D01*
X97581940Y-23943950D01*
X97724975Y-23872878D01*
X99153541Y-23876450D02*
X99296398Y-23876807D01*
X99439076Y-23948593D01*
X99510326Y-24020200D01*
X99581398Y-24163235D01*
X99652111Y-24449127D01*
X99651218Y-24806269D01*
X99579076Y-25091803D01*
X99507290Y-25234481D01*
X99435683Y-25305732D01*
X99292648Y-25376802D01*
X99149791Y-25376445D01*
X99007113Y-25304660D01*
X98935863Y-25233053D01*
X98864792Y-25090018D01*
X98794078Y-24804126D01*
X98794971Y-24446984D01*
X98867114Y-24161450D01*
X98938899Y-24018772D01*
X99010506Y-23947521D01*
X99153541Y-23876450D01*
X100582108Y-23880021D02*
X100724964Y-23880378D01*
X100867642Y-23952164D01*
X100938893Y-24023772D01*
X101009964Y-24166807D01*
X101080678Y-24452698D01*
X101079785Y-24809840D01*
X101007643Y-25095375D01*
X100935857Y-25238053D01*
X100864249Y-25309303D01*
X100721214Y-25380374D01*
X100578358Y-25380016D01*
X100435680Y-25308232D01*
X100364430Y-25236624D01*
X100293359Y-25093589D01*
X100222644Y-24807697D01*
X100223537Y-24450555D01*
X100295680Y-24165021D01*
X100367465Y-24022343D01*
X100439073Y-23951093D01*
X100582108Y-23880021D01*
X102864065Y-25385731D02*
X102866565Y-24385734D01*
X102866207Y-24528591D02*
X102937814Y-24457341D01*
X103080850Y-24386270D01*
X103295134Y-24386805D01*
X103437812Y-24458591D01*
X103508884Y-24601626D01*
X103506920Y-25387338D01*
X103508884Y-24601626D02*
X103580670Y-24458948D01*
X103723705Y-24387877D01*
X103937989Y-24388412D01*
X104080668Y-24460198D01*
X104151739Y-24603233D01*
X104149775Y-25388945D01*
X104864058Y-25390731D02*
X104866558Y-24390734D01*
X104866201Y-24533591D02*
X104937808Y-24462341D01*
X105080844Y-24391270D01*
X105295128Y-24391805D01*
X105437806Y-24463591D01*
X105508878Y-24606626D01*
X105506913Y-25392338D01*
X105508878Y-24606626D02*
X105580664Y-24463948D01*
X105723699Y-24392877D01*
X105937983Y-24393412D01*
X106080662Y-24465198D01*
X106151733Y-24608233D01*
X106149768Y-25393945D01*
X80005253Y-26000015D02*
X120005253Y-26100015D01*
X80000000Y-28101236D02*
X80012003Y-23300023D01*
X120000000Y-28201236D02*
X120012003Y-23400023D01*
X120005253Y-26100015D02*
X118877287Y-26683618D01*
X120005253Y-26100015D02*
X118880219Y-25510780D01*
X80005253Y-26000015D02*
X81130287Y-26589250D01*
X80005253Y-26000015D02*
X81133219Y-25416412D01*
M02*
