G04 #@! TF.FileFunction,Soldermask,Top*
%FSLAX46Y46*%
G04 Gerber Fmt 4.6, Leading zero omitted, Abs format (unit mm)*
G04 Created by KiCad (PCBNEW 4.0.2+dfsg1-2~bpo8+1-stable) date lun 05 jun 2017 18:32:46 ART*
%MOMM*%
G01*
G04 APERTURE LIST*
%ADD10C,0.100000*%
%ADD11R,0.950000X1.400000*%
%ADD12R,1.842240X0.942240*%
%ADD13R,1.400000X0.950000*%
%ADD14R,1.540000X1.090000*%
%ADD15R,1.090000X1.540000*%
%ADD16R,2.042240X2.142240*%
%ADD17R,2.142240X1.842240*%
%ADD18C,1.300000*%
%ADD19R,1.270000X0.960000*%
%ADD20R,1.270000X0.965200*%
%ADD21R,1.727200X1.727200*%
%ADD22O,1.727200X1.727200*%
%ADD23R,1.300480X2.150000*%
%ADD24R,3.799840X2.150000*%
%ADD25R,1.198880X1.198880*%
%ADD26R,1.737160X0.437160*%
%ADD27R,1.734820X0.434340*%
%ADD28C,0.600000*%
%ADD29R,1.937160X0.937160*%
%ADD30R,1.800000X0.800000*%
G04 APERTURE END LIST*
D10*
D11*
X91575000Y-29800000D03*
X93425000Y-29800000D03*
X103425000Y-29800000D03*
X101575000Y-29800000D03*
D12*
X107200000Y-32500000D03*
X107200000Y-29100000D03*
D11*
X103425000Y-31700000D03*
X101575000Y-31700000D03*
D13*
X97500000Y-34650000D03*
X97500000Y-32800000D03*
D11*
X91925000Y-36300000D03*
X90075000Y-36300000D03*
D13*
X103400000Y-37475000D03*
X103400000Y-39325000D03*
X92000000Y-58625000D03*
X92000000Y-56775000D03*
X93700000Y-62375000D03*
X93700000Y-64225000D03*
X97500000Y-61475000D03*
X97500000Y-63325000D03*
X101500000Y-61475000D03*
X101500000Y-63325000D03*
D12*
X106900000Y-61800000D03*
X106900000Y-58400000D03*
D11*
X104425000Y-65900000D03*
X102575000Y-65900000D03*
X90825000Y-61800000D03*
X88975000Y-61800000D03*
X100575000Y-34600000D03*
X102425000Y-34600000D03*
X104675000Y-34600000D03*
X106525000Y-34600000D03*
D13*
X106900000Y-65500000D03*
X106900000Y-63650000D03*
D14*
X103900000Y-61475000D03*
X103900000Y-63325000D03*
X99400000Y-61475000D03*
X99400000Y-63325000D03*
D15*
X91900000Y-38400000D03*
X90050000Y-38400000D03*
D14*
X95600000Y-34600000D03*
X95600000Y-32750000D03*
D16*
X89100000Y-47500000D03*
D17*
X82600000Y-44150000D03*
X82600000Y-50850000D03*
D18*
X86100000Y-47500000D03*
D19*
X97200000Y-49135000D03*
D20*
X97200000Y-50400000D03*
D21*
X82760000Y-54860000D03*
D22*
X85300000Y-54860000D03*
X82760000Y-57400000D03*
X85300000Y-57400000D03*
X82760000Y-59940000D03*
X85300000Y-59940000D03*
X82760000Y-62480000D03*
X85300000Y-62480000D03*
X82760000Y-65020000D03*
X85300000Y-65020000D03*
D21*
X82600000Y-30760000D03*
D22*
X85140000Y-30760000D03*
X82600000Y-33300000D03*
X85140000Y-33300000D03*
X82600000Y-35840000D03*
X85140000Y-35840000D03*
X82600000Y-38380000D03*
X85140000Y-38380000D03*
X82600000Y-40920000D03*
X85140000Y-40920000D03*
D23*
X95198760Y-58900000D03*
X97500000Y-58899740D03*
X99801240Y-58899740D03*
D24*
X97500000Y-52900260D03*
D23*
X99801240Y-37900000D03*
X97500000Y-37900260D03*
X95198760Y-37900260D03*
D24*
X97500000Y-43899740D03*
D25*
X99049020Y-65800000D03*
X96950980Y-65800000D03*
X96050980Y-29800000D03*
X98149020Y-29800000D03*
D26*
X117800000Y-48800000D03*
D27*
X117795780Y-48295300D03*
D26*
X117800000Y-47800000D03*
X117800000Y-47300000D03*
D27*
X117795780Y-46804320D03*
D26*
X114200000Y-46800000D03*
X114200000Y-47300000D03*
X114200000Y-47800000D03*
X114200000Y-48300000D03*
X114200000Y-48800000D03*
D28*
X114500000Y-45750000D03*
X114500000Y-49850000D03*
D29*
X116000000Y-50500000D03*
D30*
X116000000Y-45100000D03*
M02*
