M48
;DRILL file {KiCad 4.0.2+dfsg1-2~bpo8+1-stable} date lun 05 jun 2017 18:32:40 ART
;FORMAT={-:-/ absolute / metric / decimal}
FMAT,2
METRIC,TZ
T1C0.406
T2C1.016
%
G90
G05
M71
T1
X82.6Y-45.9
X82.6Y-48.5
X82.8Y-67.2
X84.9Y-67.2
X85.9Y-51.2
X87.9Y-61.2
X88.9Y-40.7
X88.9Y-38.4
X88.9Y-42.9
X88.9Y-45.5
X88.95Y-66.05
X89.9Y-31.7
X90.8Y-66.
X91.9Y-31.7
X91.9Y-40.7
X91.9Y-45.4
X91.9Y-51.2
X91.9Y-53.2
X91.9Y-42.8
X95.9Y-56.2
X97.5Y-31.7
X97.9Y-56.2
X100.5Y-31.7
X102.9Y-59.1
X103.2Y-56.2
X103.3Y-42.9
X103.4Y-33.3
X104.9Y-49.2
X106.4Y-51.2
X106.4Y-53.7
X107.705Y-48.281
X108.2Y-38.1
X108.2Y-40.3
X108.9Y-51.3
X109.Y-47.1
X111.7Y-48.3
X112.3Y-46.5
X115.885Y-47.043
X115.9Y-48.2
T2
X82.6Y-30.76
X82.6Y-33.3
X82.6Y-35.84
X82.6Y-38.38
X82.6Y-40.92
X82.76Y-54.86
X82.76Y-57.4
X82.76Y-59.94
X82.76Y-62.48
X82.76Y-65.02
X85.14Y-30.76
X85.14Y-33.3
X85.14Y-35.84
X85.14Y-38.38
X85.14Y-40.92
X85.3Y-54.86
X85.3Y-57.4
X85.3Y-59.94
X85.3Y-62.48
X85.3Y-65.02
T0
M30
