G04 #@! TF.FileFunction,Copper,L2,Bot,Signal*
%FSLAX46Y46*%
G04 Gerber Fmt 4.6, Leading zero omitted, Abs format (unit mm)*
G04 Created by KiCad (PCBNEW 4.0.2+dfsg1-2~bpo8+1-stable) date lun 05 jun 2017 18:32:46 ART*
%MOMM*%
G01*
G04 APERTURE LIST*
%ADD10C,0.100000*%
%ADD11R,1.727200X1.727200*%
%ADD12O,1.727200X1.727200*%
%ADD13C,0.600000*%
%ADD14C,0.711200*%
%ADD15C,0.304800*%
%ADD16C,0.254000*%
%ADD17C,0.152400*%
G04 APERTURE END LIST*
D10*
D11*
X82760000Y-54860000D03*
D12*
X85300000Y-54860000D03*
X82760000Y-57400000D03*
X85300000Y-57400000D03*
X82760000Y-59940000D03*
X85300000Y-59940000D03*
X82760000Y-62480000D03*
X85300000Y-62480000D03*
X82760000Y-65020000D03*
X85300000Y-65020000D03*
D11*
X82600000Y-30760000D03*
D12*
X85140000Y-30760000D03*
X82600000Y-33300000D03*
X85140000Y-33300000D03*
X82600000Y-35840000D03*
X85140000Y-35840000D03*
X82600000Y-38380000D03*
X85140000Y-38380000D03*
X82600000Y-40920000D03*
X85140000Y-40920000D03*
D13*
X114500000Y-45750000D03*
X114500000Y-49850000D03*
D14*
X90800000Y-66000000D03*
X88950000Y-66050000D03*
X108200000Y-38100000D03*
X108200000Y-40300000D03*
X103200000Y-56200000D03*
X102900000Y-59100000D03*
X103300000Y-42900000D03*
X91900002Y-42800000D03*
X88900000Y-42900000D03*
X91900000Y-40699998D03*
X88899996Y-40700000D03*
X112300000Y-46499996D03*
X88900000Y-45499994D03*
X91900000Y-45400008D03*
X85900000Y-51200000D03*
X82600000Y-48500000D03*
X82600000Y-45900000D03*
X97900000Y-56200000D03*
X95900000Y-56200000D03*
X84900000Y-67200000D03*
X82800000Y-67200000D03*
X89900000Y-31700000D03*
X91900000Y-31700000D03*
X91900000Y-53199986D03*
X91900000Y-51200000D03*
X87900000Y-61200000D03*
X88900000Y-38400000D03*
X97500000Y-31700000D03*
X100500000Y-31700000D03*
X104900000Y-49200000D03*
X106400000Y-53700000D03*
X108900000Y-51300000D03*
X103400000Y-33300000D03*
X111700000Y-48299990D03*
X115900000Y-48200000D03*
X115885139Y-47042560D03*
X106400000Y-51200000D03*
X107705134Y-48281346D03*
X109000000Y-47100000D03*
D15*
X88594401Y-66405599D02*
X88950000Y-66050000D01*
X84900000Y-67200000D02*
X87800000Y-67200000D01*
X87800000Y-67200000D02*
X88594401Y-66405599D01*
D16*
X112300000Y-46499996D02*
X112300000Y-45450000D01*
X112300000Y-45450000D02*
X111600000Y-44750000D01*
X111600000Y-44750000D02*
X109400000Y-44750000D01*
X108555599Y-43905599D02*
X108555599Y-40655599D01*
X109400000Y-44750000D02*
X108555599Y-43905599D01*
X108555599Y-40655599D02*
X108200000Y-40300000D01*
D15*
X108200000Y-40300000D02*
X108200000Y-38100000D01*
X97900000Y-56200000D02*
X103200000Y-56200000D01*
X95900000Y-56200000D02*
X97900000Y-56200000D01*
X100500000Y-31700000D02*
X97500000Y-31700000D01*
D17*
X85300000Y-62440000D02*
X88400000Y-59340000D01*
X88400000Y-59340000D02*
X88400000Y-50500000D01*
X88400000Y-50500000D02*
X89700000Y-49200000D01*
X89700000Y-49200000D02*
X104397106Y-49200000D01*
X104397106Y-49200000D02*
X104900000Y-49200000D01*
D15*
X108900000Y-51300000D02*
X106500000Y-53700000D01*
X106500000Y-53700000D02*
X106400000Y-53700000D01*
D17*
X103400000Y-33300000D02*
X106450000Y-36350000D01*
X106450000Y-36350000D02*
X106450000Y-43000000D01*
X106450000Y-43000000D02*
X110150000Y-46700000D01*
X110150000Y-46700000D02*
X110150000Y-48299990D01*
X108999990Y-48299990D02*
X110150000Y-48299990D01*
X110150000Y-48299990D02*
X111197106Y-48299990D01*
X85140000Y-40920000D02*
X88104201Y-43884201D01*
X88104201Y-43884201D02*
X104584201Y-43884201D01*
X104584201Y-43884201D02*
X108999990Y-48299990D01*
X111197106Y-48299990D02*
X111700000Y-48299990D01*
X115900000Y-48200000D02*
X113800000Y-48200000D01*
X113800000Y-48200000D02*
X112400000Y-49600000D01*
X112400000Y-49600000D02*
X106800000Y-49600000D01*
X106800000Y-49600000D02*
X105100000Y-47900000D01*
X105100000Y-47900000D02*
X89300000Y-47900000D01*
X89300000Y-47900000D02*
X87600000Y-49600000D01*
X87600000Y-49600000D02*
X87600000Y-52560000D01*
X87600000Y-52560000D02*
X86163599Y-53996401D01*
X86163599Y-53996401D02*
X85300000Y-54860000D01*
X85300000Y-54820000D02*
X85780000Y-54820000D01*
X115885139Y-47042560D02*
X114107440Y-47042560D01*
X114107440Y-47042560D02*
X111950000Y-49200000D01*
X111950000Y-49200000D02*
X107100000Y-49200000D01*
X107100000Y-49200000D02*
X105350000Y-47450000D01*
X105350000Y-47450000D02*
X88250000Y-47450000D01*
X85300000Y-49200000D02*
X84106199Y-50393801D01*
X84106199Y-50393801D02*
X84106199Y-56166199D01*
X88250000Y-47450000D02*
X86500000Y-49200000D01*
X86500000Y-49200000D02*
X85300000Y-49200000D01*
X84106199Y-56166199D02*
X85300000Y-57360000D01*
D15*
X85300000Y-65020000D02*
X85320000Y-65000000D01*
X105400000Y-51200000D02*
X106400000Y-51200000D01*
X85320000Y-65000000D02*
X102500000Y-65000000D01*
X102500000Y-65000000D02*
X104560401Y-62939599D01*
X104560401Y-62939599D02*
X104560401Y-52039599D01*
X104560401Y-52039599D02*
X105400000Y-51200000D01*
D17*
X85140000Y-30760000D02*
X84047799Y-31852201D01*
X84047799Y-31852201D02*
X84047799Y-43547799D01*
X84047799Y-43547799D02*
X84900000Y-44400000D01*
X84900000Y-44400000D02*
X103823788Y-44400000D01*
X103823788Y-44400000D02*
X106123788Y-46700000D01*
X106123788Y-46700000D02*
X107705134Y-48281346D01*
X85140000Y-33300000D02*
X86700000Y-33300000D01*
X86700000Y-33300000D02*
X87300000Y-33900000D01*
X87300000Y-33900000D02*
X87300000Y-40801318D01*
X108900000Y-47100000D02*
X109000000Y-47100000D01*
X87300000Y-40801318D02*
X88315799Y-41817117D01*
X88315799Y-41817117D02*
X103617117Y-41817117D01*
X103617117Y-41817117D02*
X108900000Y-47100000D01*
D16*
G36*
X109055051Y-28825671D02*
X109186499Y-28913501D01*
X109274329Y-29044949D01*
X109316600Y-29257458D01*
X109316600Y-43200000D01*
X109327810Y-43256356D01*
X109327810Y-43313815D01*
X109403930Y-43696498D01*
X109491040Y-43906802D01*
X109707813Y-44231226D01*
X109868774Y-44392187D01*
X110193197Y-44608959D01*
X110403502Y-44696070D01*
X110786185Y-44772190D01*
X110843644Y-44772190D01*
X110900000Y-44783400D01*
X117845664Y-44783400D01*
X118440230Y-44901667D01*
X118896101Y-45206269D01*
X119200703Y-45662140D01*
X119316600Y-46244790D01*
X119316600Y-50142541D01*
X119198208Y-50737735D01*
X118893606Y-51193606D01*
X118437735Y-51498208D01*
X117842540Y-51616600D01*
X111000000Y-51616600D01*
X110982868Y-51620008D01*
X110929063Y-51617324D01*
X110858006Y-51627810D01*
X110786185Y-51627810D01*
X110403502Y-51703930D01*
X110193197Y-51791041D01*
X109868774Y-52007813D01*
X109707813Y-52168774D01*
X109491040Y-52493198D01*
X109421531Y-52661009D01*
X109403930Y-52703502D01*
X109327810Y-53086185D01*
X109327810Y-53143644D01*
X109316600Y-53200000D01*
X109316600Y-67142542D01*
X109274329Y-67355051D01*
X109186499Y-67486499D01*
X109055051Y-67574329D01*
X108842542Y-67616600D01*
X80957458Y-67616600D01*
X80744949Y-67574329D01*
X80613501Y-67486499D01*
X80525671Y-67355051D01*
X80483400Y-67142542D01*
X80483400Y-65331128D01*
X81607456Y-65331128D01*
X81725019Y-65614978D01*
X82031490Y-65965758D01*
X82448870Y-66172555D01*
X82633000Y-66124487D01*
X82633000Y-65147000D01*
X81656031Y-65147000D01*
X81607456Y-65331128D01*
X80483400Y-65331128D01*
X80483400Y-64708872D01*
X81607456Y-64708872D01*
X81656031Y-64893000D01*
X82633000Y-64893000D01*
X82633000Y-63915513D01*
X82448870Y-63867445D01*
X82031490Y-64074242D01*
X81725019Y-64425022D01*
X81607456Y-64708872D01*
X80483400Y-64708872D01*
X80483400Y-62791128D01*
X81607456Y-62791128D01*
X81725019Y-63074978D01*
X82031490Y-63425758D01*
X82448870Y-63632555D01*
X82633000Y-63584487D01*
X82633000Y-62607000D01*
X81656031Y-62607000D01*
X81607456Y-62791128D01*
X80483400Y-62791128D01*
X80483400Y-62168872D01*
X81607456Y-62168872D01*
X81656031Y-62353000D01*
X82633000Y-62353000D01*
X82633000Y-61375513D01*
X82448870Y-61327445D01*
X82031490Y-61534242D01*
X81725019Y-61885022D01*
X81607456Y-62168872D01*
X80483400Y-62168872D01*
X80483400Y-60251128D01*
X81607456Y-60251128D01*
X81725019Y-60534978D01*
X82031490Y-60885758D01*
X82448870Y-61092555D01*
X82633000Y-61044487D01*
X82633000Y-60067000D01*
X81656031Y-60067000D01*
X81607456Y-60251128D01*
X80483400Y-60251128D01*
X80483400Y-59628872D01*
X81607456Y-59628872D01*
X81656031Y-59813000D01*
X82633000Y-59813000D01*
X82633000Y-58835513D01*
X82448870Y-58787445D01*
X82031490Y-58994242D01*
X81725019Y-59345022D01*
X81607456Y-59628872D01*
X80483400Y-59628872D01*
X80483400Y-57711128D01*
X81607456Y-57711128D01*
X81725019Y-57994978D01*
X82031490Y-58345758D01*
X82448870Y-58552555D01*
X82633000Y-58504487D01*
X82633000Y-57527000D01*
X81656031Y-57527000D01*
X81607456Y-57711128D01*
X80483400Y-57711128D01*
X80483400Y-41231128D01*
X81447456Y-41231128D01*
X81565019Y-41514978D01*
X81871490Y-41865758D01*
X82288870Y-42072555D01*
X82473000Y-42024487D01*
X82473000Y-41047000D01*
X81496031Y-41047000D01*
X81447456Y-41231128D01*
X80483400Y-41231128D01*
X80483400Y-40608872D01*
X81447456Y-40608872D01*
X81496031Y-40793000D01*
X82473000Y-40793000D01*
X82473000Y-39815513D01*
X82288870Y-39767445D01*
X81871490Y-39974242D01*
X81565019Y-40325022D01*
X81447456Y-40608872D01*
X80483400Y-40608872D01*
X80483400Y-38691128D01*
X81447456Y-38691128D01*
X81565019Y-38974978D01*
X81871490Y-39325758D01*
X82288870Y-39532555D01*
X82473000Y-39484487D01*
X82473000Y-38507000D01*
X81496031Y-38507000D01*
X81447456Y-38691128D01*
X80483400Y-38691128D01*
X80483400Y-38068872D01*
X81447456Y-38068872D01*
X81496031Y-38253000D01*
X82473000Y-38253000D01*
X82473000Y-37275513D01*
X82288870Y-37227445D01*
X81871490Y-37434242D01*
X81565019Y-37785022D01*
X81447456Y-38068872D01*
X80483400Y-38068872D01*
X80483400Y-36151128D01*
X81447456Y-36151128D01*
X81565019Y-36434978D01*
X81871490Y-36785758D01*
X82288870Y-36992555D01*
X82473000Y-36944487D01*
X82473000Y-35967000D01*
X81496031Y-35967000D01*
X81447456Y-36151128D01*
X80483400Y-36151128D01*
X80483400Y-35528872D01*
X81447456Y-35528872D01*
X81496031Y-35713000D01*
X82473000Y-35713000D01*
X82473000Y-34735513D01*
X82288870Y-34687445D01*
X81871490Y-34894242D01*
X81565019Y-35245022D01*
X81447456Y-35528872D01*
X80483400Y-35528872D01*
X80483400Y-33611128D01*
X81447456Y-33611128D01*
X81565019Y-33894978D01*
X81871490Y-34245758D01*
X82288870Y-34452555D01*
X82473000Y-34404487D01*
X82473000Y-33427000D01*
X81496031Y-33427000D01*
X81447456Y-33611128D01*
X80483400Y-33611128D01*
X80483400Y-29896400D01*
X81192551Y-29896400D01*
X81192551Y-31623600D01*
X81229744Y-31821266D01*
X81346565Y-32002810D01*
X81524812Y-32124601D01*
X81736400Y-32167449D01*
X82248496Y-32167449D01*
X81871490Y-32354242D01*
X81565019Y-32705022D01*
X81447456Y-32988872D01*
X81496031Y-33173000D01*
X82473000Y-33173000D01*
X82473000Y-33153000D01*
X82727000Y-33153000D01*
X82727000Y-33173000D01*
X82747000Y-33173000D01*
X82747000Y-33427000D01*
X82727000Y-33427000D01*
X82727000Y-34404487D01*
X82911130Y-34452555D01*
X83328510Y-34245758D01*
X83438199Y-34120210D01*
X83438199Y-35019790D01*
X83328510Y-34894242D01*
X82911130Y-34687445D01*
X82727000Y-34735513D01*
X82727000Y-35713000D01*
X82747000Y-35713000D01*
X82747000Y-35967000D01*
X82727000Y-35967000D01*
X82727000Y-36944487D01*
X82911130Y-36992555D01*
X83328510Y-36785758D01*
X83438199Y-36660210D01*
X83438199Y-37559790D01*
X83328510Y-37434242D01*
X82911130Y-37227445D01*
X82727000Y-37275513D01*
X82727000Y-38253000D01*
X82747000Y-38253000D01*
X82747000Y-38507000D01*
X82727000Y-38507000D01*
X82727000Y-39484487D01*
X82911130Y-39532555D01*
X83328510Y-39325758D01*
X83438199Y-39200210D01*
X83438199Y-40099790D01*
X83328510Y-39974242D01*
X82911130Y-39767445D01*
X82727000Y-39815513D01*
X82727000Y-40793000D01*
X82747000Y-40793000D01*
X82747000Y-41047000D01*
X82727000Y-41047000D01*
X82727000Y-42024487D01*
X82911130Y-42072555D01*
X83328510Y-41865758D01*
X83438199Y-41740210D01*
X83438199Y-43547799D01*
X83484602Y-43781083D01*
X83616747Y-43978851D01*
X84468948Y-44831052D01*
X84666716Y-44963197D01*
X84900000Y-45009600D01*
X103571284Y-45009600D01*
X105415017Y-46853333D01*
X105350000Y-46840400D01*
X88250000Y-46840400D01*
X88016716Y-46886803D01*
X87818948Y-47018948D01*
X87283353Y-47554543D01*
X87283605Y-47265640D01*
X87103823Y-46830534D01*
X86771217Y-46497347D01*
X86336425Y-46316806D01*
X85865640Y-46316395D01*
X85430534Y-46496177D01*
X85097347Y-46828783D01*
X84916806Y-47263575D01*
X84916395Y-47734360D01*
X85096177Y-48169466D01*
X85428783Y-48502653D01*
X85640102Y-48590400D01*
X85300000Y-48590400D01*
X85066716Y-48636803D01*
X84997287Y-48683194D01*
X84868948Y-48768947D01*
X83675147Y-49962749D01*
X83543002Y-50160517D01*
X83496599Y-50393801D01*
X83496599Y-53452551D01*
X81896400Y-53452551D01*
X81698734Y-53489744D01*
X81517190Y-53606565D01*
X81395399Y-53784812D01*
X81352551Y-53996400D01*
X81352551Y-55723600D01*
X81389744Y-55921266D01*
X81506565Y-56102810D01*
X81684812Y-56224601D01*
X81896400Y-56267449D01*
X82408496Y-56267449D01*
X82031490Y-56454242D01*
X81725019Y-56805022D01*
X81607456Y-57088872D01*
X81656031Y-57273000D01*
X82633000Y-57273000D01*
X82633000Y-57253000D01*
X82887000Y-57253000D01*
X82887000Y-57273000D01*
X82907000Y-57273000D01*
X82907000Y-57527000D01*
X82887000Y-57527000D01*
X82887000Y-58504487D01*
X83071130Y-58552555D01*
X83488510Y-58345758D01*
X83794981Y-57994978D01*
X83912544Y-57711128D01*
X83863970Y-57527002D01*
X83900893Y-57527002D01*
X83981971Y-57934609D01*
X84284803Y-58387828D01*
X84707102Y-58670000D01*
X84284803Y-58952172D01*
X83981971Y-59405391D01*
X83900893Y-59812998D01*
X83863970Y-59812998D01*
X83912544Y-59628872D01*
X83794981Y-59345022D01*
X83488510Y-58994242D01*
X83071130Y-58787445D01*
X82887000Y-58835513D01*
X82887000Y-59813000D01*
X82907000Y-59813000D01*
X82907000Y-60067000D01*
X82887000Y-60067000D01*
X82887000Y-61044487D01*
X83071130Y-61092555D01*
X83488510Y-60885758D01*
X83794981Y-60534978D01*
X83912544Y-60251128D01*
X83863970Y-60067002D01*
X83900893Y-60067002D01*
X83981971Y-60474609D01*
X84284803Y-60927828D01*
X84707102Y-61210000D01*
X84284803Y-61492172D01*
X83981971Y-61945391D01*
X83900893Y-62352998D01*
X83863970Y-62352998D01*
X83912544Y-62168872D01*
X83794981Y-61885022D01*
X83488510Y-61534242D01*
X83071130Y-61327445D01*
X82887000Y-61375513D01*
X82887000Y-62353000D01*
X82907000Y-62353000D01*
X82907000Y-62607000D01*
X82887000Y-62607000D01*
X82887000Y-63584487D01*
X83071130Y-63632555D01*
X83488510Y-63425758D01*
X83794981Y-63074978D01*
X83912544Y-62791128D01*
X83863970Y-62607002D01*
X83900893Y-62607002D01*
X83981971Y-63014609D01*
X84284803Y-63467828D01*
X84707102Y-63750000D01*
X84284803Y-64032172D01*
X83981971Y-64485391D01*
X83900893Y-64892998D01*
X83863970Y-64892998D01*
X83912544Y-64708872D01*
X83794981Y-64425022D01*
X83488510Y-64074242D01*
X83071130Y-63867445D01*
X82887000Y-63915513D01*
X82887000Y-64893000D01*
X82907000Y-64893000D01*
X82907000Y-65147000D01*
X82887000Y-65147000D01*
X82887000Y-66124487D01*
X83071130Y-66172555D01*
X83488510Y-65965758D01*
X83794981Y-65614978D01*
X83912544Y-65331128D01*
X83863970Y-65147002D01*
X83900893Y-65147002D01*
X83981971Y-65554609D01*
X84284803Y-66007828D01*
X84738022Y-66310660D01*
X85272631Y-66417000D01*
X85327369Y-66417000D01*
X85861978Y-66310660D01*
X86315197Y-66007828D01*
X86530370Y-65685800D01*
X102500000Y-65685800D01*
X102762445Y-65633597D01*
X102984934Y-65484934D01*
X105045335Y-63424533D01*
X105193998Y-63202044D01*
X105246201Y-62939599D01*
X105246201Y-53876057D01*
X105510846Y-53876057D01*
X105645903Y-54202920D01*
X105895764Y-54453218D01*
X106222391Y-54588846D01*
X106576057Y-54589154D01*
X106902920Y-54454097D01*
X107153218Y-54204236D01*
X107286422Y-53883446D01*
X108980797Y-52189071D01*
X109076057Y-52189154D01*
X109402920Y-52054097D01*
X109653218Y-51804236D01*
X109788846Y-51477609D01*
X109789154Y-51123943D01*
X109654097Y-50797080D01*
X109404236Y-50546782D01*
X109077609Y-50411154D01*
X108723943Y-50410846D01*
X108397080Y-50545903D01*
X108146782Y-50795764D01*
X108011154Y-51122391D01*
X108011070Y-51219062D01*
X106419116Y-52811016D01*
X106223943Y-52810846D01*
X105897080Y-52945903D01*
X105646782Y-53195764D01*
X105511154Y-53522391D01*
X105510846Y-53876057D01*
X105246201Y-53876057D01*
X105246201Y-52323667D01*
X105684068Y-51885800D01*
X105828464Y-51885800D01*
X105895764Y-51953218D01*
X106222391Y-52088846D01*
X106576057Y-52089154D01*
X106902920Y-51954097D01*
X107153218Y-51704236D01*
X107288846Y-51377609D01*
X107289154Y-51023943D01*
X107154097Y-50697080D01*
X106904236Y-50446782D01*
X106577609Y-50311154D01*
X106223943Y-50310846D01*
X105897080Y-50445903D01*
X105828664Y-50514200D01*
X105400000Y-50514200D01*
X105137556Y-50566403D01*
X104941984Y-50697080D01*
X104915066Y-50715066D01*
X104075467Y-51554665D01*
X103926804Y-51777154D01*
X103905193Y-51885800D01*
X103874601Y-52039599D01*
X103874601Y-62655531D01*
X102215932Y-64314200D01*
X86503643Y-64314200D01*
X86315197Y-64032172D01*
X85892898Y-63750000D01*
X86315197Y-63467828D01*
X86618029Y-63014609D01*
X86724369Y-62480000D01*
X86624447Y-61977657D01*
X88831052Y-59771052D01*
X88963197Y-59573284D01*
X89009600Y-59340000D01*
X89009600Y-50752504D01*
X89952505Y-49809600D01*
X104252397Y-49809600D01*
X104395764Y-49953218D01*
X104722391Y-50088846D01*
X105076057Y-50089154D01*
X105402920Y-49954097D01*
X105653218Y-49704236D01*
X105767327Y-49429431D01*
X106368948Y-50031052D01*
X106566716Y-50163197D01*
X106800000Y-50209600D01*
X112400000Y-50209600D01*
X112633284Y-50163197D01*
X112831052Y-50031052D01*
X112847058Y-50015046D01*
X113666456Y-50015046D01*
X113793066Y-50321466D01*
X114027301Y-50556110D01*
X114333499Y-50683255D01*
X114665046Y-50683544D01*
X114971466Y-50556934D01*
X115206110Y-50322699D01*
X115333255Y-50016501D01*
X115333544Y-49684954D01*
X115206934Y-49378534D01*
X114972699Y-49143890D01*
X114666501Y-49016745D01*
X114334954Y-49016456D01*
X114028534Y-49143066D01*
X113793890Y-49377301D01*
X113666745Y-49683499D01*
X113666456Y-50015046D01*
X112847058Y-50015046D01*
X114052504Y-48809600D01*
X115252397Y-48809600D01*
X115395764Y-48953218D01*
X115722391Y-49088846D01*
X116076057Y-49089154D01*
X116402920Y-48954097D01*
X116653218Y-48704236D01*
X116788846Y-48377609D01*
X116789154Y-48023943D01*
X116654097Y-47697080D01*
X116571099Y-47613937D01*
X116638357Y-47546796D01*
X116773985Y-47220169D01*
X116774293Y-46866503D01*
X116639236Y-46539640D01*
X116389375Y-46289342D01*
X116062748Y-46153714D01*
X115709082Y-46153406D01*
X115382219Y-46288463D01*
X115237469Y-46432960D01*
X114995482Y-46432960D01*
X115206110Y-46222699D01*
X115333255Y-45916501D01*
X115333544Y-45584954D01*
X115206934Y-45278534D01*
X114972699Y-45043890D01*
X114666501Y-44916745D01*
X114334954Y-44916456D01*
X114028534Y-45043066D01*
X113793890Y-45277301D01*
X113666745Y-45583499D01*
X113666456Y-45915046D01*
X113793066Y-46221466D01*
X114021296Y-46450095D01*
X113874156Y-46479363D01*
X113676388Y-46611508D01*
X112464836Y-47823060D01*
X112454097Y-47797070D01*
X112204236Y-47546772D01*
X111877609Y-47411144D01*
X111523943Y-47410836D01*
X111197080Y-47545893D01*
X111052330Y-47690390D01*
X110759600Y-47690390D01*
X110759600Y-46700000D01*
X110713197Y-46466716D01*
X110581052Y-46268948D01*
X107059600Y-42747496D01*
X107059600Y-36350000D01*
X107013197Y-36116716D01*
X106881052Y-35918947D01*
X104288977Y-33326873D01*
X104289154Y-33123943D01*
X104154097Y-32797080D01*
X103904236Y-32546782D01*
X103577609Y-32411154D01*
X103223943Y-32410846D01*
X102897080Y-32545903D01*
X102646782Y-32795764D01*
X102511154Y-33122391D01*
X102510846Y-33476057D01*
X102645903Y-33802920D01*
X102895764Y-34053218D01*
X103222391Y-34188846D01*
X103426920Y-34189024D01*
X105840400Y-36602505D01*
X105840400Y-43000000D01*
X105884671Y-43222567D01*
X104048169Y-41386065D01*
X103850401Y-41253920D01*
X103617117Y-41207517D01*
X88568303Y-41207517D01*
X87909600Y-40548814D01*
X87909600Y-33900000D01*
X87863197Y-33666716D01*
X87731052Y-33468948D01*
X87131052Y-32868948D01*
X86933284Y-32736803D01*
X86700000Y-32690400D01*
X86407921Y-32690400D01*
X86155197Y-32312172D01*
X85732898Y-32030000D01*
X86155197Y-31747828D01*
X86458029Y-31294609D01*
X86564369Y-30760000D01*
X86458029Y-30225391D01*
X86155197Y-29772172D01*
X85701978Y-29469340D01*
X85167369Y-29363000D01*
X85112631Y-29363000D01*
X84578022Y-29469340D01*
X84124803Y-29772172D01*
X84007449Y-29947804D01*
X84007449Y-29896400D01*
X83970256Y-29698734D01*
X83853435Y-29517190D01*
X83675188Y-29395399D01*
X83463600Y-29352551D01*
X81736400Y-29352551D01*
X81538734Y-29389744D01*
X81357190Y-29506565D01*
X81235399Y-29684812D01*
X81192551Y-29896400D01*
X80483400Y-29896400D01*
X80483400Y-29257458D01*
X80525671Y-29044949D01*
X80613501Y-28913501D01*
X80744949Y-28825671D01*
X80957458Y-28783400D01*
X108842542Y-28783400D01*
X109055051Y-28825671D01*
X109055051Y-28825671D01*
G37*
X109055051Y-28825671D02*
X109186499Y-28913501D01*
X109274329Y-29044949D01*
X109316600Y-29257458D01*
X109316600Y-43200000D01*
X109327810Y-43256356D01*
X109327810Y-43313815D01*
X109403930Y-43696498D01*
X109491040Y-43906802D01*
X109707813Y-44231226D01*
X109868774Y-44392187D01*
X110193197Y-44608959D01*
X110403502Y-44696070D01*
X110786185Y-44772190D01*
X110843644Y-44772190D01*
X110900000Y-44783400D01*
X117845664Y-44783400D01*
X118440230Y-44901667D01*
X118896101Y-45206269D01*
X119200703Y-45662140D01*
X119316600Y-46244790D01*
X119316600Y-50142541D01*
X119198208Y-50737735D01*
X118893606Y-51193606D01*
X118437735Y-51498208D01*
X117842540Y-51616600D01*
X111000000Y-51616600D01*
X110982868Y-51620008D01*
X110929063Y-51617324D01*
X110858006Y-51627810D01*
X110786185Y-51627810D01*
X110403502Y-51703930D01*
X110193197Y-51791041D01*
X109868774Y-52007813D01*
X109707813Y-52168774D01*
X109491040Y-52493198D01*
X109421531Y-52661009D01*
X109403930Y-52703502D01*
X109327810Y-53086185D01*
X109327810Y-53143644D01*
X109316600Y-53200000D01*
X109316600Y-67142542D01*
X109274329Y-67355051D01*
X109186499Y-67486499D01*
X109055051Y-67574329D01*
X108842542Y-67616600D01*
X80957458Y-67616600D01*
X80744949Y-67574329D01*
X80613501Y-67486499D01*
X80525671Y-67355051D01*
X80483400Y-67142542D01*
X80483400Y-65331128D01*
X81607456Y-65331128D01*
X81725019Y-65614978D01*
X82031490Y-65965758D01*
X82448870Y-66172555D01*
X82633000Y-66124487D01*
X82633000Y-65147000D01*
X81656031Y-65147000D01*
X81607456Y-65331128D01*
X80483400Y-65331128D01*
X80483400Y-64708872D01*
X81607456Y-64708872D01*
X81656031Y-64893000D01*
X82633000Y-64893000D01*
X82633000Y-63915513D01*
X82448870Y-63867445D01*
X82031490Y-64074242D01*
X81725019Y-64425022D01*
X81607456Y-64708872D01*
X80483400Y-64708872D01*
X80483400Y-62791128D01*
X81607456Y-62791128D01*
X81725019Y-63074978D01*
X82031490Y-63425758D01*
X82448870Y-63632555D01*
X82633000Y-63584487D01*
X82633000Y-62607000D01*
X81656031Y-62607000D01*
X81607456Y-62791128D01*
X80483400Y-62791128D01*
X80483400Y-62168872D01*
X81607456Y-62168872D01*
X81656031Y-62353000D01*
X82633000Y-62353000D01*
X82633000Y-61375513D01*
X82448870Y-61327445D01*
X82031490Y-61534242D01*
X81725019Y-61885022D01*
X81607456Y-62168872D01*
X80483400Y-62168872D01*
X80483400Y-60251128D01*
X81607456Y-60251128D01*
X81725019Y-60534978D01*
X82031490Y-60885758D01*
X82448870Y-61092555D01*
X82633000Y-61044487D01*
X82633000Y-60067000D01*
X81656031Y-60067000D01*
X81607456Y-60251128D01*
X80483400Y-60251128D01*
X80483400Y-59628872D01*
X81607456Y-59628872D01*
X81656031Y-59813000D01*
X82633000Y-59813000D01*
X82633000Y-58835513D01*
X82448870Y-58787445D01*
X82031490Y-58994242D01*
X81725019Y-59345022D01*
X81607456Y-59628872D01*
X80483400Y-59628872D01*
X80483400Y-57711128D01*
X81607456Y-57711128D01*
X81725019Y-57994978D01*
X82031490Y-58345758D01*
X82448870Y-58552555D01*
X82633000Y-58504487D01*
X82633000Y-57527000D01*
X81656031Y-57527000D01*
X81607456Y-57711128D01*
X80483400Y-57711128D01*
X80483400Y-41231128D01*
X81447456Y-41231128D01*
X81565019Y-41514978D01*
X81871490Y-41865758D01*
X82288870Y-42072555D01*
X82473000Y-42024487D01*
X82473000Y-41047000D01*
X81496031Y-41047000D01*
X81447456Y-41231128D01*
X80483400Y-41231128D01*
X80483400Y-40608872D01*
X81447456Y-40608872D01*
X81496031Y-40793000D01*
X82473000Y-40793000D01*
X82473000Y-39815513D01*
X82288870Y-39767445D01*
X81871490Y-39974242D01*
X81565019Y-40325022D01*
X81447456Y-40608872D01*
X80483400Y-40608872D01*
X80483400Y-38691128D01*
X81447456Y-38691128D01*
X81565019Y-38974978D01*
X81871490Y-39325758D01*
X82288870Y-39532555D01*
X82473000Y-39484487D01*
X82473000Y-38507000D01*
X81496031Y-38507000D01*
X81447456Y-38691128D01*
X80483400Y-38691128D01*
X80483400Y-38068872D01*
X81447456Y-38068872D01*
X81496031Y-38253000D01*
X82473000Y-38253000D01*
X82473000Y-37275513D01*
X82288870Y-37227445D01*
X81871490Y-37434242D01*
X81565019Y-37785022D01*
X81447456Y-38068872D01*
X80483400Y-38068872D01*
X80483400Y-36151128D01*
X81447456Y-36151128D01*
X81565019Y-36434978D01*
X81871490Y-36785758D01*
X82288870Y-36992555D01*
X82473000Y-36944487D01*
X82473000Y-35967000D01*
X81496031Y-35967000D01*
X81447456Y-36151128D01*
X80483400Y-36151128D01*
X80483400Y-35528872D01*
X81447456Y-35528872D01*
X81496031Y-35713000D01*
X82473000Y-35713000D01*
X82473000Y-34735513D01*
X82288870Y-34687445D01*
X81871490Y-34894242D01*
X81565019Y-35245022D01*
X81447456Y-35528872D01*
X80483400Y-35528872D01*
X80483400Y-33611128D01*
X81447456Y-33611128D01*
X81565019Y-33894978D01*
X81871490Y-34245758D01*
X82288870Y-34452555D01*
X82473000Y-34404487D01*
X82473000Y-33427000D01*
X81496031Y-33427000D01*
X81447456Y-33611128D01*
X80483400Y-33611128D01*
X80483400Y-29896400D01*
X81192551Y-29896400D01*
X81192551Y-31623600D01*
X81229744Y-31821266D01*
X81346565Y-32002810D01*
X81524812Y-32124601D01*
X81736400Y-32167449D01*
X82248496Y-32167449D01*
X81871490Y-32354242D01*
X81565019Y-32705022D01*
X81447456Y-32988872D01*
X81496031Y-33173000D01*
X82473000Y-33173000D01*
X82473000Y-33153000D01*
X82727000Y-33153000D01*
X82727000Y-33173000D01*
X82747000Y-33173000D01*
X82747000Y-33427000D01*
X82727000Y-33427000D01*
X82727000Y-34404487D01*
X82911130Y-34452555D01*
X83328510Y-34245758D01*
X83438199Y-34120210D01*
X83438199Y-35019790D01*
X83328510Y-34894242D01*
X82911130Y-34687445D01*
X82727000Y-34735513D01*
X82727000Y-35713000D01*
X82747000Y-35713000D01*
X82747000Y-35967000D01*
X82727000Y-35967000D01*
X82727000Y-36944487D01*
X82911130Y-36992555D01*
X83328510Y-36785758D01*
X83438199Y-36660210D01*
X83438199Y-37559790D01*
X83328510Y-37434242D01*
X82911130Y-37227445D01*
X82727000Y-37275513D01*
X82727000Y-38253000D01*
X82747000Y-38253000D01*
X82747000Y-38507000D01*
X82727000Y-38507000D01*
X82727000Y-39484487D01*
X82911130Y-39532555D01*
X83328510Y-39325758D01*
X83438199Y-39200210D01*
X83438199Y-40099790D01*
X83328510Y-39974242D01*
X82911130Y-39767445D01*
X82727000Y-39815513D01*
X82727000Y-40793000D01*
X82747000Y-40793000D01*
X82747000Y-41047000D01*
X82727000Y-41047000D01*
X82727000Y-42024487D01*
X82911130Y-42072555D01*
X83328510Y-41865758D01*
X83438199Y-41740210D01*
X83438199Y-43547799D01*
X83484602Y-43781083D01*
X83616747Y-43978851D01*
X84468948Y-44831052D01*
X84666716Y-44963197D01*
X84900000Y-45009600D01*
X103571284Y-45009600D01*
X105415017Y-46853333D01*
X105350000Y-46840400D01*
X88250000Y-46840400D01*
X88016716Y-46886803D01*
X87818948Y-47018948D01*
X87283353Y-47554543D01*
X87283605Y-47265640D01*
X87103823Y-46830534D01*
X86771217Y-46497347D01*
X86336425Y-46316806D01*
X85865640Y-46316395D01*
X85430534Y-46496177D01*
X85097347Y-46828783D01*
X84916806Y-47263575D01*
X84916395Y-47734360D01*
X85096177Y-48169466D01*
X85428783Y-48502653D01*
X85640102Y-48590400D01*
X85300000Y-48590400D01*
X85066716Y-48636803D01*
X84997287Y-48683194D01*
X84868948Y-48768947D01*
X83675147Y-49962749D01*
X83543002Y-50160517D01*
X83496599Y-50393801D01*
X83496599Y-53452551D01*
X81896400Y-53452551D01*
X81698734Y-53489744D01*
X81517190Y-53606565D01*
X81395399Y-53784812D01*
X81352551Y-53996400D01*
X81352551Y-55723600D01*
X81389744Y-55921266D01*
X81506565Y-56102810D01*
X81684812Y-56224601D01*
X81896400Y-56267449D01*
X82408496Y-56267449D01*
X82031490Y-56454242D01*
X81725019Y-56805022D01*
X81607456Y-57088872D01*
X81656031Y-57273000D01*
X82633000Y-57273000D01*
X82633000Y-57253000D01*
X82887000Y-57253000D01*
X82887000Y-57273000D01*
X82907000Y-57273000D01*
X82907000Y-57527000D01*
X82887000Y-57527000D01*
X82887000Y-58504487D01*
X83071130Y-58552555D01*
X83488510Y-58345758D01*
X83794981Y-57994978D01*
X83912544Y-57711128D01*
X83863970Y-57527002D01*
X83900893Y-57527002D01*
X83981971Y-57934609D01*
X84284803Y-58387828D01*
X84707102Y-58670000D01*
X84284803Y-58952172D01*
X83981971Y-59405391D01*
X83900893Y-59812998D01*
X83863970Y-59812998D01*
X83912544Y-59628872D01*
X83794981Y-59345022D01*
X83488510Y-58994242D01*
X83071130Y-58787445D01*
X82887000Y-58835513D01*
X82887000Y-59813000D01*
X82907000Y-59813000D01*
X82907000Y-60067000D01*
X82887000Y-60067000D01*
X82887000Y-61044487D01*
X83071130Y-61092555D01*
X83488510Y-60885758D01*
X83794981Y-60534978D01*
X83912544Y-60251128D01*
X83863970Y-60067002D01*
X83900893Y-60067002D01*
X83981971Y-60474609D01*
X84284803Y-60927828D01*
X84707102Y-61210000D01*
X84284803Y-61492172D01*
X83981971Y-61945391D01*
X83900893Y-62352998D01*
X83863970Y-62352998D01*
X83912544Y-62168872D01*
X83794981Y-61885022D01*
X83488510Y-61534242D01*
X83071130Y-61327445D01*
X82887000Y-61375513D01*
X82887000Y-62353000D01*
X82907000Y-62353000D01*
X82907000Y-62607000D01*
X82887000Y-62607000D01*
X82887000Y-63584487D01*
X83071130Y-63632555D01*
X83488510Y-63425758D01*
X83794981Y-63074978D01*
X83912544Y-62791128D01*
X83863970Y-62607002D01*
X83900893Y-62607002D01*
X83981971Y-63014609D01*
X84284803Y-63467828D01*
X84707102Y-63750000D01*
X84284803Y-64032172D01*
X83981971Y-64485391D01*
X83900893Y-64892998D01*
X83863970Y-64892998D01*
X83912544Y-64708872D01*
X83794981Y-64425022D01*
X83488510Y-64074242D01*
X83071130Y-63867445D01*
X82887000Y-63915513D01*
X82887000Y-64893000D01*
X82907000Y-64893000D01*
X82907000Y-65147000D01*
X82887000Y-65147000D01*
X82887000Y-66124487D01*
X83071130Y-66172555D01*
X83488510Y-65965758D01*
X83794981Y-65614978D01*
X83912544Y-65331128D01*
X83863970Y-65147002D01*
X83900893Y-65147002D01*
X83981971Y-65554609D01*
X84284803Y-66007828D01*
X84738022Y-66310660D01*
X85272631Y-66417000D01*
X85327369Y-66417000D01*
X85861978Y-66310660D01*
X86315197Y-66007828D01*
X86530370Y-65685800D01*
X102500000Y-65685800D01*
X102762445Y-65633597D01*
X102984934Y-65484934D01*
X105045335Y-63424533D01*
X105193998Y-63202044D01*
X105246201Y-62939599D01*
X105246201Y-53876057D01*
X105510846Y-53876057D01*
X105645903Y-54202920D01*
X105895764Y-54453218D01*
X106222391Y-54588846D01*
X106576057Y-54589154D01*
X106902920Y-54454097D01*
X107153218Y-54204236D01*
X107286422Y-53883446D01*
X108980797Y-52189071D01*
X109076057Y-52189154D01*
X109402920Y-52054097D01*
X109653218Y-51804236D01*
X109788846Y-51477609D01*
X109789154Y-51123943D01*
X109654097Y-50797080D01*
X109404236Y-50546782D01*
X109077609Y-50411154D01*
X108723943Y-50410846D01*
X108397080Y-50545903D01*
X108146782Y-50795764D01*
X108011154Y-51122391D01*
X108011070Y-51219062D01*
X106419116Y-52811016D01*
X106223943Y-52810846D01*
X105897080Y-52945903D01*
X105646782Y-53195764D01*
X105511154Y-53522391D01*
X105510846Y-53876057D01*
X105246201Y-53876057D01*
X105246201Y-52323667D01*
X105684068Y-51885800D01*
X105828464Y-51885800D01*
X105895764Y-51953218D01*
X106222391Y-52088846D01*
X106576057Y-52089154D01*
X106902920Y-51954097D01*
X107153218Y-51704236D01*
X107288846Y-51377609D01*
X107289154Y-51023943D01*
X107154097Y-50697080D01*
X106904236Y-50446782D01*
X106577609Y-50311154D01*
X106223943Y-50310846D01*
X105897080Y-50445903D01*
X105828664Y-50514200D01*
X105400000Y-50514200D01*
X105137556Y-50566403D01*
X104941984Y-50697080D01*
X104915066Y-50715066D01*
X104075467Y-51554665D01*
X103926804Y-51777154D01*
X103905193Y-51885800D01*
X103874601Y-52039599D01*
X103874601Y-62655531D01*
X102215932Y-64314200D01*
X86503643Y-64314200D01*
X86315197Y-64032172D01*
X85892898Y-63750000D01*
X86315197Y-63467828D01*
X86618029Y-63014609D01*
X86724369Y-62480000D01*
X86624447Y-61977657D01*
X88831052Y-59771052D01*
X88963197Y-59573284D01*
X89009600Y-59340000D01*
X89009600Y-50752504D01*
X89952505Y-49809600D01*
X104252397Y-49809600D01*
X104395764Y-49953218D01*
X104722391Y-50088846D01*
X105076057Y-50089154D01*
X105402920Y-49954097D01*
X105653218Y-49704236D01*
X105767327Y-49429431D01*
X106368948Y-50031052D01*
X106566716Y-50163197D01*
X106800000Y-50209600D01*
X112400000Y-50209600D01*
X112633284Y-50163197D01*
X112831052Y-50031052D01*
X112847058Y-50015046D01*
X113666456Y-50015046D01*
X113793066Y-50321466D01*
X114027301Y-50556110D01*
X114333499Y-50683255D01*
X114665046Y-50683544D01*
X114971466Y-50556934D01*
X115206110Y-50322699D01*
X115333255Y-50016501D01*
X115333544Y-49684954D01*
X115206934Y-49378534D01*
X114972699Y-49143890D01*
X114666501Y-49016745D01*
X114334954Y-49016456D01*
X114028534Y-49143066D01*
X113793890Y-49377301D01*
X113666745Y-49683499D01*
X113666456Y-50015046D01*
X112847058Y-50015046D01*
X114052504Y-48809600D01*
X115252397Y-48809600D01*
X115395764Y-48953218D01*
X115722391Y-49088846D01*
X116076057Y-49089154D01*
X116402920Y-48954097D01*
X116653218Y-48704236D01*
X116788846Y-48377609D01*
X116789154Y-48023943D01*
X116654097Y-47697080D01*
X116571099Y-47613937D01*
X116638357Y-47546796D01*
X116773985Y-47220169D01*
X116774293Y-46866503D01*
X116639236Y-46539640D01*
X116389375Y-46289342D01*
X116062748Y-46153714D01*
X115709082Y-46153406D01*
X115382219Y-46288463D01*
X115237469Y-46432960D01*
X114995482Y-46432960D01*
X115206110Y-46222699D01*
X115333255Y-45916501D01*
X115333544Y-45584954D01*
X115206934Y-45278534D01*
X114972699Y-45043890D01*
X114666501Y-44916745D01*
X114334954Y-44916456D01*
X114028534Y-45043066D01*
X113793890Y-45277301D01*
X113666745Y-45583499D01*
X113666456Y-45915046D01*
X113793066Y-46221466D01*
X114021296Y-46450095D01*
X113874156Y-46479363D01*
X113676388Y-46611508D01*
X112464836Y-47823060D01*
X112454097Y-47797070D01*
X112204236Y-47546772D01*
X111877609Y-47411144D01*
X111523943Y-47410836D01*
X111197080Y-47545893D01*
X111052330Y-47690390D01*
X110759600Y-47690390D01*
X110759600Y-46700000D01*
X110713197Y-46466716D01*
X110581052Y-46268948D01*
X107059600Y-42747496D01*
X107059600Y-36350000D01*
X107013197Y-36116716D01*
X106881052Y-35918947D01*
X104288977Y-33326873D01*
X104289154Y-33123943D01*
X104154097Y-32797080D01*
X103904236Y-32546782D01*
X103577609Y-32411154D01*
X103223943Y-32410846D01*
X102897080Y-32545903D01*
X102646782Y-32795764D01*
X102511154Y-33122391D01*
X102510846Y-33476057D01*
X102645903Y-33802920D01*
X102895764Y-34053218D01*
X103222391Y-34188846D01*
X103426920Y-34189024D01*
X105840400Y-36602505D01*
X105840400Y-43000000D01*
X105884671Y-43222567D01*
X104048169Y-41386065D01*
X103850401Y-41253920D01*
X103617117Y-41207517D01*
X88568303Y-41207517D01*
X87909600Y-40548814D01*
X87909600Y-33900000D01*
X87863197Y-33666716D01*
X87731052Y-33468948D01*
X87131052Y-32868948D01*
X86933284Y-32736803D01*
X86700000Y-32690400D01*
X86407921Y-32690400D01*
X86155197Y-32312172D01*
X85732898Y-32030000D01*
X86155197Y-31747828D01*
X86458029Y-31294609D01*
X86564369Y-30760000D01*
X86458029Y-30225391D01*
X86155197Y-29772172D01*
X85701978Y-29469340D01*
X85167369Y-29363000D01*
X85112631Y-29363000D01*
X84578022Y-29469340D01*
X84124803Y-29772172D01*
X84007449Y-29947804D01*
X84007449Y-29896400D01*
X83970256Y-29698734D01*
X83853435Y-29517190D01*
X83675188Y-29395399D01*
X83463600Y-29352551D01*
X81736400Y-29352551D01*
X81538734Y-29389744D01*
X81357190Y-29506565D01*
X81235399Y-29684812D01*
X81192551Y-29896400D01*
X80483400Y-29896400D01*
X80483400Y-29257458D01*
X80525671Y-29044949D01*
X80613501Y-28913501D01*
X80744949Y-28825671D01*
X80957458Y-28783400D01*
X108842542Y-28783400D01*
X109055051Y-28825671D01*
G36*
X86990400Y-49600000D02*
X86990400Y-52307496D01*
X85750692Y-53547204D01*
X85327369Y-53463000D01*
X85272631Y-53463000D01*
X84738022Y-53569340D01*
X84715799Y-53584189D01*
X84715799Y-50646305D01*
X85552505Y-49809600D01*
X86500000Y-49809600D01*
X86733284Y-49763197D01*
X86931052Y-49631052D01*
X86997426Y-49564678D01*
X86990400Y-49600000D01*
X86990400Y-49600000D01*
G37*
X86990400Y-49600000D02*
X86990400Y-52307496D01*
X85750692Y-53547204D01*
X85327369Y-53463000D01*
X85272631Y-53463000D01*
X84738022Y-53569340D01*
X84715799Y-53584189D01*
X84715799Y-50646305D01*
X85552505Y-49809600D01*
X86500000Y-49809600D01*
X86733284Y-49763197D01*
X86931052Y-49631052D01*
X86997426Y-49564678D01*
X86990400Y-49600000D01*
G36*
X86690400Y-34152504D02*
X86690400Y-40801318D01*
X86736803Y-41034602D01*
X86868948Y-41232370D01*
X87884747Y-42248169D01*
X88082515Y-42380314D01*
X88315799Y-42426717D01*
X103364613Y-42426717D01*
X104212497Y-43274601D01*
X88356705Y-43274601D01*
X86471083Y-41388979D01*
X86564369Y-40920000D01*
X86458029Y-40385391D01*
X86155197Y-39932172D01*
X85732898Y-39650000D01*
X86155197Y-39367828D01*
X86458029Y-38914609D01*
X86564369Y-38380000D01*
X86458029Y-37845391D01*
X86155197Y-37392172D01*
X85732898Y-37110000D01*
X86155197Y-36827828D01*
X86458029Y-36374609D01*
X86564369Y-35840000D01*
X86458029Y-35305391D01*
X86155197Y-34852172D01*
X85732898Y-34570000D01*
X86155197Y-34287828D01*
X86407921Y-33909600D01*
X86447496Y-33909600D01*
X86690400Y-34152504D01*
X86690400Y-34152504D01*
G37*
X86690400Y-34152504D02*
X86690400Y-40801318D01*
X86736803Y-41034602D01*
X86868948Y-41232370D01*
X87884747Y-42248169D01*
X88082515Y-42380314D01*
X88315799Y-42426717D01*
X103364613Y-42426717D01*
X104212497Y-43274601D01*
X88356705Y-43274601D01*
X86471083Y-41388979D01*
X86564369Y-40920000D01*
X86458029Y-40385391D01*
X86155197Y-39932172D01*
X85732898Y-39650000D01*
X86155197Y-39367828D01*
X86458029Y-38914609D01*
X86564369Y-38380000D01*
X86458029Y-37845391D01*
X86155197Y-37392172D01*
X85732898Y-37110000D01*
X86155197Y-36827828D01*
X86458029Y-36374609D01*
X86564369Y-35840000D01*
X86458029Y-35305391D01*
X86155197Y-34852172D01*
X85732898Y-34570000D01*
X86155197Y-34287828D01*
X86407921Y-33909600D01*
X86447496Y-33909600D01*
X86690400Y-34152504D01*
M02*
